<svg width="36px" height="36px" viewBox="0 0 36 36" version="1.1" xmlns="http://www.w3.org/2000/svg" xmlns:xlink="http://www.w3.org/1999/xlink">
  <!-- Generator: Sketch 42 (36781) - http://www.bohemiancoding.com/sketch -->
  <desc>Created with Sketch.</desc>
  <defs>
    <polyline id="path-1" points="21 9 21 14 26 14"></polyline>
    <mask id="mask-2" maskContentUnits="userSpaceOnUse" maskUnits="objectBoundingBox" x="-1" y="-1" width="7" height="7">
      <rect x="20" y="8" width="7" height="7" fill="white"></rect>
      <use xlink:href="#path-1" fill="black"></use>
    </mask>
    <path d="M9,8.99477117 C9,8.44537422 9.45576096,8 10.0024733,8 L21,8 L27,14 L27,26.0014977 C27,26.5529553 26.5550537,27 26.0066023,27 L9.99339768,27 C9.44475929,27 9,26.5490746 9,26.0052288 L9,8.99477117 Z" id="path-3"></path>
    <mask id="mask-4" maskContentUnits="userSpaceOnUse" maskUnits="objectBoundingBox" x="0" y="0" width="18" height="19" fill="white">
      <use xlink:href="#path-3"></use>
    </mask>
  </defs>
  <g id="Group-12" stroke="none" stroke-width="1" fill="none" fill-rule="evenodd" transform="translate(0.000000, 0.000000)">
    <rect id="Rectangle-2" x="0" y="0" width="36" height="36"></rect>
    <rect id="Rectangle-12" fill="#C6D3DC" x="12" y="22.5" width="8" height="1" rx="0.5"></rect>
    <rect id="Rectangle-12" fill="#C6D3DC" x="12" y="19.5" width="10" height="1" rx="0.5"></rect>
    <g id="Path-8">
      <use fill-opacity="0.4" fill="#0077D2" fill-rule="evenodd" xlink:href="#path-1"></use>
      <use stroke="#C6D3DC" mask="url(#mask-2)" stroke-width="2" xlink:href="#path-1"></use>
    </g>
    <use id="Rectangle-7" stroke="#C6D3DC" mask="url(#mask-4)" stroke-width="2" xlink:href="#path-3"></use>
  </g>
</svg>
