<?xml version="1.0" encoding="UTF-8"?>
<svg width="62px" height="60px" viewBox="0 0 62 60" version="1.1" xmlns="http://www.w3.org/2000/svg" xmlns:xlink="http://www.w3.org/1999/xlink">
  <!-- Generator: Sketch 44.1 (41455) - http://www.bohemiancoding.com/sketch -->
  <title>Group 5</title>
  <desc>Created with Sketch.</desc>
  <defs>
    <path d="M0.300710829,20.9786751 C0.686917574,9.39247279 10.4079804,0 22.0061566,0 L39.9938434,0 C51.5952233,0 61.3129775,9.38932566 61.6992892,20.9786751 L62,30 L61.6992892,39.0213249 C61.3130824,50.6075272 51.5920196,60 39.9938434,60 L22.0061566,60 C10.4047767,60 0.687022478,50.6106743 0.300710829,39.0213249 L0,30 L0.300710829,20.9786751 Z" id="path-1"></path>
    <circle id="path-2" cx="11.25" cy="11.25" r="6.75"></circle>
  </defs>
  <g id="Hybrid" stroke="none" stroke-width="1" fill="none" fill-rule="evenodd">
    <g id="*导航_normal&amp;selected-间距调整" transform="translate(-780.000000, -33.000000)">
      <g id="Group-5" transform="translate(780.000000, 33.000000)">
        <g id="Rectangle-11">
          <use fill="#FAFDFF" fill-rule="evenodd" xlink:href="#path-1"></use>
          <path stroke="#97A4B6" stroke-width="1" d="M0.800433282,20.9953326 L0.499722453,29.9833426 L0.800433282,39.0046674 C1.17772202,50.3233297 10.6732548,59.5 22.0061566,59.5 L39.9938434,59.5 C51.3235597,59.5 60.8223835,50.3201644 61.1995667,39.0046674 L61.5002775,30.0166574 L61.1995667,20.9953326 C60.822278,9.67667031 51.3267452,0.5 39.9938434,0.5 L22.0061566,0.5 C10.6764403,0.5 1.17761651,9.67983562 0.800433282,20.9953326 Z"></path>
        </g>
        <g id="Group" transform="translate(16.000000, 15.000000)">
          <path d="M29.3519747,22.3664234 L21.4829602,14.5672152 L21.566854,14.2811917 C21.8530826,13.3053377 22,12.2877572 22,11.25 C22,5.31293894 17.1870611,0.5 11.25,0.5 C5.31293894,0.5 0.5,5.31293894 0.5,11.25 C0.5,17.1870611 5.31293894,22 11.25,22 C12.8851606,22 14.4673987,21.6349818 15.907747,20.9414206 L16.2243262,20.7889803 L17.2585845,21.8047227 L20.2368421,21.8047227 L20.2368421,24.824808 L23.0962271,24.824808 L23.5422567,27.6070644 L28.8607653,29.1491009 C28.9060134,29.16222 28.9528885,29.1688783 29,29.1688783 C29.2761424,29.1688783 29.5,28.9450207 29.5,28.6688783 L29.5,22.7215485 C29.5,22.5881682 29.4467081,22.4603165 29.3519747,22.3664234 Z" id="Combined-Shape" stroke="#97A4B6"></path>
          <g id="Oval-3">
            <use fill-opacity="0.39770154" fill="#97A4B6" fill-rule="evenodd" xlink:href="#path-2"></use>
            <circle stroke="#97A4B6" stroke-width="1" cx="11.25" cy="11.25" r="6.25"></circle>
          </g>
        </g>
      </g>
    </g>
  </g>
</svg>
