<?xml version="1.0" encoding="UTF-8"?>
<svg width="36px" height="36px" viewBox="0 0 36 36" version="1.1" xmlns="http://www.w3.org/2000/svg" xmlns:xlink="http://www.w3.org/1999/xlink">
  <!-- Generator: Sketch 45.1 (43504) - http://www.bohemiancoding.com/sketch -->
  <title>Group 4 Copy 6</title>
  <desc>Created with Sketch.</desc>
  <defs></defs>
  <g id="Hybrid" stroke="none" stroke-width="1" fill="none" fill-rule="evenodd">
    <g id="Group-62-Copy-2">
      <rect id="Rectangle-2" x="0" y="0" width="36" height="36"></rect>
      <g id="Group-7" transform="translate(8.000000, 8.000000)" stroke="#97A4B6">
        <path d="M19.3519747,14.9315159 L14.1340797,9.75990901 L14.2179735,9.47388553 C14.4043354,8.83851241 14.5,8.17591934 14.5,7.5 C14.5,3.63400675 11.3659932,0.5 7.5,0.5 C3.63400675,0.5 0.5,3.63400675 0.5,7.5 C0.5,11.3659932 3.63400675,14.5 7.5,14.5 C8.55117056,14.5 9.5684822,14.2684657 10.4967107,13.82806 L10.7982436,13.6849951 L11.0460194,13.9085949 C11.2060856,14.0530431 11.3774115,14.2067856 11.5599897,14.3698151 L13.6578947,14.3698151 L13.6578947,16.3832053 L15.5395608,16.3832053 L15.8426855,18.2740456 L18.8607653,19.1491009 C18.9060134,19.16222 18.9528885,19.1688783 19,19.1688783 C19.2761424,19.1688783 19.5,18.9450207 19.5,18.6688783 L19.5,15.2866409 C19.5,15.1532606 19.4467081,15.0254089 19.3519747,14.9315159 Z" id="Combined-Shape"></path>
        <circle id="Oval-3" cx="7.5" cy="7.5" r="4"></circle>
      </g>
    </g>
  </g>
</svg>
