
<svg width="62px" height="60px" viewBox="0 0 62 60" version="1.1" xmlns="http://www.w3.org/2000/svg" xmlns:xlink="http://www.w3.org/1999/xlink">
  <!-- Generator: Sketch 43.2 (39069) - http://www.bohemiancoding.com/sketch -->
  <desc>Created with Sketch.</desc>
  <defs>
    <path d="M60.3007108,1023.97868 C60.6869176,1012.39247 70.4079804,1003 82.0061566,1003 L99.9938434,1003 C111.595223,1003 121.312978,1012.38933 121.699289,1023.97868 L122,1033 L121.699289,1042.02132 C121.313082,1053.60753 111.59202,1063 99.9938434,1063 L82.0061566,1063 C70.4047767,1063 60.6870225,1053.61067 60.3007108,1042.02132 L60,1033 L60.3007108,1023.97868 Z" id="path-1"></path>
    <path d="M20.050415,19 L26.6715668,19 C28.5098097,19 30,20.5143736 30,22.3724143 L30,26.6275857 C30,28.4901187 28.5122953,30 26.6676336,30 L3.33236643,30 C1.49195127,30 0,28.4856264 0,26.6275857 L0,22.3724143 C0,20.5098813 1.49409579,19 3.337046,19 L9.79266357,19" id="path-2"></path>
    <polygon id="path-3" points="13 19 17 19 18 30 12 30"></polygon>
    <path d="M14.8443396,22.2857143 C20.7052002,22.2857143 24.5943396,16.1064971 24.5943396,10.6764706 C24.5943396,5.24644406 20.2291159,4.54747351e-13 14.8443396,4.54747351e-13 C9.45956331,4.54747351e-13 5.09433962,5.24644406 5.09433962,10.6764706 C5.09433962,16.1064971 8.98347905,22.2857143 14.8443396,22.2857143 Z" id="path-4"></path>
  </defs>
  <g id="云主机" stroke="none" stroke-width="1" fill="none" fill-rule="evenodd">
    <g id="*图标" transform="translate(-60.000000, -1003.000000)">
      <g id="Rectangle-11-Copy">
        <use fill="#FAFDFF" fill-rule="evenodd" xlink:href="#path-1"></use>
        <path stroke="#97A4B6" stroke-width="1" d="M60.8004333,1023.99533 C61.1776165,1012.67984 70.6764403,1003.5 82.0061566,1003.5 L99.9938434,1003.5 C111.326745,1003.5 120.822278,1012.67667 121.199567,1023.99533 L121.500278,1033.01666 L121.199567,1042.00467 C120.822383,1053.32016 111.32356,1062.5 99.9938434,1062.5 L82.0061566,1062.5 C70.6732548,1062.5 61.177722,1053.32333 60.8004333,1042.00467 L60.4997225,1032.98334 L60.8004333,1023.99533 Z"></path>
      </g>
      <g id="Group-26-Copy" transform="translate(76.000000, 1018.000000)">
        <g id="Rectangle-2">
          <use fill-opacity="0.39770154" fill="#97A4B6" fill-rule="evenodd" xlink:href="#path-2"></use>
          <path stroke="#97A4B6" stroke-width="1" d="M20.050415,19.5 L26.6715668,19.5 C28.2305531,19.5 29.5,20.7874045 29.5,22.3724143 L29.5,26.6275857 C29.5,28.2168873 28.2332405,29.5 26.6676336,29.5 L3.33236643,29.5 C1.77107553,29.5 0.5,28.2124653 0.5,26.6275857 L0.5,22.3724143 C0.5,20.7848689 1.77140683,19.5 3.337046,19.5 L9.79266357,19.5 L20.050415,19.5 L20.050415,19.5 Z"></path>
        </g>
        <g id="Rectangle-22">
          <use fill="#FAFDFF" fill-rule="evenodd" xlink:href="#path-3"></use>
          <path stroke="#97A4B6" stroke-width="1" d="M13.4566073,19.5 L16.5433927,19.5 L17.4524836,29.5 L12.5475164,29.5 L13.4566073,19.5 Z"></path>
        </g>
        <g id="Oval-3">
          <use fill="#FAFDFF" fill-rule="evenodd" xlink:href="#path-4"></use>
          <path stroke="#97A4B6" stroke-width="1" d="M14.8443396,21.7857143 C9.71731671,21.7857143 5.59433962,16.4084383 5.59433962,10.6764706 C5.59433962,5.34897684 9.89282355,0.5 14.8443396,0.5 C19.7958557,0.5 24.0943396,5.34897684 24.0943396,10.6764706 C24.0943396,16.4084383 19.9713625,21.7857143 14.8443396,21.7857143 Z"></path>
        </g>
      </g>
    </g>
  </g>
</svg>
