<?xml version="1.0" encoding="UTF-8"?>
<svg width="62px" height="60px" viewBox="0 0 62 60" version="1.1" xmlns="http://www.w3.org/2000/svg" xmlns:xlink="http://www.w3.org/1999/xlink">
  <!-- Generator: Sketch 47.1 (45422) - http://www.bohemiancoding.com/sketch -->
  <title>Rectangle 11 Copy</title>
  <desc>Created with Sketch.</desc>
  <defs>
    <path d="M665.300711,1218.97868 C665.686918,1207.39247 675.40798,1198 687.006157,1198 L704.993843,1198 C716.595223,1198 726.312978,1207.38933 726.699289,1218.97868 L727,1228 L726.699289,1237.02132 C726.313082,1248.60753 716.59202,1258 704.993843,1258 L687.006157,1258 C675.404777,1258 665.687022,1248.61067 665.300711,1237.02132 L665,1228 L665.300711,1218.97868 Z" id="path-1"></path>
    <path d="M18,1.08353497e-17 L29,5.04030578e-16 L29,6.66133815e-16 C29.5522847,-4.16374041e-16 30,0.44771525 30,1 L30,20 L30,20 C30,20.5522847 29.5522847,21 29,21 L18,21 L18,21 C17.4477153,21 17,20.5522847 17,20 L17,1 L17,1 C17,0.44771525 17.4477153,1.01453063e-16 18,0 Z" id="path-2"></path>
  </defs>
  <g id="UI-KIT" stroke="none" stroke-width="1" fill="none" fill-rule="evenodd">
    <g id="*图标" transform="translate(-665.000000, -1198.000000)">
      <g id="Rectangle-11-Copy">
        <use fill="#FAFDFF" fill-rule="evenodd" xlink:href="#path-1"></use>
        <path stroke="#97A4B6" stroke-width="1" d="M665.800433,1218.99533 L665.499722,1227.98334 L665.800433,1237.00467 C666.177722,1248.32333 675.673255,1257.5 687.006157,1257.5 L704.993843,1257.5 C716.32356,1257.5 725.822383,1248.32016 726.199567,1237.00467 L726.500278,1228.01666 L726.199567,1218.99533 C725.822278,1207.67667 716.326745,1198.5 704.993843,1198.5 L687.006157,1198.5 C675.67644,1198.5 666.177617,1207.67984 665.800433,1218.99533 Z"></path>
      </g>
      <g id="Group-164" transform="translate(681.000000, 1215.000000)">
        <g id="Rectangle-7">
          <use fill-opacity="0.39770154" fill="#97A4B6" fill-rule="evenodd" xlink:href="#path-2"></use>
          <path stroke="#97A4B6" stroke-width="1" d="M18,0.5 C17.7238576,0.5 17.5,0.723857625 17.5,1 L17.5,20 C17.5,20.2761424 17.7238576,20.5 18,20.5 L29,20.5 C29.2761424,20.5 29.5,20.2761424 29.5,20 L29.5,1 C29.5,0.723857625 29.2761424,0.5 29,0.5 L18,0.5 Z"></path>
        </g>
        <path d="M1,0.5 C0.723857625,0.5 0.5,0.723857625 0.5,1 L0.5,20 C0.5,20.2761424 0.723857625,20.5 1,20.5 L12,20.5 C12.2761424,20.5 12.5,20.2761424 12.5,20 L12.5,1 C12.5,0.723857625 12.2761424,0.5 12,0.5 L1,0.5 Z" id="Rectangle-7-Copy-2" stroke="#97A4B6"></path>
        <rect id="Rectangle-63" fill="#97A4B6" x="0" y="26" width="30" height="1" rx="0.5"></rect>
        <rect id="Rectangle-64" fill="#97A4B6" x="6" y="20" width="1" height="6"></rect>
        <rect id="Rectangle-64" fill="#97A4B6" x="22.5" y="20" width="1" height="6"></rect>
        <rect id="Rectangle-20" fill="#97A4B6" x="6" y="16" width="1" height="1"></rect>
        <rect id="Rectangle-20-Copy" fill="#97A4B6" x="6" y="4" width="1" height="9" rx="0.5"></rect>
        <rect id="Rectangle-20" fill="#97A4B6" x="23" y="16" width="1" height="1"></rect>
        <rect id="Rectangle-20-Copy" fill="#97A4B6" x="23" y="4" width="1" height="9" rx="0.5"></rect>
      </g>
    </g>
  </g>
</svg>
