
<svg width="62px" height="60px" viewBox="0 0 62 60" version="1.1" xmlns="http://www.w3.org/2000/svg" xmlns:xlink="http://www.w3.org/1999/xlink">
  <!-- Generator: Sketch 43.1 (39012) - http://www.bohemiancoding.com/sketch -->
  <desc>Created with Sketch.</desc>
  <defs>
    <path d="M0.300710829,20.9786751 C0.686917574,9.39247279 10.4079804,0 22.0061566,0 L39.9938434,0 C51.5952233,0 61.3129775,9.38932566 61.6992892,20.9786751 L62,30 L61.6992892,39.0213249 C61.3130824,50.6075272 51.5920196,60 39.9938434,60 L22.0061566,60 C10.4047767,60 0.687022478,50.6106743 0.300710829,39.0213249 L0,30 L0.300710829,20.9786751 Z" id="path-1"></path>
    <rect id="path-2" x="0" y="4.5" width="30" height="24" rx="1"></rect>
    <rect id="path-3" x="13.5" y="12" width="16.5" height="9" rx="1"></rect>
  </defs>
  <g id="0330" stroke="none" stroke-width="1" fill="none" fill-rule="evenodd">
    <g id="计费_详情" transform="translate(-613.000000, -232.000000)">
      <g id="Group-22-Copy" transform="translate(613.000000, 232.000000)">
        <g id="Rectangle-11-Copy">
          <use fill="#FAFDFF" fill-rule="evenodd" xlink:href="#path-1"></use>
          <path stroke="#97A4B6" stroke-width="1" d="M0.800433282,20.9953326 C1.17761651,9.67983562 10.6764403,0.5 22.0061566,0.5 L39.9938434,0.5 C51.3267452,0.5 60.822278,9.67667031 61.1995667,20.9953326 L61.5002775,30.0166574 L61.1995667,39.0046674 C60.8223835,50.3201644 51.3235597,59.5 39.9938434,59.5 L22.0061566,59.5 C10.6732548,59.5 1.17772202,50.3233297 0.800433282,39.0046674 L0.499722453,29.9833426 L0.800433282,20.9953326 L0.800433282,20.9953326 Z"></path>
        </g>
        <g id="Group-126" transform="translate(16.000000, 15.000000)">
          <g id="Group-125">
            <rect id="Mask" stroke="#C6D3DC" x="0.5" y="5" width="29" height="23" rx="1"></rect>
            <rect id="Mask" stroke="#C6D3DC" x="0.5" y="5" width="29" height="23" rx="1"></rect>
            <path d="M0.5,5.5 L0.5,3.99895656 C0.5,3.68943798 0.767984878,3.36856365 1.07217978,3.31325549 L15.6067057,0.670614421 C15.8404374,0.628117736 16,0.760803173 16,0.990777969 L16,5.00922203 C16,5.28245736 15.7802913,5.5 15.4926891,5.5 L0.5,5.5 Z" id="Mask" stroke="#97A4B6"></path>
            <g id="Mask">
              <use fill="#FAFDFF" fill-rule="evenodd" xlink:href="#path-2"></use>
              <rect stroke="#97A4B6" stroke-width="1" x="0.5" y="5" width="29" height="23" rx="1"></rect>
            </g>
            <g id="Mask">
              <use fill="#D2D9E2" fill-rule="evenodd" xlink:href="#path-3"></use>
              <rect stroke="#97A4B6" stroke-width="1" x="14" y="12.5" width="15.5" height="8" rx="1"></rect>
            </g>
            <rect id="Rectangle-20" fill="#97A4B6" x="18" y="15.75" width="1.5" height="1.5"></rect>
          </g>
        </g>
      </g>
    </g>
  </g>
</svg>
