<?xml version="1.0" encoding="UTF-8"?>
<svg width="16px" height="16px" viewBox="0 0 16 16" version="1.1" xmlns="http://www.w3.org/2000/svg" xmlns:xlink="http://www.w3.org/1999/xlink">
    <!-- Generator: Sketch 45.2 (43514) - http://www.bohemiancoding.com/sketch -->
    <title>Group 11</title>
    <desc>Created with Sketch.</desc>
    <defs>
        <path d="M1,0 L5.38196601,0 L5.38196601,-2.22044605e-16 C5.76073807,4.4793265e-17 6.10700119,0.214002376 6.2763932,0.552786405 L8,4 L0,4 L0,1 L0,1 C-6.76353751e-17,0.44771525 0.44771525,1.01453063e-16 1,0 Z" id="path-1"></path>
        <rect id="path-2" x="0" y="3" width="15" height="12" rx="1"></rect>
    </defs>
    <g id="2.1风格调整" stroke="none" stroke-width="1" fill="none" fill-rule="evenodd">
        <g id="Group-11">
            <rect id="Rectangle-2" x="0" y="0" width="16" height="16"></rect>
            <g id="Group-3" transform="translate(0.500000, 0.500000)">
                <g id="Rectangle-15">
                    <use fill="#FAFDFF" fill-rule="evenodd" xlink:href="#path-1"></use>
                    <path stroke="#1A2736" stroke-width="1" d="M0.5,3.5 L7.19098301,3.5 L5.82917961,0.776393202 C5.7444836,0.607001188 5.57135204,0.5 5.38196601,0.5 L1,0.5 C0.723857625,0.5 0.5,0.723857625 0.5,1 L0.5,3.5 Z"></path>
                </g>
                <g id="Rectangle-15">
                    <use fill="#1A2736" fill-rule="evenodd" xlink:href="#path-2"></use>
                    <rect stroke="#1A2736" stroke-width="1" x="0.5" y="3.5" width="14" height="11" rx="1"></rect>
                </g>
                <rect id="Rectangle-21" fill="#FFFFFF" x="4" y="8" width="1" height="4" rx="0.5"></rect>
                <rect id="Rectangle-21-Copy-2" fill="#FFFFFF" x="7" y="6" width="1" height="6" rx="0.5"></rect>
                <rect id="Rectangle-21-Copy-2" fill="#FFFFFF" x="10" y="7" width="1" height="5" rx="0.5"></rect>
            </g>
        </g>
    </g>
</svg>
