<?xml version="1.0" encoding="UTF-8"?>
<svg width="12px" height="12px" viewBox="0 0 12 12" version="1.1" xmlns="http://www.w3.org/2000/svg" xmlns:xlink="http://www.w3.org/1999/xlink">
  <!-- Generator: Sketch 52.4 (67378) - http://www.bohemiancoding.com/sketch -->
  <title>btn_tag_create_n</title>
  <desc>Created with Sketch.</desc>
  <g id="Page-2" stroke="none" stroke-width="1" fill="none" fill-rule="evenodd">
    <g id="备注" transform="translate(-352.000000, -605.000000)">
      <g id="btn_tag_create_n" transform="translate(352.000000, 605.000000)">
        <rect id="Rectangle-25" x="0" y="0" width="12" height="12"></rect>
        <path d="M5.5,5.5 L5.5,2.5 C5.5,2.22385763 5.72385763,2 6,2 C6.27614237,2 6.5,2.22385763 6.5,2.5 L6.5,5.5 L9.5,5.5 C9.77614237,5.5 10,5.72385763 10,6 C10,6.27614237 9.77614237,6.5 9.5,6.5 L6.5,6.5 L6.5,9.5 C6.5,9.77614237 6.27614237,10 6,10 C5.72385763,10 5.5,9.77614237 5.5,9.5 L5.5,6.5 L2.5,6.5 C2.22385763,6.5 2,6.27614237 2,6 C2,5.72385763 2.22385763,5.5 2.5,5.5 L5.5,5.5 Z" id="Combined-Shape" fill="#5E6978"></path>
      </g>
    </g>
  </g>
</svg>
