<?xml version="1.0" encoding="UTF-8"?>
<svg width="8px" height="8px" viewBox="0 0 8 8" version="1.1" xmlns="http://www.w3.org/2000/svg" xmlns:xlink="http://www.w3.org/1999/xlink">
  <!-- Generator: Sketch 52.4 (67378) - http://www.bohemiancoding.com/sketch -->
  <title>btn_tag_delete</title>
  <desc>Created with Sketch.</desc>
  <g id="Page-2" stroke="none" stroke-width="1" fill="none" fill-rule="evenodd">
    <g id="备注" transform="translate(-391.000000, -609.000000)" fill="#737F91">
      <g id="btn_tag_delete" transform="translate(392.000000, 610.000000)">
        <path d="M2.26776695,2.97487373 L0.146446609,0.853553391 C-0.0488155365,0.658291245 -0.0488155365,0.341708755 0.146446609,0.146446609 C0.341708755,-0.0488155365 0.658291245,-0.0488155365 0.853553391,0.146446609 L2.97487373,2.26776695 L5.09619408,0.146446609 C5.29145622,-0.0488155365 5.60803871,-0.0488155365 5.80330086,0.146446609 C5.998563,0.341708755 5.998563,0.658291245 5.80330086,0.853553391 L3.68198052,2.97487373 L5.80330086,5.09619408 C5.998563,5.29145622 5.998563,5.60803871 5.80330086,5.80330086 C5.60803871,5.998563 5.29145622,5.998563 5.09619408,5.80330086 L2.97487373,3.68198052 L0.853553391,5.80330086 C0.658291245,5.998563 0.341708755,5.998563 0.146446609,5.80330086 C-0.0488155365,5.60803871 -0.0488155365,5.29145622 0.146446609,5.09619408 L2.26776695,2.97487373 Z" id="Path"></path>
      </g>
    </g>
  </g>
</svg>
