<?xml version="1.0" encoding="UTF-8"?>
<svg width="36px" height="36px" viewBox="0 0 36 36" version="1.1" xmlns="http://www.w3.org/2000/svg" xmlns:xlink="http://www.w3.org/1999/xlink">
  <!-- Generator: Sketch 45.2 (43514) - http://www.bohemiancoding.com/sketch -->
  <title>*图标</title>
  <desc>Created with Sketch.</desc>
  <defs></defs>
  <g id="UI-KIT" stroke="none" stroke-width="1" fill="none" fill-rule="evenodd">
    <g id="*图标" transform="translate(-1220.000000, -837.000000)">
      <g id="Group-122-Copy-2" transform="translate(1220.000000, 837.000000)">
        <rect id="Rectangle-2" x="0" y="0" width="36" height="36"></rect>
        <g id="Group-9" transform="translate(8.000000, 9.000000)">
          <path d="M3,11 C2.44771525,11 2,10.5522847 2,10 L2,1 C2,0.44771525 2.44771525,1.57303505e-15 3,0 L17,2.0511411e-15 C17.5522847,2.87800111e-15 18,0.44771525 18,1 L18,10 C18,10.5522847 17.5522847,11 17,11 L17,1 L3,1 L3,11 Z" id="Rectangle-13" fill="#97A4B6" transform="translate(10.000000, 5.500000) scale(-1, 1) translate(-10.000000, -5.500000) "></path>
          <path d="M1,10.5 C0.723857625,10.5 0.5,10.7238576 0.5,11 L0.5,17 C0.5,17.2761424 0.723857625,17.5 1,17.5 L19,17.5 C19.2761424,17.5 19.5,17.2761424 19.5,17 L19.5,11 C19.5,10.7238576 19.2761424,10.5 19,10.5 L15,10.5 C14.7238576,10.5 14.5,10.7238576 14.5,11 L14.5,12 C14.5,12.8284271 13.8284271,13.5 13,13.5 L7,13.5 C6.17157288,13.5 5.5,12.8284271 5.5,12 L5.5,11 C5.5,10.7238576 5.27614237,10.5 5,10.5 L1,10.5 Z" id="Rectangle-5" stroke="#97A4B6"></path>
          <path d="M10.5606602,4.26776695 C10.466892,4.17399876 10.339715,4.12132034 10.2071068,4.12132034 C9.93096441,4.12132034 9.70710678,4.34517797 9.70710678,4.62132034 L9.70710678,5.70710678 L7.20710678,5.70710678 C6.93096441,5.70710678 6.70710678,5.93096441 6.70710678,6.20710678 L6.70710678,8.20710678 C6.70710678,8.48324916 6.93096441,8.70710678 7.20710678,8.70710678 L9.70710678,8.70710678 L9.70710678,9.79289322 C9.70710678,9.92550146 9.7597852,10.0526784 9.85355339,10.1464466 C10.0488155,10.3417088 10.365398,10.3417088 10.5606602,10.1464466 L13.1464466,7.56066017 C13.3417088,7.36539803 13.3417088,7.04881554 13.1464466,6.85355339 L10.5606602,4.26776695 Z" id="Rectangle-29" stroke="#97A4B6" transform="translate(10.000000, 7.207107) scale(1, -1) rotate(90.000000) translate(-10.000000, -7.207107) "></path>
        </g>
      </g>
    </g>
  </g>
</svg>
