<?xml version="1.0" encoding="UTF-8"?>
<svg width="36px" height="36px" viewBox="0 0 36 36" version="1.1" xmlns="http://www.w3.org/2000/svg" xmlns:xlink="http://www.w3.org/1999/xlink">
  <!-- Generator: Sketch 48.2 (47327) - http://www.bohemiancoding.com/sketch -->
  <title>certificaiton_n</title>
  <desc>Created with Sketch.</desc>
  <defs></defs>
  <g id="*图标" stroke="none" stroke-width="1" fill="none" fill-rule="evenodd" transform="translate(-1317.000000, -1302.000000)">
    <g id="certificaiton_n" transform="translate(1317.000000, 1302.000000)">
      <rect id="Rectangle-2" x="0" y="0" width="36" height="36"></rect>
      <g id="Group-193" transform="translate(8.000000, 8.000000)" stroke="#97A4B6">
        <path d="M7.5630052,14.6015758 L10,13.3475514 L12.4369948,14.6015758 L11.9961103,11.8990207 L13.9424834,9.97205781 L11.2338695,9.55588061 L10,7.11008703 L8.76613049,9.55588061 L6.0575166,9.97205781 L8.00388968,11.8990207 L7.5630052,14.6015758 Z" id="Star"></path>
        <path d="M4,4.5 C3.72385763,4.5 3.5,4.72385763 3.5,5 L3.5,18.2931912 C3.5,18.3578055 3.51252394,18.4218073 3.53687897,18.4816558 C3.6409651,18.7374305 3.93268993,18.8603984 4.18846461,18.7563122 L9.43460616,16.6214231 C9.79710235,16.4739073 10.2028976,16.4739073 10.5653938,16.6214231 L15.8115354,18.7563122 C15.8713839,18.7806673 15.9353857,18.7931912 16,18.7931912 C16.2761424,18.7931912 16.5,18.5693336 16.5,18.2931912 L16.5,5 C16.5,4.72385763 16.2761424,4.5 16,4.5 L4,4.5 Z" id="Mask"></path>
        <path d="M0.940584357,0.5 C0.846634437,0.5 0.755101864,0.529776929 0.679134298,0.585053655 C0.480690424,0.729448535 0.436875058,1.00737426 0.581269938,1.20581813 L1.37320243,2.29418187 C1.46729734,2.42349781 1.61757418,2.5 1.77750062,2.5 L18.2226113,2.5 C18.3825377,2.5 18.5328146,2.42349781 18.6269095,2.29418187 L19.418842,1.20581813 C19.4741187,1.12985057 19.5038956,1.03831799 19.5038956,0.944368074 C19.5038956,0.698950363 19.3049453,0.5 19.0595276,0.5 L0.940584357,0.5 Z" id="Rectangle-72"></path>
      </g>
    </g>
  </g>
</svg>
