<?xml version="1.0" encoding="UTF-8"?>
<svg width="62px" height="60px" viewBox="0 0 62 60" version="1.1" xmlns="http://www.w3.org/2000/svg" xmlns:xlink="http://www.w3.org/1999/xlink">
    <!-- Generator: Sketch 48.2 (47327) - http://www.bohemiancoding.com/sketch -->
    <title>detail_certification</title>
    <desc>Created with Sketch.</desc>
    <defs>
        <path d="M0.300710829,20.9786751 C0.686917574,9.39247279 10.4079804,0 22.0061566,0 L39.9938434,0 C51.5952233,0 61.3129775,9.38932566 61.6992892,20.9786751 L62,30 L61.6992892,39.0213249 C61.3130824,50.6075272 51.5920196,60 39.9938434,60 L22.0061566,60 C10.4047767,60 0.687022478,50.6106743 0.300710829,39.0213249 L0,30 L0.300710829,20.9786751 Z" id="path-1"></path>
        <path d="M14,21.864799 L10.2466971,23.7961668 C10.0011562,23.9225167 9.69967918,23.8258934 9.57332923,23.5803526 C9.52434105,23.4851519 9.5072053,23.3767404 9.52444366,23.2710719 L10.2033563,19.1094402 L7.20573937,16.141717 C7.00950118,15.9474358 7.00791473,15.6308573 7.20219593,15.4346191 C7.27764239,15.3584127 7.37559065,15.3084816 7.48158294,15.2921959 L11.6535451,14.651176 L13.5535904,10.8848795 C13.6779691,10.6383342 13.9786623,10.5392987 14.2252076,10.6636774 C14.3207033,10.7118537 14.3982333,10.7893837 14.4464096,10.8848795 L16.3464549,14.651176 L20.5184171,15.2921959 C20.7913564,15.3341329 20.9786208,15.5893907 20.9366838,15.86233 C20.9203982,15.9683223 20.8704671,16.0662706 20.7942606,16.141717 L17.7966437,19.1094402 L18.4755563,23.2710719 C18.5200174,23.5436115 18.3351232,23.8005913 18.0625836,23.8450523 C17.9569151,23.8622907 17.8485036,23.8451549 17.7533029,23.7961668 L14,21.864799 Z" id="path-2"></path>
    </defs>
    <g id="*图标" stroke="none" stroke-width="1" fill="none" fill-rule="evenodd" transform="translate(-1211.000000, -1323.000000)">
        <g id="detail_certification" transform="translate(1211.000000, 1323.000000)">
            <g id="Rectangle-11-Copy-3">
                <use fill="#FAFDFF" fill-rule="evenodd" xlink:href="#path-1"></use>
                <path stroke="#97A4B6" stroke-width="1" d="M0.800433282,20.9953326 L0.499722453,29.9833426 L0.800433282,39.0046674 C1.17772202,50.3233297 10.6732548,59.5 22.0061566,59.5 L39.9938434,59.5 C51.3235597,59.5 60.8223835,50.3201644 61.1995667,39.0046674 L61.5002775,30.0166574 L61.1995667,20.9953326 C60.822278,9.67667031 51.3267452,0.5 39.9938434,0.5 L22.0061566,0.5 C10.6764403,0.5 1.17761651,9.67983562 0.800433282,20.9953326 Z"></path>
            </g>
            <g id="Group-195" transform="translate(17.000000, 15.000000)">
                <g id="Star">
                    <use fill="#D2D9E2" fill-rule="evenodd" xlink:href="#path-2"></use>
                    <path stroke="#97A4B6" stroke-width="1" d="M10.0179202,23.3515758 L14,21.3024844 L17.9820798,23.3515758 L17.2616582,18.9355007 L20.4424834,15.7863964 L16.0160211,15.1062726 L14,11.110087 L11.9839789,15.1062726 L7.5575166,15.7863964 L10.7383418,18.9355007 L10.0179202,23.3515758 Z"></path>
                </g>
                <path d="M4,7.5 C3.72385763,7.5 3.5,7.72385763 3.5,8 L3.5,29.2687469 C3.5,29.3308233 3.51155957,29.3923569 3.53408761,29.4502012 C3.63430203,29.7075175 3.92413794,29.8348737 4.18145425,29.7346593 L13.4556372,26.1227358 C13.8057385,25.9863853 14.1942615,25.9863853 14.5443628,26.1227358 L23.8185457,29.7346593 C23.87639,29.7571873 23.9379236,29.7687469 24,29.7687469 C24.2761424,29.7687469 24.5,29.5448893 24.5,29.2687469 L24.5,8 C24.5,7.72385763 24.2761424,7.5 24,7.5 L4,7.5 Z" id="Mask" stroke="#97A4B6"></path>
                <path d="M0.897414431,0.5 C0.807491134,0.5 0.719232088,0.524250852 0.641933697,0.570198191 C0.404560713,0.711296304 0.326514509,1.01810775 0.467612622,1.25548073 L2.25085826,4.25548073 C2.34097415,4.40708502 2.50429473,4.5 2.68066007,4.5 L25.3194452,4.5 C25.4958106,4.5 25.6591311,4.40708502 25.749247,4.25548073 L27.5324927,1.25548073 C27.57844,1.17818234 27.6026909,1.0899233 27.6026909,1 C27.6026909,0.723857625 27.3788332,0.5 27.1026909,0.5 L0.897414431,0.5 Z" id="Rectangle-72" stroke="#97A4B6"></path>
            </g>
        </g>
    </g>
</svg>

