<svg width="24px" height="24px" viewBox="70 78 24 24" version="1.1" xmlns="http://www.w3.org/2000/svg" xmlns:xlink="http://www.w3.org/1999/xlink">
    <!-- Generator: Sketch 42 (36781) - http://www.bohemiancoding.com/sketch -->
    <desc>Created with Sketch.</desc>
    <defs></defs>
    <g id="Icon-24px" stroke="none" stroke-width="1" fill="none" fill-rule="evenodd" transform="translate(70.000000, 78.000000)">
        <polygon id="Bounds" points="0 0 24 0 24 24 0 24"></polygon>
        <path d="M20,4 L20,20 L4,20 L4,4 L20,4 L20,4 Z M19,3 L5,3 C3.9,3 3,3.9 3,5 L3,19 C3,20.1 3.9,21 5,21 L19,21 C20.1,21 21,20.1 21,19 L21,5 C21,3.9 20.1,3 19,3 L19,3 Z" id="Shape" fill="#B8BEC6"></path>
    </g>
</svg>
