
<svg width="36px" height="36px" viewBox="231 110 36 36" version="1.1" xmlns="http://www.w3.org/2000/svg" xmlns:xlink="http://www.w3.org/1999/xlink">
  <!-- Generator: Sketch 42 (36781) - http://www.bohemiancoding.com/sketch -->
  <desc>Created with Sketch.</desc>
  <defs>
    <path d="M18,7.53930664 L18,16.9969847 C18,17.5509348 17.5550537,18 17.0066023,18 L0.993397683,18 C0.444759292,18 0,17.5452911 0,17.0000398 L0,0.999960201 C0,0.447697432 0.445621829,0 1.00545405,0 L9.6875,0" id="path-1"></path>
    <mask id="mask-2" maskContentUnits="userSpaceOnUse" maskUnits="objectBoundingBox" x="0" y="0" width="18" height="18" fill="white">
      <use xlink:href="#path-1"></use>
    </mask>
    <rect id="path-3" x="9" y="10" width="10" height="9" rx="1"></rect>
    <mask id="mask-4" maskContentUnits="userSpaceOnUse" maskUnits="objectBoundingBox" x="0" y="0" width="10" height="9" fill="white">
      <use xlink:href="#path-3"></use>
    </mask>
    <rect id="path-5" x="3" y="3" width="5" height="5" rx="1"></rect>
    <mask id="mask-6" maskContentUnits="userSpaceOnUse" maskUnits="objectBoundingBox" x="0" y="0" width="5" height="5" fill="white">
      <use xlink:href="#path-5"></use>
    </mask>
  </defs>
  <g id="Group-13" stroke="none" stroke-width="1" fill="none" fill-rule="evenodd" transform="translate(231.000000, 110.000000)">
    <rect id="Rectangle-2" x="0" y="0" width="36" height="36"></rect>
    <g id="Group-34" transform="translate(9.000000, 8.000000)" stroke="#97A4B6" stroke-width="2">
      <use id="Rectangle-7" mask="url(#mask-2)" transform="translate(9.000000, 9.000000) scale(1, -1) translate(-9.000000, -9.000000) " xlink:href="#path-1"></use>
      <use id="Rectangle-7" mask="url(#mask-4)" transform="translate(14.000000, 14.500000) scale(-1, -1) translate(-14.000000, -14.500000) " xlink:href="#path-3"></use>
      <use id="Rectangle-16" mask="url(#mask-6)" transform="translate(5.500000, 5.500000) scale(-1, -1) translate(-5.500000, -5.500000) " xlink:href="#path-5"></use>
    </g>
  </g>
</svg>
