<?xml version="1.0" encoding="UTF-8"?>
<svg width="16px" height="16px" viewBox="0 0 16 16" version="1.1" xmlns="http://www.w3.org/2000/svg"
     xmlns:xlink="http://www.w3.org/1999/xlink">
    <!-- Generator: Sketch 52.4 (67378) - http://www.bohemiancoding.com/sketch -->
    <title>detail_tag_others</title>
    <desc>Created with Sketch.</desc>
    <g id="Page-2" stroke="none" stroke-width="1" fill="none" fill-rule="evenodd">
        <g id="备注" transform="translate(-531.000000, -604.000000)">
            <rect id="Rectangle" x="531" y="604" width="16" height="16"></rect>
            <path d="M543.435023,607.392342 L546.868336,611.607658 C547.052395,611.833641 547.044822,612.175657 546.868336,612.392342 L543.435023,616.607658 C543.250963,616.833641 542.889298,617 542.610305,617 L531.991459,617 C531.445564,617 531,616.554345 531,616.004602 L531,607.995398 C531,607.455664 531.443892,607 531.991459,607 L542.610305,607 C542.884262,607 543.258537,607.175657 543.435023,607.392342 Z M535.5,612.5 C535.914214,612.5 536.25,612.164214 536.25,611.75 C536.25,611.335786 535.914214,611 535.5,611 C535.085786,611 534.75,611.335786 534.75,611.75 C534.75,612.164214 535.085786,612.5 535.5,612.5 Z M538,612.5 C538.414214,612.5 538.75,612.164214 538.75,611.75 C538.75,611.335786 538.414214,611 538,611 C537.585786,611 537.25,611.335786 537.25,611.75 C537.25,612.164214 537.585786,612.5 538,612.5 Z M540.5,612.5 C540.914214,612.5 541.25,612.164214 541.25,611.75 C541.25,611.335786 540.914214,611 540.5,611 C540.085786,611 539.75,611.335786 539.75,611.75 C539.75,612.164214 540.085786,612.5 540.5,612.5 Z"
                  id="detail_tag_others" fill="#97A4B6"></path>
        </g>
    </g>
</svg>
