<svg width="18px" height="18px" viewBox="0 0 18 18" version="1.1" xmlns="http://www.w3.org/2000/svg" xmlns:xlink="http://www.w3.org/1999/xlink">
    <!-- Generator: Sketch 44.1 (41455) - http://www.bohemiancoding.com/sketch -->
    <desc>Created with Sketch.</desc>
    <defs>
        <path d="M9.29289322,0.292893219 L11.7071068,2.70710678 L11.7071068,2.70710678 C11.8946432,2.89464316 12,3.14899707 12,3.41421356 L12,10 L12,10 C12,10.5522847 11.5522847,11 11,11 L4,11 L4,11 C3.44771525,11 3,10.5522847 3,10 L3,1 L3,1 C3,0.44771525 3.44771525,1.01453063e-16 4,0 L8.58578644,0 L8.58578644,0 C8.85100293,-4.87194788e-17 9.10535684,0.10535684 9.29289322,0.292893219 Z" id="path-1"></path>
        <path d="M6.29289322,2.29289322 L8.70710678,4.70710678 L8.70710678,4.70710678 C8.89464316,4.89464316 9,5.14899707 9,5.41421356 L9,12 L9,12 C9,12.5522847 8.55228475,13 8,13 L1,13 L1,13 C0.44771525,13 6.76353751e-17,12.5522847 0,12 L0,3 L0,3 C-6.76353751e-17,2.44771525 0.44771525,2 1,2 L5.58578644,2 L5.58578644,2 C5.85100293,2 6.10535684,2.10535684 6.29289322,2.29289322 Z" id="path-2"></path>
    </defs>
    <g id="云主机" stroke="none" stroke-width="1" fill="none" fill-rule="evenodd">
        <g id="*按钮" transform="translate(-324.000000, -658.000000)">
            <g id="Group-54" transform="translate(310.000000, 650.000000)">
                <g id="Group-51" transform="translate(14.000000, 8.000000)">
                    <rect id="Rectangle-6" x="0" y="0" width="18" height="18"></rect>
                    <g id="Group-49" transform="translate(3.000000, 2.500000)" fill-rule="nonzero">
                        <g id="Rectangle-7">
                            <use fill="#99C8ED" fill-rule="evenodd" xlink:href="#path-1"></use>
                            <path stroke="#3C73B9" stroke-width="1" d="M8.93933983,0.646446609 C8.84557164,0.55267842 8.71839468,0.5 8.58578644,0.5 L4,0.5 C3.72385763,0.5 3.5,0.723857625 3.5,1 L3.5,10 C3.5,10.2761424 3.72385763,10.5 4,10.5 L11,10.5 C11.2761424,10.5 11.5,10.2761424 11.5,10 L11.5,3.41421356 C11.5,3.28160532 11.4473216,3.15442836 11.3535534,3.06066017 L8.93933983,0.646446609 Z"></path>
                        </g>
                        <g id="Rectangle-7-Copy-2">
                            <use fill="#99C8ED" fill-rule="evenodd" xlink:href="#path-2"></use>
                            <path stroke="#3C73B9" stroke-width="1" d="M5.93933983,2.64644661 C5.84557164,2.55267842 5.71839468,2.5 5.58578644,2.5 L1,2.5 C0.723857625,2.5 0.5,2.72385763 0.5,3 L0.5,12 C0.5,12.2761424 0.723857625,12.5 1,12.5 L8,12.5 C8.27614237,12.5 8.5,12.2761424 8.5,12 L8.5,5.41421356 C8.5,5.28160532 8.44732158,5.15442836 8.35355339,5.06066017 L5.93933983,2.64644661 Z"></path>
                        </g>
                    </g>
                </g>
            </g>
        </g>
    </g>
</svg>
