<?xml version="1.0" encoding="UTF-8"?>
<svg width="20px" height="20px" viewBox="0 0 20 20" version="1.1" xmlns="http://www.w3.org/2000/svg" xmlns:xlink="http://www.w3.org/1999/xlink">
  <!-- Generator: Sketch 53.2 (72643) - https://sketchapp.com -->
  <title>icon_提示和删除icon</title>
  <desc>Created with Sketch.</desc>
  <g id="创建" stroke="none" stroke-width="1" fill="none" fill-rule="evenodd">
    <g id="icon_提示和删除icon" transform="translate(-37.000000, -74.000000)">
      <g id="Group" transform="translate(37.000000, 74.000000)">
        <rect id="Rectangle-Copy" x="0" y="0" width="20" height="20"></rect>
        <circle id="Oval-21-Copy" fill-opacity="0.1" fill="#EC5960" cx="10" cy="10" r="10"></circle>
        <path d="M10,19 C14.9705627,19 19,14.9705627 19,10 C19,5.02943725 14.9705627,1 10,1 C5.02943725,1 1,5.02943725 1,10 C1,14.9705627 5.02943725,19 10,19 Z M10,20 C4.4771525,20 0,15.5228475 0,10 C0,4.4771525 4.4771525,0 10,0 C15.5228475,0 20,4.4771525 20,10 C20,15.5228475 15.5228475,20 10,20 Z" id="Oval-21-Copy-2" fill="#EC5960" fill-rule="nonzero"></path>
        <g id="Group-22" transform="translate(6.500000, 4.500000)" fill="#EC5960">
          <path d="M1,3.21187395 C1,1.92125383 1.80076627,0.987130415 3.59611099,1.00013068 C5.2206639,1.01189422 6.24533399,1.98881859 5.94049782,3.65909147 C5.82206466,4.30801604 5.5769739,4.5584743 4.79393623,5.00328691 L4.77303842,5.01515654 C3.50628637,5.73463795 3.02917178,6.37878516 3.10023137,7.96665008 C3.11257685,8.24251635 3.34621863,8.45614217 3.6220849,8.44379669 C3.89795118,8.43145122 4.11157699,8.19780943 4.09923152,7.92194316 C4.04769928,6.77042769 4.29479454,6.43682707 5.26691079,5.88469095 L5.28786576,5.87278885 C6.30361741,5.29578066 6.73962607,4.85022341 6.92424828,3.83863263 C7.35183826,1.49576125 5.79982065,0.0160617349 3.6033519,0.000156893958 C1.21381306,-0.017145986 -1.13686838e-13,1.39881176 1.13686838e-13,3.21187395 C1.13686838e-13,3.48801633 0.223857625,3.71187395 0.5,3.71187395 C0.776142375,3.71187395 1,3.48801633 1,3.21187395 Z" id="Path-10" fill-rule="nonzero"></path>
          <rect id="Rectangle-52" x="2.90002441" y="9.40002441" width="1.39999998" height="1.39999998" rx="0.699999988"></rect>
        </g>
      </g>
    </g>
  </g>
</svg>
