<svg width="21px" height="21px" viewBox="0 0 21 21" version="1.1" xmlns="http://www.w3.org/2000/svg" xmlns:xlink="http://www.w3.org/1999/xlink">
    <!-- Generator: Sketch 43.1 (39012) - http://www.bohemiancoding.com/sketch -->
    <desc>Created with Sketch.</desc>
    <defs>
        <path d="M10.5,0 C4.704,0 0,4.704 0,10.5 C0,16.296 4.704,21 10.5,21 C16.296,21 21,16.296 21,10.5 C21,4.704 16.296,0 10.5,0 L10.5,0 Z" id="path-1"></path>
    </defs>
    <g id="0330" stroke="none" stroke-width="1" fill="none" fill-rule="evenodd">
        <g id="云主机_新建" transform="translate(-740.000000, -752.000000)">
            <g id="Group-12" transform="translate(740.000000, 752.000000)">
                <g id="Shape">
                    <use fill="#FFFFFF" fill-rule="evenodd" xlink:href="#path-1"></use>
                    <path stroke="#EC5960" stroke-width="1" d="M10.5,0.5 C16.0198576,0.5 20.5,4.98014237 20.5,10.5 C20.5,16.0198576 16.0198576,20.5 10.5,20.5 C4.98014237,20.5 0.5,16.0198576 0.5,10.5 C0.5,4.98014237 4.98014237,0.5 10.5,0.5 Z"></path>
                </g>
                <rect id="Rectangle-28" fill="#EC5960" x="5" y="10" width="11" height="1"></rect>
            </g>
        </g>
    </g>
</svg>
