<?xml version="1.0" encoding="UTF-8"?>
<svg width="62px" height="60px" viewBox="0 0 62 60" version="1.1" xmlns="http://www.w3.org/2000/svg" xmlns:xlink="http://www.w3.org/1999/xlink">
  <!-- Generator: Sketch 48.2 (47327) - http://www.bohemiancoding.com/sketch -->
  <title>Group 194</title>
  <desc>Created with Sketch.</desc>
  <defs>
    <path d="M0.300710829,20.9786751 C0.686917574,9.39247279 10.4079804,0 22.0061566,0 L39.9938434,0 C51.5952233,0 61.3129775,9.38932566 61.6992892,20.9786751 L62,30 L61.6992892,39.0213249 C61.3130824,50.6075272 51.5920196,60 39.9938434,60 L22.0061566,60 C10.4047767,60 0.687022478,50.6106743 0.300710829,39.0213249 L0,30 L0.300710829,20.9786751 Z" id="path-1"></path>
    <path d="M14.4554132,0.125842724 L8.51453925,3.42632826 C8.03175551,3.69454145 7.85781172,4.30334474 8.1260249,4.78612847 C8.21671383,4.94936854 8.35129918,5.08395389 8.51453925,5.17464282 L14.4554132,8.47512836 C14.938197,8.74334154 15.5470002,8.56939774 15.8152134,8.08661401 C15.8977456,7.93805601 15.9410561,7.77091533 15.9410561,7.60097108 L15.9410561,1 C15.9410561,0.44771525 15.4933409,1.54573554e-15 14.9410561,6.66133815e-16 C14.7711119,3.95470438e-16 14.6039712,0.0433105008 14.4554132,0.125842724 Z" id="path-2"></path>
  </defs>
  <g id="*图标" stroke="none" stroke-width="1" fill="none" fill-rule="evenodd" transform="translate(-260.000000, -1768.000000)">
    <g id="Group-194" transform="translate(260.000000, 1768.000000)">
      <g id="Rectangle-11-Copy-3">
        <use fill="#FAFDFF" fill-rule="evenodd" xlink:href="#path-1"></use>
        <path stroke="#97A4B6" stroke-width="1" d="M0.800433282,20.9953326 L0.499722453,29.9833426 L0.800433282,39.0046674 C1.17772202,50.3233297 10.6732548,59.5 22.0061566,59.5 L39.9938434,59.5 C51.3235597,59.5 60.8223835,50.3201644 61.1995667,39.0046674 L61.5002775,30.0166574 L61.1995667,20.9953326 C60.822278,9.67667031 51.3267452,0.5 39.9938434,0.5 L22.0061566,0.5 C10.6764403,0.5 1.17761651,9.67983562 0.800433282,20.9953326 Z"></path>
      </g>
      <g id="Group-180" transform="translate(15.000000, 12.000000)">
        <g id="Path-33">
          <use fill="#D2D9E2" fill-rule="evenodd" xlink:href="#path-2"></use>
          <path stroke="#97A4B6" stroke-width="1" d="M14.6982347,0.562921362 L8.75736071,3.8634069 C8.51596885,3.99751349 8.42899695,4.30191514 8.56310354,4.54330701 C8.608448,4.62492704 8.67574068,4.69221972 8.75736071,4.73756418 L14.6982347,8.03804972 C14.9396266,8.17215631 15.2440282,8.08518441 15.3781348,7.84379255 C15.4194009,7.76951354 15.4410561,7.6859432 15.4410561,7.60097108 L15.4410561,1 C15.4410561,0.723857625 15.2171985,0.5 14.9410561,0.5 C14.856084,0.5 14.7725137,0.52165525 14.6982347,0.562921362 Z"></path>
        </g>
        <path d="M20.8535534,24.1464466 C21.0488155,24.3417088 21.0488155,24.6582912 20.8535534,24.8535534 C20.6582912,25.0488155 20.3417088,25.0488155 20.1464466,24.8535534 L15.1464466,18.8535534 C15.0526784,18.7597852 15,18.6326082 15,18.5 L15,12.5 C15,12.2238576 15.2238576,12 15.5,12 C15.7761424,12 16,12.2238576 16,12.5 L16,18.2928932 L20.8535534,24.1464466 Z" id="Path-10" fill="#97A4B6" fill-rule="nonzero"></path>
        <path d="M0.5,19 C0.5,18.7238576 0.723857625,18.5 1,18.5 C1.27614237,18.5 1.5,18.7238576 1.5,19 C1.5,27.0081289 7.99187113,33.5 16,33.5 C24.0081289,33.5 30.5,27.0081289 30.5,19 C30.5,10.9918711 24.0081289,4.5 16,4.5 C15.7238576,4.5 15.5,4.27614237 15.5,4 C15.5,3.72385763 15.7238576,3.5 16,3.5 C24.5604136,3.5 31.5,10.4395864 31.5,19 C31.5,27.5604136 24.5604136,34.5 16,34.5 C7.43958638,34.5 0.5,27.5604136 0.5,19 Z" id="Oval-16" fill="#97A4B6" fill-rule="nonzero"></path>
      </g>
    </g>
  </g>
</svg>

