<?xml version="1.0" encoding="UTF-8"?>
<svg width="62px" height="60px" viewBox="0 0 62 60" version="1.1" xmlns="http://www.w3.org/2000/svg" xmlns:xlink="http://www.w3.org/1999/xlink">
    <!-- Generator: Sketch 50.2 (55047) - http://www.bohemiancoding.com/sketch -->
    <title>detail_backup_data</title>
    <desc>Created with Sketch.</desc>
    <defs></defs>
    <g id="uikit" stroke="none" stroke-width="1" fill="none" fill-rule="evenodd">
        <g id="*图标" transform="translate(-1620.000000, -750.000000)">
            <g id="detail_backup_data" transform="translate(1620.000000, 750.000000)">
                <path d="M0.800433282,20.9953326 L0.499722453,29.9833426 L0.800433282,39.0046674 C1.17772202,50.3233297 10.6732548,59.5 22.0061566,59.5 L39.9938434,59.5 C51.3235597,59.5 60.8223835,50.3201644 61.1995667,39.0046674 L61.5002775,30.0166574 L61.1995667,20.9953326 C60.822278,9.67667031 51.3267452,0.5 39.9938434,0.5 L22.0061566,0.5 C10.6764403,0.5 1.17761651,9.67983562 0.800433282,20.9953326 Z" id="Rectangle-11-Copy" stroke="#97A4B6" fill="#FAFDFF"></path>
                <g id="Group-143" transform="translate(16.000000, 17.000000)">
                    <rect id="Rectangle-12" fill="#97A4B6" x="9" y="6" width="12" height="1" rx="0.5"></rect>
                    <rect id="Rectangle-12-Copy-4" fill="#97A4B6" x="9" y="12" width="12" height="1" rx="0.5"></rect>
                    <path d="M1.5,0.499907911 C0.94771525,0.499907911 0.5,0.947623161 0.5,1.49990791 L0.5,25.5 C0.5,26.0522847 0.94771525,26.5 1.5,26.5 L28.5,26.5 C29.0522847,26.5 29.5,26.0522847 29.5,25.5 L29.5,1.49990791 C29.5,0.947623161 29.0522847,0.499907911 28.5,0.499907911 L1.5,0.499907911 Z" id="Rectangle-7" stroke="#97A4B6"></path>
                    <path d="M0.5,15.5 L0.5,25.5 C0.5,26.0522847 0.94771525,26.5 1.49999998,26.5 L28.5,26.4999989 C29.0522845,26.4999989 29.4999996,26.0522841 29.5,25.4999996 L29.5000086,15.5 L24.8027756,15.5 C24.4684224,15.5 24.1561911,15.6671011 23.9707253,15.9452998 L21.861325,19.1094004 C21.4903934,19.6657977 20.8659307,20 20.1972244,20 L9.80277564,20 C9.13406926,20 8.50960661,19.6657977 8.13867505,19.1094004 L6.02927466,15.9452998 C5.84380888,15.6671011 5.53157755,15.5 5.19722436,15.5 L0.5,15.5 Z" id="Rectangle-53" stroke="#97A4B6" fill-opacity="0.39770154" fill="#97A4B6"></path>
                </g>
            </g>
        </g>
    </g>
</svg>

