<?xml version="1.0" encoding="UTF-8"?>
<svg width="62px" height="60px" viewBox="0 0 62 60" version="1.1" xmlns="http://www.w3.org/2000/svg" xmlns:xlink="http://www.w3.org/1999/xlink">
  <!-- Generator: Sketch 52.4 (67378) - http://www.bohemiancoding.com/sketch -->
  <title>detail_tag</title>
  <desc>Created with Sketch.</desc>
  <g id="Page-2" stroke="none" stroke-width="1" fill="none" fill-rule="evenodd">
    <g id="备注" transform="translate(-731.000000, -538.000000)">
      <g id="detail_tag" transform="translate(731.000000, 538.000000)">
        <path d="M0.800433282,20.9953326 L0.499722453,29.9833426 L0.800433282,39.0046674 C1.17772202,50.3233297 10.6732548,59.5 22.0061566,59.5 L39.9938434,59.5 C51.3235597,59.5 60.8223835,50.3201644 61.1995667,39.0046674 L61.5002775,30.0166574 L61.1995667,20.9953326 C60.822278,9.67667031 51.3267452,0.5 39.9938434,0.5 L22.0061566,0.5 C10.6764403,0.5 1.17761651,9.67983562 0.800433282,20.9953326 Z" id="Rectangle-11-Copy" stroke="#97A4B6" fill="#FAFDFF"></path>
        <g id="Group-268" transform="translate(14.000000, 15.000000)">
          <path d="M20.2391709,3.50178541 L12.2456103,4.00326939 C11.942626,4.02227741 11.6316524,4.31267534 11.5939666,4.61477387 L10.506802,13.329739 C10.4582745,13.7187471 10.6668001,14.3262337 10.9460124,14.605446 L24.1500255,27.8094592 C24.341845,28.0012787 24.6609409,28.0011365 24.8554916,27.8065858 L34.7537538,17.9083235 C34.9510966,17.7109808 34.9513579,17.3975881 34.7566272,17.2028574 L21.5526141,3.99884431 C21.2667977,3.71302792 20.642859,3.47645963 20.2391709,3.50178541 Z" id="Path" stroke="#97A4B6" fill-opacity="0.39770154" fill="#97A4B6"></path>
          <g id="Group-266">
            <path d="M13.2402746,0.859469959 C13.7953719,0.832335255 14.5647281,1.12969924 14.9537615,1.51873265 L30.2720056,16.8369768 C30.663241,17.2282122 30.6615476,17.8642236 30.2769906,18.2487806 L18.2487806,30.2769906 C17.8602983,30.6654729 17.2260102,30.661039 16.8369768,30.2720056 L1.51873265,14.9537615 C1.12749722,14.5625261 0.832622692,13.7894917 0.859469959,13.2402746 L1.38734105,2.44156523 C1.41447575,1.886468 1.89234811,1.41418832 2.44156523,1.38734105 L13.2402746,0.859469959 Z" id="Path" fill="#FAFDFF" fill-rule="nonzero"></path>
            <g id="Group-265">
              <path d="M13.3711449,1.94032315 L2.57243554,2.46819424 C2.53429552,2.47005863 2.47007068,2.53404903 2.46819424,2.57243554 L1.94032315,13.3711449 C1.92712091,13.6412245 2.11809458,14.1389099 2.30788525,14.3287005 L17.6261294,29.6469446 L29.6519296,17.6237197 C29.6468083,17.628841 29.6468037,17.6259884 29.6469446,17.6261294 L14.3287005,2.30788525 C14.1385724,2.11775709 13.6435033,1.92700951 13.3711449,1.94032315 Z M13.3223204,0.941515778 C13.8774177,0.914381074 14.6467739,1.21174505 15.0358073,1.60077847 L30.3540514,16.9190226 C30.7452869,17.310258 30.7435934,17.9462694 30.3590364,18.3308264 L18.3308264,30.3590364 C17.9423441,30.7475187 17.308056,30.7430848 16.9190226,30.3540514 L1.60077847,15.0358073 C1.20954304,14.6445719 0.91466851,13.8715376 0.941515778,13.3223204 L1.46938687,2.52361105 C1.49652157,1.96851381 1.97439393,1.49623414 2.52361105,1.46938687 L13.3223204,0.941515778 Z M23.6378246,17.2738636 C23.8330868,17.4691258 23.8330868,17.7857082 23.6378246,17.9809704 L17.9809704,23.6378246 C17.7857082,23.8330868 17.4691258,23.8330868 17.2738636,23.6378246 C17.0786015,23.4425625 17.0786015,23.12598 17.2738636,22.9307179 L22.9307179,17.2738636 C23.12598,17.0786015 23.4425625,17.0786015 23.6378246,17.2738636 Z M21.5165043,15.1525433 C21.7117664,15.3478054 21.7117664,15.6643879 21.5165043,15.85965 L15.85965,21.5165043 C15.6643879,21.7117664 15.3478054,21.7117664 15.1525433,21.5165043 C14.9572811,21.3212421 14.9572811,21.0046597 15.1525433,20.8093975 L20.8093975,15.1525433 C21.0046597,14.9572811 21.3212421,14.9572811 21.5165043,15.1525433 Z" id="Combined-Shape" fill="#97A4B6" fill-rule="nonzero"></path>
              <path d="M7.02081528,9.8492424 C7.80186386,10.630291 9.06819382,10.630291 9.8492424,9.8492424 C10.630291,9.06819382 10.630291,7.80186386 9.8492424,7.02081528 C9.06819382,6.2397667 7.80186386,6.2397667 7.02081528,7.02081528 C6.2397667,7.80186386 6.2397667,9.06819382 7.02081528,9.8492424 Z" id="Path" stroke="#97A4B6"></path>
            </g>
          </g>
        </g>
      </g>
    </g>
  </g>
</svg>
