<?xml version="1.0" encoding="UTF-8"?>
<svg width="62px" height="60px" viewBox="0 0 62 60" version="1.1" xmlns="http://www.w3.org/2000/svg" xmlns:xlink="http://www.w3.org/1999/xlink">
    <!-- Generator: Sketch 48.2 (47327) - http://www.bohemiancoding.com/sketch -->
    <title>detail_listener</title>
    <desc>Created with Sketch.</desc>
    <defs>
        <path d="M0.300710829,20.9786751 C0.686917574,9.39247279 10.4079804,0 22.0061566,0 L39.9938434,0 C51.5952233,0 61.3129775,9.38932566 61.6992892,20.9786751 L62,30 L61.6992892,39.0213249 C61.3130824,50.6075272 51.5920196,60 39.9938434,60 L22.0061566,60 C10.4047767,60 0.687022478,50.6106743 0.300710829,39.0213249 L0,30 L0.300710829,20.9786751 Z" id="path-1"></path>
        <circle id="path-2" cx="15" cy="14" r="6"></circle>
    </defs>
    <g id="*图标" stroke="none" stroke-width="1" fill="none" fill-rule="evenodd" transform="translate(-1094.000000, -1112.000000)">
        <g id="detail_listener" transform="translate(1094.000000, 1112.000000)">
            <g id="Rectangle-11-Copy-3">
                <use fill="#FAFDFF" fill-rule="evenodd" xlink:href="#path-1"></use>
                <path stroke="#97A4B6" stroke-width="1" d="M0.800433282,20.9953326 L0.499722453,29.9833426 L0.800433282,39.0046674 C1.17772202,50.3233297 10.6732548,59.5 22.0061566,59.5 L39.9938434,59.5 C51.3235597,59.5 60.8223835,50.3201644 61.1995667,39.0046674 L61.5002775,30.0166574 L61.1995667,20.9953326 C60.822278,9.67667031 51.3267452,0.5 39.9938434,0.5 L22.0061566,0.5 C10.6764403,0.5 1.17761651,9.67983562 0.800433282,20.9953326 Z"></path>
            </g>
            <g id="Group-71" transform="translate(16.000000, 16.500000)">
                <path d="M6.64987309,0.5 C6.45227873,0.5 6.27321798,0.61636676 6.19296731,0.796930767 L0.637411759,13.2969308 C0.579952792,13.4262134 0.579952792,13.5737866 0.637411759,13.7030692 L6.19296731,26.2030692 C6.27321798,26.3836332 6.45227873,26.5 6.64987309,26.5 L23.3501269,26.5 C23.5477213,26.5 23.726782,26.3836332 23.8070327,26.2030692 L29.3625882,13.7030692 C29.4200472,13.5737866 29.4200472,13.4262134 29.3625882,13.2969308 L23.8070327,0.796930767 C23.726782,0.61636676 23.5477213,0.5 23.3501269,0.5 L6.64987309,0.5 Z" id="Rectangle-87" stroke="#97A4B6"></path>
                <g id="Oval-14">
                    <use fill="#D2D9E2" fill-rule="evenodd" xlink:href="#path-2"></use>
                    <circle stroke="#97A4B6" stroke-width="1" cx="15" cy="14" r="5.5"></circle>
                </g>
                <circle id="Oval-14" stroke="#97A4B6" cx="15" cy="14" r="9.5"></circle>
                <rect id="Rectangle-88" fill="#97A4B6" x="14.5" y="6" width="1" height="5" rx="0.5"></rect>
                <rect id="Rectangle-88" fill="#97A4B6" x="7" y="13.5" width="5" height="1" rx="0.5"></rect>
                <rect id="Rectangle-88-Copy-2" fill="#97A4B6" x="18" y="13.5" width="5" height="1" rx="0.5"></rect>
                <rect id="Rectangle-88-Copy" fill="#97A4B6" x="14.5" y="17" width="1" height="5" rx="0.5"></rect>
            </g>
        </g>
    </g>
</svg>

