<?xml version="1.0" encoding="UTF-8"?>
<svg width="62px" height="60px" viewBox="0 0 62 60" version="1.1" xmlns="http://www.w3.org/2000/svg" xmlns:xlink="http://www.w3.org/1999/xlink">
    <!-- Generator: Sketch 50.2 (55047) - http://www.bohemiancoding.com/sketch -->
    <title>detail_resource_stack</title>
    <desc>Created with Sketch.</desc>
    <defs></defs>
    <g id="uikit" stroke="none" stroke-width="1" fill="none" fill-rule="evenodd">
        <g id="*图标" transform="translate(-2070.000000, -1230.000000)">
            <g id="detail_resource_stack" transform="translate(2070.000000, 1230.000000)">
                <path d="M0.800433282,20.9953326 L0.499722453,29.9833426 L0.800433282,39.0046674 C1.17772202,50.3233297 10.6732548,59.5 22.0061566,59.5 L39.9938434,59.5 C51.3235597,59.5 60.8223835,50.3201644 61.1995667,39.0046674 L61.5002775,30.0166574 L61.1995667,20.9953326 C60.822278,9.67667031 51.3267452,0.5 39.9938434,0.5 L22.0061566,0.5 C10.6764403,0.5 1.17761651,9.67983562 0.800433282,20.9953326 Z" id="Rectangle-11-Copy-10" stroke="#97A4B6" fill="#FAFDFF"></path>
                <g id="Group-244" transform="translate(16.000000, 15.000000)">
                    <path d="M10.5,29.5 L20.5,29.5 L20.5,1 C20.5,0.723857625 20.2761424,0.5 20,0.5 L11,0.5 C10.7238576,0.5 10.5,0.723857625 10.5,1 L10.5,29.5 Z" id="Rectangle-107-Copy" stroke="#97A4B6"></path>
                    <path d="M10.5,29.5 L10.5,6 C10.5,5.72385763 10.2761424,5.5 10,5.5 L1,5.5 C0.723857625,5.5 0.5,5.72385763 0.5,6 L0.5,29 C0.5,29.2761424 0.723857625,29.5 1,29.5 L10.5,29.5 Z" id="Rectangle-107" stroke="#97A4B6"></path>
                    <path d="M20.5,29.5 L30,29.5 C30.2761424,29.5 30.5,29.2761424 30.5,29 L30.5,10 C30.5,9.72385763 30.2761424,9.5 30,9.5 L21,9.5 C20.7238576,9.5 20.5,9.72385763 20.5,10 L20.5,29.5 Z" id="Rectangle-107-Copy-2" stroke="#97A4B6" fill-opacity="0.39770154" fill="#97A4B6"></path>
                    <rect id="Rectangle-108-Copy" fill="#97A4B6" x="15" y="12" width="1" height="12" rx="0.5"></rect>
                    <rect id="Rectangle-108-Copy-2" fill="#97A4B6" x="5" y="15" width="1" height="9" rx="0.5"></rect>
                    <rect id="Rectangle-108" fill="#97A4B6" x="25" y="18" width="1" height="6" rx="0.5"></rect>
                </g>
            </g>
        </g>
    </g>
</svg>

