<?xml version="1.0" encoding="UTF-8"?>
<svg width="62px" height="60px" viewBox="0 0 62 60" version="1.1" xmlns="http://www.w3.org/2000/svg" xmlns:xlink="http://www.w3.org/1999/xlink">
    <!-- Generator: Sketch 50.2 (55047) - http://www.bohemiancoding.com/sketch -->
    <title>detail_my_template</title>
    <desc>Created with Sketch.</desc>
    <defs></defs>
    <g id="uikit" stroke="none" stroke-width="1" fill="none" fill-rule="evenodd">
        <g id="*图标" transform="translate(-2070.000000, -1390.000000)">
            <g id="detail_my_template" transform="translate(2070.000000, 1390.000000)">
                <path d="M0.800433282,20.9953326 L0.499722453,29.9833426 L0.800433282,39.0046674 C1.17772202,50.3233297 10.6732548,59.5 22.0061566,59.5 L39.9938434,59.5 C51.3235597,59.5 60.8223835,50.3201644 61.1995667,39.0046674 L61.5002775,30.0166574 L61.1995667,20.9953326 C60.822278,9.67667031 51.3267452,0.5 39.9938434,0.5 L22.0061566,0.5 C10.6764403,0.5 1.17761651,9.67983562 0.800433282,20.9953326 Z" id="Rectangle-11-Copy-11" stroke="#97A4B6" fill="#FAFDFF"></path>
                <g id="Group-236" transform="translate(16.000000, 15.000000)">
                    <path d="M24.5,29.5 L24.5,1 C24.5,0.723857625 24.2761424,0.5 24,0.5 L1,0.5 C0.723857625,0.5 0.5,0.723857625 0.5,1 L0.5,29 C0.5,29.2761424 0.723857625,29.5 1,29.5 L24.5,29.5 Z" id="Rectangle-100" stroke="#97A4B6"></path>
                    <path d="M29.5,29.5 L29.5,7 C29.5,6.72385763 29.2761424,6.5 29,6.5 L25,6.5 C24.7238576,6.5 24.5,6.72385763 24.5,7 L24.5,29 C24.5,29.2761424 24.7238576,29.5 25,29.5 L29.5,29.5 Z" id="Rectangle-100-Copy-2" stroke="#97A4B6" fill-opacity="0.39770154" fill="#97A4B6" transform="translate(27.000000, 18.000000) scale(-1, 1) translate(-27.000000, -18.000000) "></path>
                    <rect id="Rectangle-102" fill="#97A4B6" x="5" y="17" width="15" height="1" rx="0.5"></rect>
                    <circle id="Oval-35" stroke="#97A4B6" cx="8" cy="10" r="2.5"></circle>
                    <rect id="Rectangle-102-Copy" fill="#97A4B6" x="5" y="22" width="15" height="1" rx="0.5"></rect>
                </g>
            </g>
        </g>
    </g>
</svg>

