<?xml version="1.0" encoding="UTF-8"?>
<svg width="62px" height="60px" viewBox="0 0 62 60" version="1.1" xmlns="http://www.w3.org/2000/svg" xmlns:xlink="http://www.w3.org/1999/xlink">
  <!-- Generator: Sketch 52.2 (67145) - http://www.bohemiancoding.com/sketch -->
  <title>detail_auto_scaling</title>
  <desc>Created with Sketch.</desc>
  <g id="uikit" stroke="none" stroke-width="1" fill="none" fill-rule="evenodd">
    <g id="*图标" transform="translate(-1186.000000, -1213.000000)">
      <rect id="Rectangle" fill="#FFFFFF" x="1244" y="1213" width="4" height="4"></rect>
      <g id="detail_auto_scaling" transform="translate(1186.000000, 1213.000000)">
        <path d="M0.800433282,20.9953326 L0.499722453,29.9833426 L0.800433282,39.0046674 C1.17772202,50.3233297 10.6732548,59.5 22.0061566,59.5 L39.9938434,59.5 C51.3235597,59.5 60.8223835,50.3201644 61.1995667,39.0046674 L61.5002775,30.0166574 L61.1995667,20.9953326 C60.822278,9.67667031 51.3267452,0.5 39.9938434,0.5 L22.0061566,0.5 C10.6764403,0.5 1.17761651,9.67983562 0.800433282,20.9953326 Z" id="Rectangle-11-Copy" stroke="#97A4B6" fill="#FAFDFF"></path>
        <g id="Group-254" transform="translate(15.000000, 17.000000)" fill="#97A4B6">
          <path d="M3.8287221,8 C2.90555056,8 1.91630734,9.18873011 0.967334834,11.6779302 C0.86896555,11.9359575 0.580049021,12.0653859 0.322021707,11.9670166 C0.0639943921,11.8686473 -0.0654340136,11.5797308 0.0329352713,11.3217035 C1.11712797,8.47781443 2.34694278,7 3.8287221,7 C5.61808454,7 7.05273421,9.15197452 8.30783562,13.3569957 C8.33568425,13.4502982 8.33568425,13.5497018 8.30783562,13.6430043 C7.05273421,17.8480255 5.61808454,20 3.8287221,20 C2.34836611,20 1.11951598,18.5249897 0.0361426866,15.6867046 C-0.0623311108,15.4287172 0.0669802511,15.1397482 0.324967697,15.0412744 C0.582955144,14.9428007 0.871924077,15.072112 0.970397874,15.3300995 C1.91848161,17.813945 2.90659936,19 3.8287221,19 C4.97026125,19 6.1857551,17.1984076 7.30659923,13.5 C6.1857551,9.80159237 4.97026125,8 3.8287221,8 Z" id="Path" fill-rule="nonzero"></path>
          <path d="M27.4287221,8 C26.5055506,8 25.5163073,9.18873011 24.5673348,11.6779302 C24.4689655,11.9359575 24.180049,12.0653859 23.9220217,11.9670166 C23.6639944,11.8686473 23.534566,11.5797308 23.6329353,11.3217035 C24.717128,8.47781443 25.9469428,7 27.4287221,7 C29.2180845,7 30.6527342,9.15197452 31.9078356,13.3569957 C31.9356843,13.4502982 31.9356843,13.5497018 31.9078356,13.6430043 C30.6527342,17.8480255 29.2180845,20 27.4287221,20 C25.9483661,20 24.719516,18.5249897 23.6361427,15.6867046 C23.5376689,15.4287172 23.6669803,15.1397482 23.9249677,15.0412744 C24.1829551,14.9428007 24.4719241,15.072112 24.5703979,15.3300995 C25.5184816,17.813945 26.5065994,19 27.4287221,19 C28.5702612,19 29.7857551,17.1984076 30.9065992,13.5 C29.7857551,9.80159237 28.5702612,8 27.4287221,8 Z" id="Path" fill-rule="nonzero" transform="translate(27.764361, 13.500000) scale(-1, 1) translate(-27.764361, -13.500000) "></path>
          <path d="M16,1.5 C13.4166172,1.5 10.8632423,5.37924383 8.52025711,13.5 C10.8632423,21.6207562 13.4166172,25.5 16,25.5 C18.5833828,25.5 21.1367577,21.6207562 23.4797429,13.5 C21.1367577,5.37924383 18.5833828,1.5 16,1.5 Z M16,26.5 C12.7311045,26.5 9.96761204,22.182043 7.51934272,13.6377265 L7.47987889,13.5 L7.51934272,13.3622735 C9.96761204,4.81795701 12.7311045,0.5 16,0.5 C19.2688955,0.5 22.032388,4.81795701 24.4806573,13.3622735 L24.5201211,13.5 L24.4806573,13.6377265 C22.032388,22.182043 19.2688955,26.5 16,26.5 Z" id="Oval" fill-rule="nonzero"></path>
          <path d="M23.9302438,13.5 C21.5743809,9.78707318 18.9879622,8 16,8 C13.0120378,8 10.4256191,9.78707318 8.06975623,13.5 C10.4256191,17.2129268 13.0120378,19 16,19 C18.9879622,19 21.5743809,17.2129268 23.9302438,13.5 Z" id="Oval" stroke="#97A4B6" fill-opacity="0.39770154"></path>
        </g>
      </g>
    </g>
  </g>
</svg>
