
<svg width="63px" height="61px" viewBox="842 442 63 61" version="1.1" xmlns="http://www.w3.org/2000/svg" xmlns:xlink="http://www.w3.org/1999/xlink">
  <!-- Generator: Sketch 42 (36781) - http://www.bohemiancoding.com/sketch -->
  <desc>Created with Sketch.</desc>
  <defs>
    <path d="M0.300710829,20.9786751 C0.686917574,9.39247279 10.4079804,0 22.0061566,0 L39.9938434,0 C51.5952233,0 61.3129775,9.38932566 61.6992892,20.9786751 L62,30 L61.6992892,39.0213249 C61.3130824,50.6075272 51.5920196,60 39.9938434,60 L22.0061566,60 C10.4047767,60 0.687022478,50.6106743 0.300710829,39.0213249 L0,30 L0.300710829,20.9786751 Z" id="path-1"></path>
    <mask id="mask-2" maskContentUnits="userSpaceOnUse" maskUnits="objectBoundingBox" x="0" y="0" width="62" height="60" fill="white">
      <use xlink:href="#path-1"></use>
    </mask>
    <polygon id="path-3" points="28.8585927 11.1028108 19.6746496 11.1028108 19.6746496 12.4675359 15.7203547 12.5272336 15.7203547 19.565835 17.7433153 19.565835 17.7433153 21.0501793 24.4105631 21.0501793 25.4404086 20.093083 28.8585927 20.093083"></polygon>
    <mask id="mask-4" maskContentUnits="userSpaceOnUse" maskUnits="objectBoundingBox" x="0" y="0" width="13.138238" height="9.94736842" fill="white">
      <use xlink:href="#path-3"></use>
    </mask>
    <polygon id="path-5" points="11.5428032 3.06911898 2.35886017 3.06911898 2.35886017 4.43384398 -1.59543477 4.49354176 -1.59543477 11.5321431 0.42752582 11.5321431 0.42752582 13.0164874 7.0947736 13.0164874 8.12461908 12.0593911 11.5428032 12.0593911"></polygon>
    <mask id="mask-6" maskContentUnits="userSpaceOnUse" maskUnits="objectBoundingBox" x="0" y="0" width="13.138238" height="9.94736842" fill="white">
      <use xlink:href="#path-5"></use>
    </mask>
  </defs>
  <g id="Group-52" stroke="none" stroke-width="1" fill="none" fill-rule="evenodd" transform="translate(842.000000, 442.000000)">
    <use id="Rectangle-11-Copy" stroke="#97A4B6" mask="url(#mask-2)" stroke-width="2" fill="#FAFDFF" xlink:href="#path-1"></use>
    <g id="Group-77" transform="translate(31.000000, 30.500000) rotate(-60.000000) translate(-31.000000, -30.500000) translate(17.000000, 18.000000)" stroke="#97A4B6">
      <use id="Path" mask="url(#mask-4)" stroke-width="2" fill-opacity="0.39770154" fill="#97A4B6" transform="translate(22.289474, 16.076495) rotate(-90.000000) translate(-22.289474, -16.076495) " xlink:href="#path-3"></use>
      <use id="Path" mask="url(#mask-6)" stroke-width="2" fill-opacity="0.39770154" fill="#97A4B6" transform="translate(4.973684, 8.042803) scale(-1, -1) rotate(-90.000000) translate(-4.973684, -8.042803) " xlink:href="#path-5"></use>
      <path d="M12.5381643,3.69035088 L3.8645774,3.69035088 C2.64925144,3.69035088 1.66403509,4.67039474 1.66403509,5.89877869 L1.66403509,10.3240283 C1.66403509,11.5437093 2.64717367,12.5324561 3.86111154,12.5324561 L23.045906,12.5324561 C24.2593178,12.5324561 25.2429825,13.5125 25.2429825,14.740884 L25.2429825,19.1661336 C25.2429825,20.3858146 24.2622038,21.3745614 23.0458933,21.3745614 L19.3482456,21.3745614 L15.7353074,21.3745614" id="Path-3" stroke-width="1.1" stroke-linejoin="round" transform="translate(13.453509, 12.532456) rotate(-450.000000) translate(-13.453509, -12.532456) "></path>
    </g>
  </g>
</svg>
