<?xml version="1.0" encoding="UTF-8"?>
<svg width="36px" height="36px" viewBox="0 0 36 36" version="1.1" xmlns="http://www.w3.org/2000/svg" xmlns:xlink="http://www.w3.org/1999/xlink">
  <!-- Generator: Sketch 45.1 (43504) - http://www.bohemiancoding.com/sketch -->
  <title>Group 4 Copy 20</title>
  <desc>Created with Sketch.</desc>
  <defs></defs>
  <g id="Hybrid" stroke="none" stroke-width="1" fill="none" fill-rule="evenodd">
    <g id="Group-85-Copy-2">
      <rect id="Rectangle-2" x="0" y="0" width="36" height="36"></rect>
      <g id="Group-77" transform="translate(18.500000, 18.500000) rotate(-60.000000) translate(-18.500000, -18.500000) translate(9.000000, 10.000000)" stroke="#97A4B6">
        <path d="M19.0826164,8.03405022 L13.8506551,8.03405022 L13.8506551,8.95262212 L11.1673836,8.99313132 L11.1673836,12.7768166 L12.5401068,12.7768166 L12.5401068,13.7840502 L16.3678435,13.7840502 L17.0666672,13.134592 L19.0826164,13.134592 L19.0826164,8.03405022 Z" id="Path" transform="translate(15.125000, 10.909050) rotate(-90.000000) translate(-15.125000, -10.909050) "></path>
        <path d="M7.33261645,2.58261645 L2.10065512,2.58261645 L2.10065512,3.50118835 L-0.582616449,3.54169756 L-0.582616449,7.32538281 L0.790106806,7.32538281 L0.790106806,8.33261645 L4.61784353,8.33261645 L5.31666724,7.68315826 L7.33261645,7.68315826 L7.33261645,2.58261645 Z" id="Path" transform="translate(3.375000, 5.457616) scale(-1, -1) rotate(-90.000000) translate(-3.375000, -5.457616) "></path>
        <path d="M8.50804009,2.50416667 L3.32309373,2.50416667 C2.11142127,2.50416667 1.12916667,3.49494464 1.12916667,4.70427543 L1.12916667,6.3040579 C1.12916667,7.51914442 2.10595304,8.50416667 3.32035,8.50416667 L14.9379833,8.50416667 C16.1481405,8.50416667 17.1291667,9.49494464 17.1291667,10.7042754 L17.1291667,12.3040579 C17.1291667,13.5191444 16.1520281,14.5041667 14.9334814,14.5041667 L13.1291667,14.5041667 L10.67753,14.5041667" id="Path-3" stroke-width="1.1" stroke-linejoin="round" transform="translate(9.129167, 8.504167) rotate(-450.000000) translate(-9.129167, -8.504167) "></path>
      </g>
    </g>
  </g>
</svg>
