<?xml version="1.0" standalone="no"?><!DOCTYPE svg PUBLIC "-//W3C//DTD SVG 1.1//EN" "http://www.w3.org/Graphics/SVG/1.1/DTD/svg11.dtd"><svg t="1569030067510" class="icon" viewBox="0 0 1024 1024" version="1.1" xmlns="http://www.w3.org/2000/svg" p-id="2309" xmlns:xlink="http://www.w3.org/1999/xlink" width="32" height="32"><defs><style type="text/css"></style></defs><path d="M512.4 923.4c-107.5 0-209-41.5-285.9-116.7-77-75.4-120.6-176.2-122.7-284-1.1-55.2 8.6-108.9 29-159.8 19.6-49.1 48.2-93.4 85-131.7 36.8-38.3 79.9-68.6 128.2-90.2 50-22.3 103.3-34.2 158.5-35.3 2.8-0.1 5.5-0.1 8.3-0.1 107.5 0 209 41.5 285.9 116.7 77 75.4 120.6 176.2 122.7 284 1.1 55.2-8.6 108.9-29 159.8-19.6 49.1-48.2 93.4-85 131.7s-79.9 68.6-128.2 90.2c-50 22.3-103.3 34.2-158.5 35.3-2.7 0-5.5 0.1-8.3 0.1z m0.4-789.7c-2.6 0-5.2 0-7.7 0.1-210 4.2-377.4 178.4-373.2 388.4C136 728 306.7 895.5 512.5 895.5c2.6 0 5.2 0 7.7-0.1 210-4.2 377.4-178.4 373.2-388.4-4.1-205.9-174.9-373.3-380.6-373.3z" fill="#d81e06" p-id="2310"></path><path d="M705.7 707.4c-7 7-18.5 7-25.5 0L320 347.1c-7-7-7-18.5 0-25.5s18.5-7 25.5 0l360.3 360.3c6.9 7 6.9 18.5-0.1 25.5z" fill="#d81e06" p-id="2311"></path><path d="M320.3 707.4c7 7 18.5 7 25.5 0L706 347.1c7-7 7-18.5 0-25.5s-18.5-7-25.5 0L320.3 681.9c-7 7-7 18.5 0 25.5z" fill="#d81e06" p-id="2312"></path></svg>