<?xml version="1.0" encoding="UTF-8"?>
<svg width="18px" height="18px" viewBox="0 0 18 18" version="1.1" xmlns="http://www.w3.org/2000/svg" xmlns:xlink="http://www.w3.org/1999/xlink">
  <!-- Generator: Sketch 46.2 (44496) - http://www.bohemiancoding.com/sketch -->
  <title>Group 2</title>
  <desc>Created with Sketch.</desc>
  <defs></defs>
  <g id="2.1风格调整" stroke="none" stroke-width="1" fill="none" fill-rule="evenodd">
    <g id="文档帮助-2" transform="translate(-620.000000, -542.000000)">
      <g id="Group-2" transform="translate(620.000000, 542.000000)">
        <circle id="Oval-21-Copy" stroke="#C6D3DC" cx="9" cy="9" r="8.5"></circle>
        <path d="M6.5,6.81184954 C6.5,5.52122942 7.30076627,4.587106 9.09611099,4.60010626 C10.7206639,4.61186981 11.745334,5.58879418 11.4404978,7.25906705 C11.3220647,7.90799163 11.0769739,8.15844988 10.2939362,8.60326249 L10.2730384,8.61513213 C9.00628637,9.33461354 8.52917178,9.97876075 8.60023137,11.5666257 C8.61257685,11.8424919 8.84621863,12.0561178 9.1220849,12.0437723 C9.39795118,12.0314268 9.61157699,11.797785 9.59923152,11.5219187 C9.54769928,10.3704033 9.79479454,10.0368027 10.7669108,9.48466653 L10.7878658,9.47276443 C11.8036174,8.89575624 12.2396261,8.45019899 12.4242483,7.43860821 C12.8518383,5.09573683 11.2998206,3.61603732 9.1033519,3.60013248 C6.71381306,3.5828296 5.5,4.99878735 5.5,6.81184954 C5.5,7.08799191 5.72385763,7.31184954 6,7.31184954 C6.27614237,7.31184954 6.5,7.08799191 6.5,6.81184954 Z" id="Path-10" fill="#97A4B6" fill-rule="nonzero"></path>
        <rect id="Rectangle-52" fill="#97A4B6" x="8.40002441" y="13" width="1.39999998" height="1.39999998" rx="0.699999988"></rect>
      </g>
    </g>
  </g>
</svg>
