
<svg width="63px" height="61px" viewBox="1105 442 63 61" version="1.1" xmlns="http://www.w3.org/2000/svg" xmlns:xlink="http://www.w3.org/1999/xlink">
  <!-- Generator: Sketch 42 (36781) - http://www.bohemiancoding.com/sketch -->
  <desc>Created with Sketch.</desc>
  <defs>
    <path d="M0.300710829,20.9786751 C0.686917574,9.39247279 10.4079804,0 22.0061566,0 L39.9938434,0 C51.5952233,0 61.3129775,9.38932566 61.6992892,20.9786751 L62,30 L61.6992892,39.0213249 C61.3130824,50.6075272 51.5920196,60 39.9938434,60 L22.0061566,60 C10.4047767,60 0.687022478,50.6106743 0.300710829,39.0213249 L0,30 L0.300710829,20.9786751 Z" id="path-1"></path>
    <mask id="mask-2" maskContentUnits="userSpaceOnUse" maskUnits="objectBoundingBox" x="0" y="0" width="62" height="60" fill="white">
      <use xlink:href="#path-1"></use>
    </mask>
    <rect id="path-3" x="0" y="0" width="30" height="27" rx="1"></rect>
    <mask id="mask-4" maskContentUnits="userSpaceOnUse" maskUnits="objectBoundingBox" x="0" y="0" width="30" height="27" fill="white">
      <use xlink:href="#path-3"></use>
    </mask>
    <rect id="path-5" x="0" y="17" width="30" height="10" rx="1"></rect>
    <mask id="mask-6" maskContentUnits="userSpaceOnUse" maskUnits="objectBoundingBox" x="0" y="0" width="30" height="10" fill="white">
      <use xlink:href="#path-5"></use>
    </mask>
  </defs>
  <g id="Group-63" stroke="none" stroke-width="1" fill="none" fill-rule="evenodd" transform="translate(1105.000000, 442.000000)">
    <use id="Rectangle-11" stroke="#97A4B6" mask="url(#mask-2)" stroke-width="2" fill="#FAFDFF" xlink:href="#path-1"></use>
    <g id="Group-61" transform="translate(16.000000, 17.000000)">
      <use id="Rectangle-4" stroke="#97A4B6" mask="url(#mask-4)" stroke-width="2" xlink:href="#path-3"></use>
      <use id="Rectangle-8" stroke="#97A4B6" mask="url(#mask-6)" stroke-width="2" fill-opacity="0.39770154" fill="#97A4B6" xlink:href="#path-5"></use>
      <path d="M1,9 L29,9" id="Path-Copy-2" stroke="#97A4B6" stroke-linecap="round" stroke-linejoin="round"></path>
      <rect id="Rectangle-5" fill="#97A4B6" x="4.5" y="3.75" width="1.5" height="1.5"></rect>
      <rect id="Rectangle-5-Copy-2" fill="#97A4B6" x="7.5" y="3.75" width="1.5" height="1.5"></rect>
      <rect id="Rectangle-5" fill="#97A4B6" x="4.5" y="12" width="1.5" height="1.5"></rect>
      <rect id="Rectangle-5-Copy-2" fill="#97A4B6" x="7.5" y="12" width="1.5" height="1.5"></rect>
      <rect id="Rectangle-5" fill="#97A4B6" x="4.5" y="21" width="1.5" height="1.5"></rect>
      <rect id="Rectangle-5-Copy-2" fill="#97A4B6" x="7.5" y="21" width="1.5" height="1.5"></rect>
    </g>
  </g>
</svg>
