<?xml version="1.0" encoding="UTF-8"?>
<svg width="36px" height="36px" viewBox="0 0 36 36" version="1.1" xmlns="http://www.w3.org/2000/svg">
  <!-- Generator: Sketch 45.1 (43504) - http://www.bohemiancoding.com/sketch -->
  <title>Group 4 Copy 19</title>
  <desc>Created with Sketch.</desc>
  <defs></defs>
  <g id="Hybrid" stroke="none" stroke-width="1" fill="none" fill-rule="evenodd">
    <g id="Group-10-Copy-2">
      <rect id="Rectangle-2" x="0" y="0" width="36" height="36"></rect>
      <rect id="Rectangle-4" stroke="#97A4B6" x="8.5" y="9.5" width="18" height="17" rx="1"></rect>
      <path
        d="M8.5,9.99339768 L8.5,26.0066023 C8.5,26.2787449 8.7217118,26.5 8.9955775,26.5 L18.0044225,26.5 C18.2784193,26.5 18.5,26.277843 18.5,26.0024554 L18.5,18.9975446 C18.5,18.7228582 18.2765462,18.5 18,18.5 L17.5,18.5 L17.5,9.99754465 C17.5,9.72234163 17.2780901,9.5 17.0046024,9.5 L8.99539757,9.5 C8.72735477,9.5 8.5,9.7253328 8.5,9.99339768 Z"
        id="Rectangle-8" stroke="#97A4B6"></path>
      <rect id="Rectangle-9" fill="#97A4B6" x="13" y="13" width="1" height="1"></rect>
      <rect id="Rectangle-9-Copy" fill="#97A4B6" x="21" y="13" width="1" height="1"></rect>
    </g>
  </g>
</svg>
