<svg width="36px" height="37px" viewBox="231 283 36 37" version="1.1" xmlns="http://www.w3.org/2000/svg" xmlns:xlink="http://www.w3.org/1999/xlink">
  <!-- Generator: Sketch 42 (36781) - http://www.bohemiancoding.com/sketch -->
  <desc>Created with Sketch.</desc>
  <defs>
    <circle id="path-1" cx="9.5" cy="5.5" r="5.5"></circle>
    <mask id="mask-2" maskContentUnits="userSpaceOnUse" maskUnits="objectBoundingBox" x="0" y="0" width="11" height="11" fill="white">
      <use xlink:href="#path-1"></use>
    </mask>
    <circle id="path-3" cx="2.5" cy="13.5" r="2.5"></circle>
    <mask id="mask-4" maskContentUnits="userSpaceOnUse" maskUnits="objectBoundingBox" x="0" y="0" width="5" height="5" fill="white">
      <use xlink:href="#path-3"></use>
    </mask>
    <circle id="path-5" cx="9.5" cy="17.5" r="2.5"></circle>
    <mask id="mask-6" maskContentUnits="userSpaceOnUse" maskUnits="objectBoundingBox" x="0" y="0" width="5" height="5" fill="white">
      <use xlink:href="#path-5"></use>
    </mask>
    <circle id="path-7" cx="16.5" cy="13.5" r="2.5"></circle>
    <mask id="mask-8" maskContentUnits="userSpaceOnUse" maskUnits="objectBoundingBox" x="0" y="0" width="5" height="5" fill="white">
      <use xlink:href="#path-7"></use>
    </mask>
  </defs>
  <g id="Group-20" stroke="none" stroke-width="1" fill="none" fill-rule="evenodd" transform="translate(231.000000, 284.000000)">
    <rect id="Rectangle-6" x="0" y="-4.54747351e-13" width="36" height="36"></rect>
    <g id="Group-24" transform="translate(9.000000, 8.000000)">
      <use id="Oval" stroke="#97A4B6" mask="url(#mask-2)" stroke-width="2" xlink:href="#path-1"></use>
      <use id="Oval-Copy" stroke="#97A4B6" mask="url(#mask-4)" stroke-width="2" xlink:href="#path-3"></use>
      <use id="Oval-Copy-2" stroke="#97A4B6" mask="url(#mask-6)" stroke-width="2" xlink:href="#path-5"></use>
      <use id="Oval-Copy-2" stroke="#97A4B6" mask="url(#mask-8)" stroke-width="2" xlink:href="#path-7"></use>
      <path d="M9.5,10.5 L9.5,15.5" id="Path-6" stroke="#97A4B6"></path>
      <rect id="Rectangle-15" fill="#97A4B6" transform="translate(5.055456, 10.694544) rotate(-315.000000) translate(-5.055456, -10.694544) " x="4.55545635" y="9.19454365" width="1" height="3"></rect>
      <rect id="Rectangle-15" fill="#97A4B6" transform="translate(14.414214, 10.414214) scale(-1, 1) rotate(-315.000000) translate(-14.414214, -10.414214) " x="13.9142136" y="8.91421356" width="1" height="3"></rect>
    </g>
  </g>
</svg>
