<?xml version="1.0" encoding="UTF-8"?>
<svg width="36px" height="36px" viewBox="0 0 36 36" version="1.1" xmlns="http://www.w3.org/2000/svg" xmlns:xlink="http://www.w3.org/1999/xlink">
  <!-- Generator: Sketch 45.1 (43504) - http://www.bohemiancoding.com/sketch -->
  <title>Group 76 Copy 5</title>
  <desc>Created with Sketch.</desc>
  <defs>
    <path d="M9.5,11 C6.46714286,11 4,8.53285714 4,5.5 C4,2.46714286 6.46714286,0 9.5,0 C12.5328571,0 15,2.46714286 15,5.5 C15,8.53285714 12.5328571,11 9.5,11 L9.5,11 Z" id="path-1"></path>
    <path d="M3,14 L16,14 L16,14 C17.6568542,14 19,15.3431458 19,17 L19,19 L0,19 L0,17 L0,17 C-2.02906125e-16,15.3431458 1.34314575,14 3,14 Z" id="path-2"></path>
  </defs>
  <g id="Hybrid" stroke="none" stroke-width="1" fill="none" fill-rule="evenodd">
    <g id="Group-27-Copy">
      <rect id="Rectangle-2" x="0" y="0" width="36" height="36"></rect>
      <g id="Group-26" transform="translate(8.500000, 8.000000)">
        <g id="Path">
          <use fill="#FFFFFF" fill-rule="evenodd" xlink:href="#path-1"></use>
          <path stroke="#97A4B6" stroke-width="1" d="M9.5,10.5 C12.2567148,10.5 14.5,8.25671477 14.5,5.5 C14.5,2.74328523 12.2567148,0.5 9.5,0.5 C6.74328523,0.5 4.5,2.74328523 4.5,5.5 C4.5,8.25671477 6.74328523,10.5 9.5,10.5 Z"></path>
        </g>
        <rect id="Rectangle-57" fill="#97A4B6" x="9" y="11" width="1" height="5"></rect>
        <g id="Rectangle-58">
          <use fill="#FFFFFF" fill-rule="evenodd" xlink:href="#path-2"></use>
          <path stroke="#97A4B6" stroke-width="1" d="M0.5,18.5 L18.5,18.5 L18.5,17 C18.5,15.6192881 17.3807119,14.5 16,14.5 L3,14.5 C1.61928813,14.5 0.5,15.6192881 0.5,17 L0.5,18.5 Z"></path>
        </g>
      </g>
    </g>
  </g>
</svg>
