
<svg width="36px" height="36px" viewBox="0 0 36 36" version="1.1" xmlns="http://www.w3.org/2000/svg" xmlns:xlink="http://www.w3.org/1999/xlink">
  <!-- Generator: Sketch 43.2 (39069) - http://www.bohemiancoding.com/sketch -->
  <desc>Created with Sketch.</desc>
  <defs></defs>
  <g id="云主机" stroke="none" stroke-width="1" fill="none" fill-rule="evenodd">
    <g id="*图标" transform="translate(-637.000000, -805.000000)">
      <g id="Group-71" transform="translate(637.000000, 805.000000)">
        <rect id="Rectangle-2" x="0" y="0" width="36" height="36"></rect>
        <g id="Group-69" transform="translate(8.000000, 9.000000)" stroke="#97A4B6">
          <path d="M0.5,6.5 L19.5,6.5 L19.5,18.0014977 C19.5,18.2728072 19.2725618,18.5 19.0081969,18.5 L0.99180311,18.5 C0.721131235,18.5 0.5,18.2773066 0.5,18.0014977 L0.5,6.5 Z" id="Mask"></path>
          <path d="M0.5,3.5 L19.0081969,3.5 C19.2814171,3.5 19.5,3.72115162 19.5,4.0093689 L19.5,6.5 L0.5,6.5 L0.5,3.5 Z" id="Mask"></path>
          <path d="M10.5422159,3.5 L0.5,3.5 L0.5,1.0093689 C0.5,0.730878707 0.728800326,0.5 0.992684439,0.5 L8.44998979,0.5 C8.80760712,0.5 9.26232484,0.789134436 9.41907224,1.12113234 L10.5422159,3.5 Z" id="Mask"></path>
          <path d="M10.6666667,12.3333333 L15.6666667,12.3333333" id="Path-15" stroke-linecap="round" stroke-linejoin="round"></path>
          <polyline id="Path-16" stroke-linecap="round" stroke-linejoin="round" points="13 10 16 12.5 13 15"></polyline>
        </g>
      </g>
    </g>
  </g>
</svg>
