<?xml version="1.0" encoding="UTF-8"?>
<svg width="36px" height="36px" viewBox="0 0 36 36" version="1.1" xmlns="http://www.w3.org/2000/svg" xmlns:xlink="http://www.w3.org/1999/xlink">
  <!-- Generator: Sketch 48.2 (47327) - http://www.bohemiancoding.com/sketch -->
  <title>listener_n</title>
  <desc>Created with Sketch.</desc>
  <defs></defs>
  <g id="*图标" stroke="none" stroke-width="1" fill="none" fill-rule="evenodd" transform="translate(-1317.000000, -1099.000000)">
    <g id="listener_n" transform="translate(1317.000000, 1099.000000)">
      <rect id="Rectangle-2" x="0" y="0" width="36" height="36"></rect>
      <g id="Group-216" transform="translate(8.000000, 9.000000)">
        <path d="M4.64987309,0.5 C4.45227873,0.5 4.27321798,0.61636676 4.19296731,0.796930767 L0.637411759,8.79693077 C0.579952792,8.92621344 0.579952792,9.07378656 0.637411759,9.20306923 L4.19296731,17.2030692 C4.27321798,17.3836332 4.45227873,17.5 4.64987309,17.5 L15.3501269,17.5 C15.5477213,17.5 15.726782,17.3836332 15.8070327,17.2030692 L19.3625882,9.20306923 C19.4200472,9.07378656 19.4200472,8.92621344 19.3625882,8.79693077 L15.8070327,0.796930767 C15.726782,0.61636676 15.5477213,0.5 15.3501269,0.5 L4.64987309,0.5 Z" id="Rectangle-87" stroke="#97A4B6"></path>
        <circle id="Oval-14" stroke="#97A4B6" cx="10" cy="9" r="3.5"></circle>
        <circle id="Oval-14" stroke="#97A4B6" cx="10" cy="9" r="6.5"></circle>
        <rect id="Rectangle-88" fill="#97A4B6" x="9.5" y="4" width="1" height="3" rx="0.5"></rect>
        <rect id="Rectangle-88" fill="#97A4B6" x="5" y="8.5" width="3" height="1" rx="0.5"></rect>
        <rect id="Rectangle-88-Copy-2" fill="#97A4B6" x="12" y="8.5" width="3" height="1" rx="0.5"></rect>
        <rect id="Rectangle-88-Copy" fill="#97A4B6" x="9.5" y="11" width="1" height="3" rx="0.5"></rect>
      </g>
    </g>
  </g>
</svg>
