<?xml version="1.0" encoding="UTF-8"?>
<svg width="36px" height="36px" viewBox="0 0 36 36" version="1.1" xmlns="http://www.w3.org/2000/svg" xmlns:xlink="http://www.w3.org/1999/xlink">
  <!-- Generator: Sketch 45.1 (43504) - http://www.bohemiancoding.com/sketch -->
  <title>Group 4 Copy 31</title>
  <desc>Created with Sketch.</desc>
  <defs></defs>
  <g id="Hybrid" stroke="none" stroke-width="1" fill="none" fill-rule="evenodd">
    <g id="Group-18">
      <rect id="Rectangle-2" x="0" y="0" width="36" height="36"></rect>
      <g id="Group-12" transform="translate(8.000000, 8.000000)">
        <path d="M15.3477572,5.70892084 L14.9183289,5.67793017 L14.8852272,5.2486595 C14.6797264,2.58368171 12.3593028,0.5 9.55,0.5 C6.59114267,0.5 4.2,2.80258183 4.2,5.63333333 C4.2,5.78947002 4.20725026,5.94468722 4.22165745,6.09869861 L4.26293486,6.53995015 L3.82983033,6.63390336 C2.4793246,6.9268681 1.5,8.12957589 1.5,9.53333333 C1.5,11.1695154 2.82706472,12.5 4.46044016,12.5 L15.0995703,12.5 C16.9739733,12.5 18.5,10.9756785 18.5,9.1 C18.5,7.31733127 17.1170674,5.83660718 15.3477572,5.70892084 Z" id="Combined-Shape" stroke="#3C73B9"></path>
        <rect id="Rectangle-12-Copy-2" fill="#3C73B9" x="9.5" y="12" width="1" height="4"></rect>
        <rect id="Rectangle-12-Copy-2" fill="#3C73B9" x="6" y="12" width="1" height="7"></rect>
        <rect id="Rectangle-12-Copy-2" fill="#3C73B9" x="4" y="18" width="3" height="1"></rect>
        <rect id="Rectangle-12-Copy-2" fill="#3C73B9" x="13" y="12" width="1" height="7"></rect>
        <rect id="Rectangle-12-Copy-2" fill="#3C73B9" x="13" y="18" width="3" height="1"></rect>
        <rect id="Rectangle-21-Copy" stroke="#3C73B9" x="8.5" y="16.5" width="3" height="3" rx="1"></rect>
        <rect id="Rectangle-21-Copy-3" stroke="#3C73B9" x="16.5" y="16.5" width="3" height="3" rx="1"></rect>
        <rect id="Rectangle-21-Copy-2" stroke="#3C73B9" x="0.5" y="16.5" width="3" height="3" rx="1"></rect>
      </g>
    </g>
  </g>
</svg>
