<?xml version="1.0" encoding="UTF-8"?>
<svg width="62px" height="60px" viewBox="0 0 62 60" version="1.1" xmlns="http://www.w3.org/2000/svg" xmlns:xlink="http://www.w3.org/1999/xlink">
  <!-- Generator: Sketch 46.2 (44496) - http://www.bohemiancoding.com/sketch -->
  <title>Group 131</title>
  <desc>Created with Sketch.</desc>
  <defs>
    <path d="M0.300710829,20.9786751 C0.686917574,9.39247279 10.4079804,0 22.0061566,0 L39.9938434,0 C51.5952233,0 61.3129775,9.38932566 61.6992892,20.9786751 L62,30 L61.6992892,39.0213249 C61.3130824,50.6075272 51.5920196,60 39.9938434,60 L22.0061566,60 C10.4047767,60 0.687022478,50.6106743 0.300710829,39.0213249 L0,30 L0.300710829,20.9786751 Z" id="path-1"></path>
    <path d="M15.6689647,9.60206826 L30,22.5 L30,23 L30,23 C30,23.5522847 29.5522847,24 29,24 L1,24 L1,24 C0.44771525,24 6.76353751e-17,23.5522847 0,23 L0,22.5 L14.3310353,9.60206826 L14.3310353,9.60206826 C14.7113402,9.25979379 15.2886598,9.25979379 15.6689647,9.60206826 Z" id="path-2"></path>
  </defs>
  <g id="UI-KIT" stroke="none" stroke-width="1" fill="none" fill-rule="evenodd">
    <g id="*图标" transform="translate(-618.000000, -1082.000000)">
      <g id="Group-131" transform="translate(618.000000, 1082.000000)">
        <g id="Rectangle-11-Copy">
          <use fill="#FAFDFF" fill-rule="evenodd" xlink:href="#path-1"></use>
          <path stroke="#97A4B6" stroke-width="1" d="M0.800433282,20.9953326 L0.499722453,29.9833426 L0.800433282,39.0046674 C1.17772202,50.3233297 10.6732548,59.5 22.0061566,59.5 L39.9938434,59.5 C51.3235597,59.5 60.8223835,50.3201644 61.1995667,39.0046674 L61.5002775,30.0166574 L61.1995667,20.9953326 C60.822278,9.67667031 51.3267452,0.5 39.9938434,0.5 L22.0061566,0.5 C10.6764403,0.5 1.17761651,9.67983562 0.800433282,20.9953326 Z"></path>
        </g>
        <g id="Group-130" transform="translate(16.000000, 18.000000)">
          <rect id="Rectangle-12" fill="#97A4B6" x="9" y="4.5" width="12" height="1" rx="0.5"></rect>
          <path d="M1,0.5 C0.723857625,0.5 0.5,0.723857625 0.5,1 L0.5,23 C0.5,23.2761424 0.723857625,23.5 1,23.5 L29,23.5 C29.2761424,23.5 29.5,23.2761424 29.5,23 L29.5,1 C29.5,0.723857625 29.2761424,0.5 29,0.5 L1,0.5 Z" id="Rectangle-7" stroke="#97A4B6"></path>
          <g id="Rectangle-53">
            <use fill-opacity="0.39770154" fill="#97A4B6" fill-rule="evenodd" xlink:href="#path-2"></use>
            <path stroke="#97A4B6" stroke-width="1" d="M0.5,22.7226812 L0.5,23 C0.5,23.2761424 0.723857625,23.5 1,23.5 L29,23.5 C29.2761424,23.5 29.5,23.2761424 29.5,23 L29.5,22.7226812 L15.3344824,9.97371533 C15.1443299,9.8025781 14.8556701,9.8025781 14.6655176,9.97371533 L0.5,22.7226812 Z"></path>
          </g>
          <path d="M0.750083488,12.0670708 L6.94623591,16.0670708 C7.18538222,16.205142 7.2673198,16.5109372 7.12924861,16.7500835 C6.99117742,16.9892298 6.68538222,17.0711674 6.44623591,16.9330962 L0.250083488,12.9330962 C0.0109371759,12.795025 -0.0710004017,12.4892298 0.0670707857,12.2500835 C0.205141973,12.0109372 0.510937176,11.9289996 0.750083488,12.0670708 Z" id="Rectangle-54" fill="#97A4B6"></path>
          <path d="M23.4615624,12.0670708 L29.6577148,16.0670708 C29.8968612,16.205142 29.9787987,16.5109372 29.8407275,16.7500835 C29.7026564,16.9892298 29.3968612,17.0711674 29.1577148,16.9330962 L22.9615624,12.9330962 C22.7224161,12.795025 22.6404785,12.4892298 22.7785497,12.2500835 C22.9166209,12.0109372 23.2224161,11.9289996 23.4615624,12.0670708 Z" id="Rectangle-54-Copy" fill="#97A4B6" transform="translate(26.309639, 14.500083) scale(-1, 1) translate(-26.309639, -14.500083) "></path>
        </g>
      </g>
    </g>
  </g>
</svg>
