<?xml version="1.0" encoding="UTF-8"?>
<svg width="36px" height="36px" viewBox="0 0 36 36" version="1.1" xmlns="http://www.w3.org/2000/svg" xmlns:xlink="http://www.w3.org/1999/xlink">
  <!-- Generator: Sketch 46 (44423) - http://www.bohemiancoding.com/sketch -->
  <title>*图标</title>
  <desc>Created with Sketch.</desc>
  <defs></defs>
  <g id="UI-KIT" stroke="none" stroke-width="1" fill="none" fill-rule="evenodd">
    <g id="Group-125-Copy">
      <rect id="Rectangle-2" x="0" y="0" width="36" height="36"></rect>
      <g id="Group-124" transform="translate(8.000000, 10.000000)">
        <rect id="Rectangle-12" fill="#97A4B6" x="6" y="3" width="8" height="1" rx="0.5"></rect>
        <path d="M1,0.5 C0.723857625,0.5 0.5,0.723857625 0.5,1 L0.5,15 C0.5,15.2761424 0.723857625,15.5 1,15.5 L19,15.5 C19.2761424,15.5 19.5,15.2761424 19.5,15 L19.5,1 C19.5,0.723857625 19.2761424,0.5 19,0.5 L1,0.5 Z" id="Rectangle-7" stroke="#97A4B6"></path>
        <path d="M0.537080954,15.1893083 C0.611701633,15.3715892 0.790854847,15.5 1,15.5 L19,15.5 C19.2091452,15.5 19.3882984,15.3715892 19.462919,15.1893083 L10.3344824,6.97371533 C10.1443299,6.8025781 9.85567012,6.8025781 9.66551763,6.97371533 L0.537080954,15.1893083 Z" id="Rectangle-53" stroke="#97A4B6"></path>
        <path d="M0.750083488,7.06707079 L5.94623591,10.0670708 C6.18538222,10.205142 6.2673198,10.5109372 6.12924861,10.7500835 C5.99117742,10.9892298 5.68538222,11.0711674 5.44623591,10.9330962 L0.250083488,7.93309619 C0.0109371759,7.795025 -0.0710004017,7.4892298 0.0670707857,7.25008349 C0.205141973,7.01093718 0.510937176,6.9289996 0.750083488,7.06707079 Z" id="Rectangle-54" fill="#97A4B6"></path>
        <path d="M14.0500713,10.0670708 L19.2462237,7.06707079 C19.48537,6.9289996 19.7911652,7.01093718 19.9292364,7.25008349 C20.0673076,7.4892298 19.98537,7.795025 19.7462237,7.93309619 L14.5500713,10.9330962 C14.310925,11.0711674 14.0051298,10.9892298 13.8670586,10.7500835 C13.7289874,10.5109372 13.810925,10.205142 14.0500713,10.0670708 Z" id="Rectangle-54" fill="#97A4B6"></path>
      </g>
    </g>
  </g>
</svg>
