<?xml version="1.0" encoding="UTF-8"?>
<svg width="40px" height="40px" viewBox="0 0 40 40" version="1.1" xmlns="http://www.w3.org/2000/svg" xmlns:xlink="http://www.w3.org/1999/xlink">
  <!-- Generator: Sketch 48.2 (47327) - http://www.bohemiancoding.com/sketch -->
  <title>Group 7 Copy 4</title>
  <desc>Created with Sketch.</desc>
  <defs>
    <path d="M15.965,6.5138 C15.344,6.2958 14.678,6.1718 13.983,6.1718 C12.444,6.1718 11.045,6.7558 9.983,7.7078 C8.921,6.7558 7.522,6.1718 5.983,6.1718 C5.287,6.1718 4.621,6.2958 4,6.5138 C4.139,8.9808 5.765,11.0458 8,11.8288 C7.993,11.9428 7.983,12.0558 7.983,12.1718 C7.983,13.9468 8.758,15.5358 9.983,16.6348 C11.207,15.5358 11.983,13.9468 11.983,12.1718 C11.983,12.0558 11.972,11.9428 11.965,11.8288 C14.2,11.0458 15.826,8.9808 15.965,6.5138 Z" id="path-1"></path>
  </defs>
  <g id="大屏" stroke="none" stroke-width="1" fill="none" fill-rule="evenodd">
    <g id="Group-7-Copy-4">
      <rect id="Rectangle-2" fill="#004DAD" x="0" y="0" width="40" height="40" rx="20"></rect>
      <g id="Group-62" transform="translate(10.000000, 11.000000)">
        <g id="Group-59">
          <path d="M15.8247973,6.80980692 L15.4705785,6.68527279 L15.4914034,6.3103781 C15.4971272,6.2073377 15.5,6.103854 15.5,6 C15.5,2.96243388 13.0375661,0.5 10,0.5 C6.96243388,0.5 4.5,2.96243388 4.5,6 C4.5,6.103854 4.50287283,6.2073377 4.50859659,6.3103781 L4.52942152,6.68527279 L4.17520272,6.80980692 C1.99124502,7.57762978 0.5,9.64700147 0.5,12 C0.5,15.0375661 2.96243388,17.5 6,17.5 C7.37227879,17.5 8.6648519,16.9961835 9.66654311,16.0996456 L10,15.8011936 L10.3334569,16.0996456 C11.3351481,16.9961835 12.6277212,17.5 14,17.5 C17.0375661,17.5 19.5,15.0375661 19.5,12 C19.5,9.64700147 18.008755,7.57762978 15.8247973,6.80980692 Z" id="Combined-Shape" stroke="#FFFFFF"></path>
          <g id="Page-1">
            <use fill="#FFFFFF" fill-rule="evenodd" xlink:href="#path-1"></use>
            <path stroke="#FFFFFF" stroke-width="1" d="M15.430622,6.86994722 C14.957847,6.73922244 14.4730419,6.6718 13.983,6.6718 C12.6129083,6.6718 11.3225596,7.17847516 10.3167457,8.08010875 L9.983,8.37928569 L9.6492543,8.08010875 C8.64344036,7.17847516 7.35309168,6.6718 5.983,6.6718 C5.49223987,6.6718 5.00726112,6.7392044 4.53437837,6.86994985 C4.7961611,8.9311194 6.2052882,10.6702527 8.16531627,11.3569202 L8.52223873,11.4819628 L8.49906006,11.859444 C8.49639365,11.90145 8.49639365,11.90145 8.49369498,11.9413473 C8.4934733,11.9446255 8.4934733,11.9446255 8.49325268,11.9478893 C8.4856065,12.0610279 8.483,12.1135599 8.483,12.1718 C8.483,13.5938615 9.02852315,14.926147 9.98287729,15.9370354 C10.937169,14.9256229 11.483,13.5931844 11.483,12.1718 C11.483,12.116581 11.4804618,12.0686115 11.4724214,11.9552312 C11.4722195,11.9523847 11.4722195,11.9523847 11.4720169,11.9495259 C11.4689313,11.9059019 11.4689313,11.9059019 11.4659399,11.859444 L11.4427613,11.4819628 L11.7996837,11.3569202 C13.7597126,10.6702524 15.1688401,8.93111792 15.430622,6.86994722 Z"></path>
          </g>
        </g>
      </g>
    </g>
  </g>
</svg>
