<?xml version="1.0" encoding="UTF-8"?>
<svg width="44px" height="34px" viewBox="0 0 44 34" version="1.1" xmlns="http://www.w3.org/2000/svg" xmlns:xlink="http://www.w3.org/1999/xlink">
  <!-- Generator: Sketch 48.2 (47327) - http://www.bohemiancoding.com/sketch -->
  <title>Combined Shape</title>
  <desc>Created with Sketch.</desc>
  <defs>
    <linearGradient x1="50%" y1="0%" x2="50%" y2="100%" id="linearGradient-1">
      <stop stop-color="#1C45CF" offset="0%"></stop>
      <stop stop-color="#0B2D9A" offset="100%"></stop>
    </linearGradient>
  </defs>
  <g id="Page-1" stroke="none" stroke-width="1" fill="none" fill-rule="evenodd">
    <path d="M22,20.5857864 L17.7573593,16.3431458 C17.366835,15.9526215 16.73367,15.9526215 16.3431458,16.3431458 C15.9526215,16.73367 15.9526215,17.366835 16.3431458,17.7573593 L20.5857864,22 L16.3431458,26.2426407 C15.9526215,26.633165 15.9526215,27.26633 16.3431458,27.6568542 C16.73367,28.0473785 17.366835,28.0473785 17.7573593,27.6568542 L22,23.4142136 L26.2426407,27.6568542 C26.633165,28.0473785 27.26633,28.0473785 27.6568542,27.6568542 C28.0473785,27.26633 28.0473785,26.633165 27.6568542,26.2426407 L23.4142136,22 L27.6568542,17.7573593 C28.0473785,17.366835 28.0473785,16.73367 27.6568542,16.3431458 C27.26633,15.9526215 26.633165,15.9526215 26.2426407,16.3431458 L22,20.5857864 Z M2,0 L42,0 C43.1045695,-2.02906125e-16 44,0.8954305 44,2 L44,7 L0,7 L0,2 C-1.3527075e-16,0.8954305 0.8954305,2.02906125e-16 2,0 Z M6.5,5 C7.32842712,5 8,4.32842712 8,3.5 C8,2.67157288 7.32842712,2 6.5,2 C5.67157288,2 5,2.67157288 5,3.5 C5,4.32842712 5.67157288,5 6.5,5 Z M12.5,5 C13.3284271,5 14,4.32842712 14,3.5 C14,2.67157288 13.3284271,2 12.5,2 C11.6715729,2 11,2.67157288 11,3.5 C11,4.32842712 11.6715729,5 12.5,5 Z M18.5,5 C19.3284271,5 20,4.32842712 20,3.5 C20,2.67157288 19.3284271,2 18.5,2 C17.6715729,2 17,2.67157288 17,3.5 C17,4.32842712 17.6715729,5 18.5,5 Z M0,9 L44,9 L44,32 C44,33.1045695 43.1045695,34 42,34 L2,34 C0.8954305,34 1.3527075e-16,33.1045695 0,32 L0,9 Z" id="Combined-Shape" fill="url(#linearGradient-1)"></path>
  </g>
</svg>
