<svg width="32px" height="32px" viewBox="0 0 32 32" version="1.1" xmlns="http://www.w3.org/2000/svg" xmlns:xlink="http://www.w3.org/1999/xlink">
  <!-- Generator: Sketch 43.1 (39012) - http://www.bohemiancoding.com/sketch -->
  <desc>Created with Sketch.</desc>
  <defs>
    <path d="M16.3939174,11.5586592 L16.3939174,6.99037104 C16.3939174,3.12969572 13.2689666,-5.116763e-16 9.58612044,0 L9.58612044,0 L9.52510759,8.47682197e-18 C5.66103151,5.45332306e-16 2.52857893,3.12793963 2.52857893,6.99037104 L2.52857893,11.5586592 L0.21768919,14 L0.21768919,15 C0.21768919,15.5522847 0.674676662,16 1.21163694,16 L17.7108593,16 C18.2598015,16 18.7048071,15.5561352 18.7048071,15 L18.7048071,14 L16.3939174,11.5586592 Z" id="path-1"></path>
  </defs>
  <g id="0330" stroke="none" stroke-width="1" fill="none" fill-rule="evenodd">
    <g id="head_消息中心_全部消息" transform="translate(-1752.000000, -15.000000)">
      <g id="Group-17" transform="translate(240.000000, 0.000000)">
        <g id="Group-10" transform="translate(1512.000000, 15.000000)">
          <rect id="Rectangle-4" x="0" y="0" width="32" height="32"></rect>
          <g id="Group-7" transform="translate(6.000000, 6.000000)">
            <g id="Shape">
              <use fill="#F2FAFF" fill-rule="evenodd" xlink:href="#path-1"></use>
              <path stroke="#007FDF" stroke-width="1" d="M18.2048071,14.1991137 L18.2048071,15 C18.2048071,15.2790436 17.9846024,15.5 17.7108593,15.5 L1.21163694,15.5 C0.946432458,15.5 0.71768919,15.2717644 0.71768919,15 L0.71768919,14.1991137 L2.89170075,11.9023779 L3.02857893,11.7577729 L3.02857893,11.5586592 L3.02857893,6.99037104 C3.02857893,3.40480656 5.93644883,0.5 9.52510759,0.5 L9.58612044,0.5 C13.017304,0.5 15.8939174,3.43086262 15.8939174,6.99037104 L15.8939174,11.5586592 L15.8939174,11.7577729 L16.0307955,11.9023779 L18.2048071,14.1991137 Z"></path>
            </g>
            <path d="M13,16 L6,16 C6,17.65 7.20814514,19 9.5,19 C11.7918549,19 13,17.65 13,16 Z" id="Path" fill="#007FDF"></path>
          </g>
        </g>
      </g>
    </g>
  </g>
</svg>
