
<svg width="62px" height="60px" viewBox="0 0 62 60" version="1.1" xmlns="http://www.w3.org/2000/svg" xmlns:xlink="http://www.w3.org/1999/xlink">
  <!-- Generator: Sketch 43.2 (39069) - http://www.bohemiancoding.com/sketch -->
  <desc>Created with Sketch.</desc>
  <defs>
    <path d="M0.300710829,20.9786751 C0.686917574,9.39247279 10.4079804,0 22.0061566,0 L39.9938434,0 C51.5952233,0 61.3129775,9.38932566 61.6992892,20.9786751 L62,30 L61.6992892,39.0213249 C61.3130824,50.6075272 51.5920196,60 39.9938434,60 L22.0061566,60 C10.4047767,60 0.687022478,50.6106743 0.300710829,39.0213249 L0,30 L0.300710829,20.9786751 Z" id="path-1"></path>
    <path d="M22,26 L8,26 C8,29.3 10.4162903,32 15,32 C19.5837097,32 22,29.3 22,26 Z" id="path-2"></path>
    <path d="M14.753,2 C8.676,2 3.75,6.923 3.75,13 L3.75,20.061 L0,23.875 L0,25.994 C0,26.55 0.447,27 0.998,27 L29.001,27 C29.552,27 30,26.552 30,25.994 L30,23.875 L26.25,20.061 L26.25,13 C26.25,6.925 21.323,2 15.252,2 L14.753,2 Z" id="path-3"></path>
  </defs>
  <g id="0330" stroke="none" stroke-width="1" fill="none" fill-rule="evenodd">
    <g id="head_消息中心_消息详情" transform="translate(-613.000000, -231.000000)">
      <g id="Group-17" transform="translate(613.000000, 231.000000)">
        <g id="Rectangle-11-Copy">
          <use fill="#FAFDFF" fill-rule="evenodd" xlink:href="#path-1"></use>
          <path stroke="#97A4B6" stroke-width="1" d="M0.800433282,20.9953326 C1.17761651,9.67983562 10.6764403,0.5 22.0061566,0.5 L39.9938434,0.5 C51.3267452,0.5 60.822278,9.67667031 61.1995667,20.9953326 L61.5002775,30.0166574 L61.1995667,39.0046674 C60.8223835,50.3201644 51.3235597,59.5 39.9938434,59.5 L22.0061566,59.5 C10.6732548,59.5 1.17772202,50.3233297 0.800433282,39.0046674 L0.499722453,29.9833426 L0.800433282,20.9953326 L0.800433282,20.9953326 Z"></path>
        </g>
        <g id="Group-16" transform="translate(16.000000, 13.000000)">
          <g id="Path">
            <use fill="#D2D9E2" fill-rule="evenodd" xlink:href="#path-2"></use>
            <path stroke="#97A4B6" stroke-width="1" d="M21.480224,26.5 C21.2413467,29.4771565 18.8510833,31.5 15,31.5 C11.1489167,31.5 8.75865332,29.4771565 8.51977604,26.5 L21.480224,26.5 Z"></path>
          </g>
          <g id="Page-1">
            <use fill="#FAFDFF" fill-rule="evenodd" xlink:href="#path-3"></use>
            <path stroke="#97A4B6" stroke-width="1" d="M29.5,24.079633 L29.5,25.994 C29.5,26.2753127 29.2763944,26.5 29.001,26.5 L0.998,26.5 C0.72379488,26.5 0.5,26.2745015 0.5,25.994 L0.5,24.079633 L4.10653209,20.4115494 L4.25,20.265633 L4.25,20.061 L4.25,13 C4.25,7.19975681 8.95152774,2.5 14.753,2.5 L15.252,2.5 C21.0478576,2.5 25.75,7.20214237 25.75,13 L25.75,20.061 L25.75,20.265633 L25.8934679,20.4115494 L29.5,24.079633 Z"></path>
          </g>
        </g>
      </g>
    </g>
  </g>
</svg>
