<svg width="36px" height="36px" viewBox="0 0 36 36" version="1.1" xmlns="http://www.w3.org/2000/svg" xmlns:xlink="http://www.w3.org/1999/xlink">
    <!-- Generator: Sketch 44.1 (41455) - http://www.bohemiancoding.com/sketch -->
    <desc>Created with Sketch.</desc>
    <defs>
        <path d="M1,10 L5,10 L5,10 C5.55228475,10 6,10.4477153 6,11 L6,12 L6,12 C6,12.5522847 6.44771525,13 7,13 L13,13 L13,13 C13.5522847,13 14,12.5522847 14,12 L14,11 L14,11 C14,10.4477153 14.4477153,10 15,10 L19,10 L19,10 C19.5522847,10 20,10.4477153 20,11 L20,17 L20,17 C20,17.5522847 19.5522847,18 19,18 L1,18 L1,18 C0.44771525,18 6.76353751e-17,17.5522847 0,17 L0,11 L0,11 C-6.76353751e-17,10.4477153 0.44771525,10 1,10 Z" id="path-1"></path>
        <path d="M10.7071068,3.70710678 L13.2928932,6.29289322 L13.2928932,6.29289322 C13.6834175,6.68341751 13.6834175,7.31658249 13.2928932,7.70710678 L10.7071068,10.2928932 L10.7071068,10.2928932 C10.3165825,10.6834175 9.68341751,10.6834175 9.29289322,10.2928932 C9.10535684,10.1053568 9,9.85100293 9,9.58578644 L9,9 L7,9 L7,9 C6.44771525,9 6,8.55228475 6,8 L6,6 L6,6 C6,5.44771525 6.44771525,5 7,5 L9,5 L9,4.41421356 L9,4.41421356 C9,3.86192881 9.44771525,3.41421356 10,3.41421356 C10.2652165,3.41421356 10.5195704,3.5195704 10.7071068,3.70710678 Z" id="path-2"></path>
    </defs>
    <g id="Hybrid" stroke="none" stroke-width="1" fill="none" fill-rule="evenodd">
        <g id="*导航_normal&amp;selected-间距调整" transform="translate(-282.000000, -628.000000)">
            <g id="Group-24" transform="translate(282.000000, 628.000000)">
                <rect id="Rectangle-2" x="0" y="0" width="36" height="36"></rect>
                <g id="Group-9" transform="translate(8.000000, 9.000000)">
                    <path d="M3,0.5 C2.72385763,0.5 2.5,0.723857625 2.5,1 L2.5,17 C2.5,17.2761424 2.72385763,17.5 3,17.5 L17,17.5 C17.2761424,17.5 17.5,17.2761424 17.5,17 L17.5,1 C17.5,0.723857625 17.2761424,0.5 17,0.5 L3,0.5 Z" id="Rectangle-13" stroke="#FFFFFF" transform="translate(10.000000, 9.000000) scale(-1, 1) translate(-10.000000, -9.000000) "></path>
                    <g id="Rectangle-5">
                        <use fill="#003359" fill-rule="evenodd" xlink:href="#path-1"></use>
                        <path stroke="#FFFFFF" stroke-width="1" d="M1,10.5 C0.723857625,10.5 0.5,10.7238576 0.5,11 L0.5,17 C0.5,17.2761424 0.723857625,17.5 1,17.5 L19,17.5 C19.2761424,17.5 19.5,17.2761424 19.5,17 L19.5,11 C19.5,10.7238576 19.2761424,10.5 19,10.5 L15,10.5 C14.7238576,10.5 14.5,10.7238576 14.5,11 L14.5,12 C14.5,12.8284271 13.8284271,13.5 13,13.5 L7,13.5 C6.17157288,13.5 5.5,12.8284271 5.5,12 L5.5,11 C5.5,10.7238576 5.27614237,10.5 5,10.5 L1,10.5 Z"></path>
                    </g>
                    <g id="Rectangle-29" transform="translate(10.000000, 7.000000) scale(1, -1) rotate(90.000000) translate(-10.000000, -7.000000) ">
                        <use fill-opacity="0.4" fill="#0077D2" fill-rule="evenodd" xlink:href="#path-2"></use>
                        <path stroke="#FFFFFF" stroke-width="1" d="M10.3535534,4.06066017 C10.2597852,3.96689198 10.1326082,3.91421356 10,3.91421356 C9.72385763,3.91421356 9.5,4.13807119 9.5,4.41421356 L9.5,5.5 L7,5.5 C6.72385763,5.5 6.5,5.72385763 6.5,6 L6.5,8 C6.5,8.27614237 6.72385763,8.5 7,8.5 L9.5,8.5 L9.5,9.58578644 C9.5,9.71839468 9.55267842,9.84557164 9.64644661,9.93933983 C9.84170876,10.134602 10.1582912,10.134602 10.3535534,9.93933983 L12.9393398,7.35355339 C13.134602,7.15829124 13.134602,6.84170876 12.9393398,6.64644661 L10.3535534,4.06066017 Z"></path>
                    </g>
                </g>
            </g>
        </g>
    </g>
</svg>
