<?xml version="1.0" encoding="UTF-8"?>
<svg width="62px" height="60px" viewBox="0 0 62 60" version="1.1" xmlns="http://www.w3.org/2000/svg" xmlns:xlink="http://www.w3.org/1999/xlink">
  <!-- Generator: Sketch 44.1 (41455) - http://www.bohemiancoding.com/sketch -->
  <title>Group 27</title>
  <desc>Created with Sketch.</desc>
  <defs>
    <path d="M0.300710829,20.9786751 C0.686917574,9.39247279 10.4079804,0 22.0061566,0 L39.9938434,0 C51.5952233,0 61.3129775,9.38932566 61.6992892,20.9786751 L62,30 L61.6992892,39.0213249 C61.3130824,50.6075272 51.5920196,60 39.9938434,60 L22.0061566,60 C10.4047767,60 0.687022478,50.6106743 0.300710829,39.0213249 L0,30 L0.300710829,20.9786751 Z" id="path-1"></path>
    <path d="M1,15 L8,15 L8,15 C8.55228475,15 9,15.4477153 9,16 L9,18.5 L9,18.5 C9,19.0522847 9.44771525,19.5 10,19.5 L20,19.5 L20,19.5 C20.5522847,19.5 21,19.0522847 21,18.5 L21,16 L21,16 C21,15.4477153 21.4477153,15 22,15 L29,15 L29,15 C29.5522847,15 30,15.4477153 30,16 L30,26 L30,26 C30,26.5522847 29.5522847,27 29,27 L1,27 L1,27 C0.44771525,27 6.76353751e-17,26.5522847 0,26 L0,16 L-1.11022302e-16,16 C-4.23921376e-16,15.4477153 0.44771525,15 1,15 Z" id="path-2"></path>
    <path d="M15.2071068,4.70710678 L20.2928932,9.79289322 L20.2928932,9.79289322 C20.6834175,10.1834175 20.6834175,10.8165825 20.2928932,11.2071068 L15.2071068,16.2928932 L15.2071068,16.2928932 C14.8165825,16.6834175 14.1834175,16.6834175 13.7928932,16.2928932 C13.6053568,16.1053568 13.5,15.8510029 13.5,15.5857864 L13.5,13.5 L10,13.5 L10,13.5 C9.44771525,13.5 9,13.0522847 9,12.5 L9,8.5 L9,8.5 C9,7.94771525 9.44771525,7.5 10,7.5 L13.5,7.5 L13.5,5.41421356 L13.5,5.41421356 C13.5,4.86192881 13.9477153,4.41421356 14.5,4.41421356 C14.7652165,4.41421356 15.0195704,4.5195704 15.2071068,4.70710678 Z" id="path-3"></path>
  </defs>
  <g id="Hybrid" stroke="none" stroke-width="1" fill="none" fill-rule="evenodd">
    <g id="*导航_normal&amp;selected-间距调整" transform="translate(-780.000000, -803.000000)">
      <g id="Group-27" transform="translate(780.000000, 803.000000)">
        <g id="Rectangle-11">
          <use fill="#FAFDFF" fill-rule="evenodd" xlink:href="#path-1"></use>
          <path stroke="#97A4B6" stroke-width="1" d="M0.800433282,20.9953326 L0.499722453,29.9833426 L0.800433282,39.0046674 C1.17772202,50.3233297 10.6732548,59.5 22.0061566,59.5 L39.9938434,59.5 C51.3235597,59.5 60.8223835,50.3201644 61.1995667,39.0046674 L61.5002775,30.0166574 L61.1995667,20.9953326 C60.822278,9.67667031 51.3267452,0.5 39.9938434,0.5 L22.0061566,0.5 C10.6764403,0.5 1.17761651,9.67983562 0.800433282,20.9953326 Z"></path>
        </g>
        <g id="Group-25" transform="translate(16.000000, 17.000000)">
          <path d="M4,0.5 C3.72385763,0.5 3.5,0.723857625 3.5,1 L3.5,26 C3.5,26.2761424 3.72385763,26.5 4,26.5 L26,26.5 C26.2761424,26.5 26.5,26.2761424 26.5,26 L26.5,1 C26.5,0.723857625 26.2761424,0.5 26,0.5 L4,0.5 Z" id="Rectangle-13" stroke="#97A4B6" transform="translate(15.000000, 13.500000) scale(-1, 1) translate(-15.000000, -13.500000) "></path>
          <g id="Rectangle-5">
            <use fill="#FAFDFF" fill-rule="evenodd" xlink:href="#path-2"></use>
            <path stroke="#97A4B6" stroke-width="1" d="M1,15.5 C0.723857625,15.5 0.5,15.7238576 0.5,16 L0.5,26 C0.5,26.2761424 0.723857625,26.5 1,26.5 L29,26.5 C29.2761424,26.5 29.5,26.2761424 29.5,26 L29.5,16 C29.5,15.7238576 29.2761424,15.5 29,15.5 L22,15.5 C21.7238576,15.5 21.5,15.7238576 21.5,16 L21.5,18.5 C21.5,19.3284271 20.8284271,20 20,20 L10,20 C9.17157288,20 8.5,19.3284271 8.5,18.5 L8.5,16 C8.5,15.7238576 8.27614237,15.5 8,15.5 L1,15.5 Z"></path>
          </g>
          <g id="Rectangle-29" transform="translate(15.000000, 10.500000) scale(1, -1) rotate(90.000000) translate(-15.000000, -10.500000) ">
            <use fill-opacity="0.39770154" fill="#97A4B6" fill-rule="evenodd" xlink:href="#path-3"></use>
            <path stroke="#97A4B6" stroke-width="1" d="M14.8535534,5.06066017 C14.7597852,4.96689198 14.6326082,4.91421356 14.5,4.91421356 C14.2238576,4.91421356 14,5.13807119 14,5.41421356 L14,8 L10,8 C9.72385763,8 9.5,8.22385763 9.5,8.5 L9.5,12.5 C9.5,12.7761424 9.72385763,13 10,13 L14,13 L14,15.5857864 C14,15.7183947 14.0526784,15.8455716 14.1464466,15.9393398 C14.3417088,16.134602 14.6582912,16.134602 14.8535534,15.9393398 L19.9393398,10.8535534 C20.134602,10.6582912 20.134602,10.3417088 19.9393398,10.1464466 L14.8535534,5.06066017 Z"></path>
          </g>
        </g>
      </g>
    </g>
  </g>
</svg>
