<?xml version="1.0" encoding="UTF-8"?>
<svg width="51px" height="51px" viewBox="0 0 51 51" version="1.1" xmlns="http://www.w3.org/2000/svg" xmlns:xlink="http://www.w3.org/1999/xlink">
  <!-- Generator: Sketch 48.2 (47327) - http://www.bohemiancoding.com/sketch -->
  <title>Group 27</title>
  <desc>Created with Sketch.</desc>
  <defs>
    <linearGradient x1="31.4453125%" y1="33.8378906%" x2="57.421875%" y2="99.4257812%" id="linearGradient-1">
      <stop stop-color="#57EFFF" offset="0%"></stop>
      <stop stop-color="#2CDAFF" stop-opacity="0" offset="100%"></stop>
    </linearGradient>
    <linearGradient x1="38.6523438%" y1="0%" x2="100%" y2="0%" id="linearGradient-2">
      <stop stop-color="#57EFFF" offset="0%"></stop>
      <stop stop-color="#2CDAFF" stop-opacity="0" offset="100%"></stop>
    </linearGradient>
  </defs>
  <g id="大屏" stroke="none" stroke-width="1" fill="none" fill-rule="evenodd">
    <g id="Group-27">
      <path d="M1.5,1 C1.77614237,1 2,1.22385763 2,1.5 L2,50.5 C2,50.7761424 1.77614237,51 1.5,51 C1.22385763,51 1,50.7761424 1,50.5 L1,1.5 C1,1.22385763 1.22385763,1 1.5,1 Z" id="Combined-Shape" fill="url(#linearGradient-1)"></path>
      <polygon id="Rectangle-15" fill="#2CDAFF" points="0 0 3 0 3 21 0 21"></polygon>
      <path d="M51,1.5 C51,1.77614237 50.7761424,2 50.5,2 L1.5,2 C1.22385763,2 1,1.77614237 1,1.5 C1,1.22385763 1.22385763,1 1.5,1 L50.5,1 C50.7761424,1 51,1.22385763 51,1.5 Z" id="Rectangle-16" fill="url(#linearGradient-2)"></path>
      <polygon id="Rectangle-15" fill="#2CDAFF" points="0 3 0 0 21 0 21 3"></polygon>
    </g>
  </g>
</svg>
