<?xml version="1.0" encoding="UTF-8"?>
<svg width="32px" height="32px" viewBox="0 0 32 32" version="1.1" xmlns="http://www.w3.org/2000/svg" xmlns:xlink="http://www.w3.org/1999/xlink">
    <!-- Generator: Sketch 48.2 (47327) - http://www.bohemiancoding.com/sketch -->
    <title>Slice</title>
    <desc>Created with Sketch.</desc>
    <defs>
        <rect id="path-1" x="0" y="0" width="19" height="15" rx="1"></rect>
        <path d="M7,13 L12,13 L12,15.763932 C12,15.9191771 12.0361451,16.0722902 12.1055728,16.2111456 L13,18 L6,18 L6.89442719,16.2111456 C6.96385491,16.0722902 7,15.9191771 7,15.763932 L7,13 Z" id="path-2"></path>
        <path d="M0,12 L19,12 L19,14 C19,14.5522847 18.5522847,15 18,15 L1,15 C0.44771525,15 6.76353751e-17,14.5522847 0,14 L0,12 Z" id="path-3"></path>
    </defs>
    <g id="2.3" stroke="none" stroke-width="1" fill="none" fill-rule="evenodd">
        <g id="Group-13-Copy-2">
            <rect id="Rectangle-4" x="0" y="0" width="32" height="32"></rect>
            <g id="Group-11" transform="translate(7.000000, 7.000000)">
                <g id="Rectangle-16">
                    <use fill="#F2FAFF" fill-rule="evenodd" xlink:href="#path-1"></use>
                    <rect stroke="#007FDF" stroke-width="1" x="0.5" y="0.5" width="18" height="14" rx="1"></rect>
                </g>
                <g id="Rectangle-22">
                    <use fill="#F2FAFF" fill-rule="evenodd" xlink:href="#path-2"></use>
                    <path stroke="#007FDF" stroke-width="1" d="M7.5,13.5 L7.5,15.763932 C7.5,15.9967997 7.44578236,16.2264693 7.34164079,16.4347524 L6.80901699,17.5 L12.190983,17.5 L11.6583592,16.4347524 C11.5542176,16.2264693 11.5,15.9967997 11.5,15.763932 L11.5,13.5 L7.5,13.5 Z"></path>
                </g>
                <path d="M2.5,17 C4.83333333,17 7.16666667,17 9.5,17 C11.8333333,17 14.1666667,17 16.5,17 L16.5,17 C16.7761424,17 17,17.2238576 17,17.5 L17,17.5 C17,17.7761424 16.7761424,18 16.5,18 C14.1666667,18 11.8333333,18 9.5,18 C7.16666667,18 4.83333333,18 2.5,18 L2.5,18 C2.22385763,18 2,17.7761424 2,17.5 L2,17.5 C2,17.2238576 2.22385763,17 2.5,17 Z" id="Rectangle-26" fill="#007FDF"></path>
                <g id="Rectangle-27">
                    <use fill="#007FDF" fill-rule="evenodd" xlink:href="#path-3"></use>
                    <path stroke="#007FDF" stroke-width="1" d="M0.5,12.5 L0.5,14 C0.5,14.2761424 0.723857625,14.5 1,14.5 L18,14.5 C18.2761424,14.5 18.5,14.2761424 18.5,14 L18.5,12.5 L0.5,12.5 Z"></path>
                </g>
            </g>
        </g>
    </g>
</svg>
