<?xml version="1.0" encoding="UTF-8"?>
<svg width="36px" height="36px" viewBox="0 0 36 36" version="1.1" xmlns="http://www.w3.org/2000/svg" xmlns:xlink="http://www.w3.org/1999/xlink">
  <!-- Generator: Sketch 46.2 (44496) - http://www.bohemiancoding.com/sketch -->
  <title>*图标</title>
  <desc>Created with Sketch.</desc>
  <defs></defs>
  <g id="UI-KIT" stroke="none" stroke-width="1" fill="none" fill-rule="evenodd">
    <g id="*图标" transform="translate(-1346.000000, -900.000000)">
      <g id="Group-139" transform="translate(1346.000000, 900.000000)">
        <rect id="Rectangle-2" x="0" y="0" width="36" height="36"></rect>
        <g id="Group-138" transform="translate(8.000000, 8.000000)">
          <rect id="Rectangle-56" stroke="#97A4B6" x="6.5" y="6.5" width="7" height="7" rx="1"></rect>
          <rect id="Rectangle-56" stroke="#97A4B6" x="3.5" y="3.5" width="13" height="13" rx="1"></rect>
          <rect id="Rectangle-58" fill="#97A4B6" x="7" y="0" width="1" height="4" rx="0.5"></rect>
          <rect id="Rectangle-58" fill="#97A4B6" x="12" y="0" width="1" height="4" rx="0.5"></rect>
          <rect id="Rectangle-58" fill="#97A4B6" x="16" y="7" width="4" height="1" rx="0.5"></rect>
          <rect id="Rectangle-58" fill="#97A4B6" x="16" y="12" width="4" height="1" rx="0.5"></rect>
          <rect id="Rectangle-58" fill="#97A4B6" x="4.54636329e-14" y="7" width="4" height="1" rx="0.5"></rect>
          <rect id="Rectangle-58" fill="#97A4B6" x="4.54636329e-14" y="12" width="4" height="1" rx="0.5"></rect>
          <rect id="Rectangle-58" fill="#97A4B6" x="7" y="16" width="1" height="4" rx="0.5"></rect>
          <rect id="Rectangle-58" fill="#97A4B6" x="12" y="16" width="1" height="4" rx="0.5"></rect>
        </g>
      </g>
    </g>
  </g>
</svg>
