<?xml version="1.0" encoding="UTF-8"?>
<svg width="36px" height="36px" viewBox="0 0 36 36" version="1.1" xmlns="http://www.w3.org/2000/svg" xmlns:xlink="http://www.w3.org/1999/xlink">
  <!-- Generator: Sketch 52.2 (67145) - http://www.bohemiancoding.com/sketch -->
  <title>pop_lun_n</title>
  <desc>Created with Sketch.</desc>
  <g id="uikit" stroke="none" stroke-width="1" fill="none" fill-rule="evenodd">
    <g id="*图标" transform="translate(-1278.000000, -1349.000000)">
      <g id="pop_lun_n" transform="translate(1278.000000, 1349.000000)">
        <rect id="Rectangle-2" x="0" y="0" width="36" height="36"></rect>
        <g id="Group-264" transform="translate(8.000000, 9.000000)">
          <path d="M1,0.5 C0.723857625,0.5 0.5,0.723857625 0.5,1 L0.5,17 C0.5,17.2761424 0.723857625,17.5 1,17.5 L19,17.5 C19.2761424,17.5 19.5,17.2761424 19.5,17 L19.5,1 C19.5,0.723857625 19.2761424,0.5 19,0.5 L1,0.5 Z" id="Rectangle-7" stroke="#97A4B6"></path>
          <rect id="Combined-Shape" stroke="#97A4B6" x="0.5" y="12.5" width="19" height="5" rx="1"></rect>
          <path d="M8,8 L12,8 L12,5 L8,5 L8,8 Z M7,4.99980749 C7,4.44762906 7.45097518,4 7.99077797,4 L12.009222,4 C12.5564136,4 13,4.44371665 13,4.99980749 L13,8.00019251 C13,8.55237094 12.5490248,9 12.009222,9 L7.99077797,9 C7.44358641,9 7,8.55628335 7,8.00019251 L7,4.99980749 Z" id="Combined-Shape" fill="#97A4B6" fill-rule="nonzero"></path>
          <path d="M5,14.5046844 C5,14.2259549 5.23193359,14 5.5,14 C5.77614237,14 6,14.214035 6,14.5046844 L6,15.4953156 C6,15.7740451 5.76806641,16 5.5,16 C5.22385763,16 5,15.785965 5,15.4953156 L5,14.5046844 Z M8,14.5046844 C8,14.2259549 8.23193359,14 8.5,14 C8.77614237,14 9,14.214035 9,14.5046844 L9,15.4953156 C9,15.7740451 8.76806641,16 8.5,16 C8.22385763,16 8,15.785965 8,15.4953156 L8,14.5046844 Z M11,14.5046844 C11,14.2259549 11.2319336,14 11.5,14 C11.7761424,14 12,14.214035 12,14.5046844 L12,15.4953156 C12,15.7740451 11.7680664,16 11.5,16 C11.2238576,16 11,15.785965 11,15.4953156 L11,14.5046844 Z M14,14.5046844 C14,14.2259549 14.2319336,14 14.5,14 C14.7761424,14 15,14.214035 15,14.5046844 L15,15.4953156 C15,15.7740451 14.7680664,16 14.5,16 C14.2238576,16 14,15.785965 14,15.4953156 L14,14.5046844 Z" id="Combined-Shape" fill="#97A4B6"></path>
          <path d="M14,4 L13.5,4 C13.2238576,4 13,3.77614237 13,3.5 C13,3.22385763 13.2238576,3 13.5,3 L14.5,3 C14.7761424,3 15,3.22385763 15,3.5 L15,4.5 C15,4.77614237 14.7761424,5 14.5,5 C14.2238576,5 14,4.77614237 14,4.5 L14,4 Z M6,4 L6,4.5 C6,4.77614237 5.77614237,5 5.5,5 C5.22385763,5 5,4.77614237 5,4.5 L5,3.5 C5,3.22385763 5.22385763,3 5.5,3 L6.5,3 C6.77614237,3 7,3.22385763 7,3.5 C7,3.77614237 6.77614237,4 6.5,4 L6,4 Z M14,9 L14,8.5 C14,8.22385763 14.2238576,8 14.5,8 C14.7761424,8 15,8.22385763 15,8.5 L15,9.5 C15,9.77614237 14.7761424,10 14.5,10 L13.5,10 C13.2238576,10 13,9.77614237 13,9.5 C13,9.22385763 13.2238576,9 13.5,9 L14,9 Z M6,9 L6.5,9 C6.77614237,9 7,9.22385763 7,9.5 C7,9.77614237 6.77614237,10 6.5,10 L5.5,10 C5.22385763,10 5,9.77614237 5,9.5 L5,8.5 C5,8.22385763 5.22385763,8 5.5,8 C5.77614237,8 6,8.22385763 6,8.5 L6,9 Z" id="Combined-Shape" fill="#97A4B6" fill-rule="nonzero"></path>
        </g>
      </g>
    </g>
  </g>
</svg>
