<?xml version="1.0" encoding="UTF-8"?>
<svg width="36px" height="36px" viewBox="0 0 36 36" version="1.1" xmlns="http://www.w3.org/2000/svg" xmlns:xlink="http://www.w3.org/1999/xlink">
  <!-- Generator: Sketch 52.2 (67145) - http://www.bohemiancoding.com/sketch -->
  <title>pop_auto_scaling_h</title>
  <desc>Created with Sketch.</desc>
  <g id="uikit" stroke="none" stroke-width="1" fill="none" fill-rule="evenodd">
    <g id="*图标" transform="translate(-1330.000000, -1225.000000)">
      <g id="pop_auto_scaling_h" transform="translate(1330.000000, 1225.000000)">
        <rect id="Rectangle-2" x="0" y="0" width="36" height="36"></rect>
        <g id="Group-256" transform="translate(7.000000, 8.000000)" fill="#3C73B9" fill-rule="nonzero">
          <path d="M15.0595329,12.1122675 C13.9197755,17.0486186 12.643962,19.5 11,19.5 C9.35601058,19.5 8.08018195,17.0485368 6.94041,12.1120203 C6.03797788,15.0281899 5.01388962,16.5 3.72515318,16.5 C2.42907953,16.5 1.42006346,15.0206763 0.525327161,12.1575405 C0.442960262,11.8939683 0.589856183,11.6135293 0.853428384,11.5311624 C1.11700059,11.4487955 1.39743964,11.5956914 1.47980653,11.8592636 C2.24824788,14.3182584 3.05428937,15.5 3.72515318,15.5 C4.57249503,15.5 5.57360186,13.6822404 6.48510029,10 C5.57360186,6.31775958 4.57249503,4.5 3.72515318,4.5 C3.05346434,4.5 2.24645954,5.68447337 1.47729128,8.14879007 C1.39501562,8.41239077 1.11462743,8.55938375 0.851026736,8.47710809 C0.587426041,8.39483243 0.440433058,8.11444424 0.522708719,7.85084355 C1.41811662,4.98207117 2.42788061,3.5 3.72515318,3.5 C5.01388962,3.5 6.03797788,4.97181012 6.94041,7.88797966 C8.08018195,2.95146324 9.35601058,0.5 11,0.5 C12.643962,0.5 13.9197755,2.95138141 15.0595329,7.88773251 C15.9619464,4.97172696 16.9860132,3.5 18.2747133,3.5 C19.5719858,3.5 20.5817498,4.98207117 21.4771577,7.85084355 C21.5594334,8.11444424 21.4124404,8.39483243 21.1488397,8.47710809 C20.885239,8.55938375 20.6048508,8.41239077 20.5225752,8.14879007 C19.7534069,5.68447337 18.9464021,4.5 18.2747133,4.5 C17.4273714,4.5 16.4262646,6.31775958 15.5147662,10 C16.4262646,13.6822404 17.4273714,15.5 18.2747133,15.5 C18.9455771,15.5 19.7516186,14.3182584 20.5200599,11.8592636 C20.6024268,11.5956914 20.8828659,11.4487955 21.1464381,11.5311624 C21.4100103,11.6135293 21.5569062,11.8939683 21.4745393,12.1575405 C20.579803,15.0206763 19.5707869,16.5 18.2747133,16.5 C16.9860132,16.5 15.9619464,15.028273 15.0595329,12.1122675 Z M11,18.5 C12.0852039,18.5 13.3576732,15.6508788 14.4901283,10 C13.3576732,4.34912122 12.0852039,1.5 11,1.5 C9.91479606,1.5 8.64232681,4.34912122 7.50987168,10 C8.64232681,15.6508788 9.91479606,18.5 11,18.5 Z" id="Combined-Shape"></path>
        </g>
      </g>
    </g>
  </g>
</svg>
