<?xml version="1.0" encoding="UTF-8"?>
<svg width="36px" height="36px" viewBox="0 0 36 36" version="1.1" xmlns="http://www.w3.org/2000/svg" xmlns:xlink="http://www.w3.org/1999/xlink">
  <!-- Generator: Sketch 50.2 (55047) - http://www.bohemiancoding.com/sketch -->
  <title>pop_my_template_h</title>
  <desc>Created with Sketch.</desc>
  <defs></defs>
  <g id="uikit" stroke="none" stroke-width="1" fill="none" fill-rule="evenodd">
    <g id="*图标" transform="translate(-2228.000000, -1402.000000)">
      <g id="pop_my_template_h" transform="translate(2228.000000, 1402.000000)">
        <rect id="Rectangle-2-Copy-14" x="0" y="0" width="36" height="36"></rect>
        <g id="Group-145" transform="translate(8.000000, 8.000000)">
          <path d="M16.5,19.5 L16.5,1 C16.5,0.723857625 16.2761424,0.5 16,0.5 L1,0.5 C0.723857625,0.5 0.5,0.723857625 0.5,1 L0.5,19 C0.5,19.2761424 0.723857625,19.5 1,19.5 L16.5,19.5 Z" id="Rectangle-100" stroke="#3C73B9"></path>
          <path d="M19.5,19.5 L19.5,4.5 L17,4.5 C16.7238576,4.5 16.5,4.72385763 16.5,5 L16.5,19 C16.5,19.2761424 16.7238576,19.5 17,19.5 L19.5,19.5 Z" id="Rectangle-100-Copy-2" stroke="#3C73B9" transform="translate(18.000000, 12.000000) scale(-1, 1) translate(-18.000000, -12.000000) "></path>
          <rect id="Rectangle-102" fill="#3C73B9" x="4" y="11" width="9" height="1" rx="0.5"></rect>
          <circle id="Oval-36" stroke="#3C73B9" cx="6" cy="7" r="1.5"></circle>
          <rect id="Rectangle-102-Copy" fill="#3C73B9" x="4" y="14" width="9" height="1" rx="0.5"></rect>
        </g>
      </g>
    </g>
  </g>
</svg>
