<?xml version="1.0" encoding="UTF-8"?>
<svg width="36px" height="36px" viewBox="0 0 36 36" version="1.1" xmlns="http://www.w3.org/2000/svg" xmlns:xlink="http://www.w3.org/1999/xlink">
    <!-- Generator: Sketch 48.2 (47327) - http://www.bohemiancoding.com/sketch -->
    <title>pop_oa_system_n</title>
    <desc>Created with Sketch.</desc>
    <defs></defs>
    <g id="*图标" stroke="none" stroke-width="1" fill="none" fill-rule="evenodd" transform="translate(-1317.000000, -1476.000000)">
        <g id="pop_oa_system_n" transform="translate(1317.000000, 1476.000000)">
            <rect id="Rectangle-2" x="0" y="0" width="36" height="36"></rect>
            <g id="Group-202" transform="translate(8.000000, 8.000000)">
                <circle id="Oval-20" stroke="#97A4B6" cx="6" cy="9" r="1.5"></circle>
                <rect id="Rectangle-90" fill="#97A4B6" x="10" y="7" width="6" height="1" rx="0.5"></rect>
                <rect id="Rectangle-90-Copy" fill="#97A4B6" x="10" y="10" width="6" height="1" rx="0.5"></rect>
                <path d="M5.5,3.5 L14.5,3.5 L14.5,1 C14.5,0.723857625 14.2761424,0.5 14,0.5 L6,0.5 C5.72385763,0.5 5.5,0.723857625 5.5,1 L5.5,3.5 Z" id="Rectangle-91" stroke="#97A4B6"></path>
                <rect id="Rectangle-91-Copy" stroke="#97A4B6" x="4.5" y="13.5" width="11" height="6" rx="1"></rect>
                <path d="M15.5822754,17 L15.5822754,16 L19,16 L19,4 L1,4 L1,16 L4.48974609,16 L4.48974609,17 L1,17 C0.44771525,17 0,16.5522847 0,16 L0,4 C0,3.44771525 0.44771525,3 1,3 L19,3 C19.5522847,3 20,3.44771525 20,4 L20,16 C20,16.5522847 19.5522847,17 19,17 L15.5822754,17 Z M15.5822754,17 L15.5822754,16 L19,16 L19,4 L1,4 L1,16 L4.48974609,16 L4.48974609,17 L1,17 C0.44771525,17 0,16.5522847 0,16 L0,4 C0,3.44771525 0.44771525,3 1,3 L19,3 C19.5522847,3 20,3.44771525 20,4 L20,16 C20,16.5522847 19.5522847,17 19,17 L15.5822754,17 Z" id="Combined-Shape" fill="#97A4B6" fill-rule="nonzero"></path>
            </g>
        </g>
    </g>
</svg>

