<?xml version="1.0" encoding="UTF-8"?>
<svg width="36px" height="36px" viewBox="0 0 36 36" version="1.1" xmlns="http://www.w3.org/2000/svg" xmlns:xlink="http://www.w3.org/1999/xlink">
  <!-- Generator: Sketch 51.1 (57501) - http://www.bohemiancoding.com/sketch -->
  <title>pop_iscsi_n</title>
  <desc>Created with Sketch.</desc>
  <defs></defs>
  <g id="uikit" stroke="none" stroke-width="1" fill="none" fill-rule="evenodd">
    <g id="*图标" transform="translate(-1340.000000, -854.000000)">
      <g id="pop_iscsi_n" transform="translate(1340.000000, 854.000000)">
        <rect id="Rectangle-2" x="0" y="0" width="36" height="36"></rect>
        <g id="Group-243" transform="translate(8.000000, 9.000000)">
          <path d="M17.5,17 L17.5,12.5 L19,12.5 C19.2761424,12.5 19.5,12.2761424 19.5,12 L19.5,1 C19.5,0.723857625 19.2761424,0.5 19,0.5 L1,0.5 C0.723857625,0.5 0.5,0.723857625 0.5,1 L0.5,12 C0.5,12.2761424 0.723857625,12.5 1,12.5 L2.5,12.5 L2.5,17 C2.5,17.2761424 2.72385763,17.5 3,17.5 L17,17.5 C17.2761424,17.5 17.5,17.2761424 17.5,17 Z" id="Combined-Shape" stroke="#97A4B6"></path>
          <rect id="Rectangle-58" stroke="#97A4B6" x="3.5" y="3.5" width="13" height="6" rx="1"></rect>
          <rect id="Rectangle-115" fill="#97A4B6" x="3" y="14" width="15" height="1"></rect>
          <rect id="Rectangle-58" fill="#97A4B6" x="7.5" y="3" width="1" height="6"></rect>
          <rect id="Rectangle-58" fill="#97A4B6" x="11.5" y="3" width="1" height="6"></rect>
        </g>
      </g>
    </g>
  </g>
</svg>
