<?xml version="1.0" encoding="UTF-8"?>
<svg width="36px" height="36px" viewBox="0 0 36 36" version="1.1" xmlns="http://www.w3.org/2000/svg" xmlns:xlink="http://www.w3.org/1999/xlink">
  <!-- Generator: Sketch 45.1 (43504) - http://www.bohemiancoding.com/sketch -->
  <title>Group 76 Copy 2</title>
  <desc>Created with Sketch.</desc>
  <defs></defs>
  <g id="Hybrid" stroke="none" stroke-width="1" fill="none" fill-rule="evenodd">
    <g id="Group-74-Copy">
      <rect id="Rectangle-2" x="0" y="0" width="36" height="36"></rect>
      <g id="Group-73" transform="translate(8.000000, 8.000000)" stroke="#97A4B6">
        <path d="M4.52945959,6.5 L15.4705404,6.5 C15.5520021,5.59314427 15.4866276,4.59164563 15.1771429,3.65720067 C14.5198506,1.6725998 12.9273703,0.5 10,0.5 C7.07262969,0.5 5.48014945,1.6725998 4.82285706,3.65720067 C4.51337238,4.59164563 4.44799793,5.59314427 4.52945984,6.50000006 Z" id="Path-36-Copy"></path>
        <rect id="Rectangle-40" x="0.5" y="6.5" width="19" height="13" rx="1"></rect>
        <path d="M8.78950607,12.3860644 L8.91422044,12.5560586 L8.40778764,15.5946554 C8.3681628,15.8324045 8.50903461,16 8.74869585,16 L11.2513041,16 C11.4931067,16 11.6323179,15.8352888 11.5922124,15.5946554 L11.0857796,12.5560586 L11.2104939,12.3860644 C11.3977115,12.1308739 11.5,11.8238194 11.5,11.5 C11.5,10.6715729 10.8284271,10 10,10 C9.17157288,10 8.5,10.6715729 8.5,11.5 C8.5,11.8238194 8.60228847,12.1308739 8.78950607,12.3860644 Z" id="Combined-Shape"></path>
      </g>
    </g>
  </g>
</svg>
