
<svg width="62px" height="60px" viewBox="0 0 62 60" version="1.1" xmlns="http://www.w3.org/2000/svg" xmlns:xlink="http://www.w3.org/1999/xlink">
  <!-- Generator: Sketch 43.2 (39069) - http://www.bohemiancoding.com/sketch -->
  <desc>Created with Sketch.</desc>
  <defs>
    <path d="M0.300710829,20.9786751 C0.686917574,9.39247279 10.4079804,0 22.0061566,0 L39.9938434,0 C51.5952233,0 61.3129775,9.38932566 61.6992892,20.9786751 L62,30 L61.6992892,39.0213249 C61.3130824,50.6075272 51.5920196,60 39.9938434,60 L22.0061566,60 C10.4047767,60 0.687022478,50.6106743 0.300710829,39.0213249 L0,30 L0.300710829,20.9786751 Z" id="path-1"></path>
    <path d="M6,11 L24,11 C24,11 25.9418945,0 15,0 C4.05810547,8.06937936e-16 6,11 6,11 Z" id="path-2"></path>
    <rect id="path-3" x="0" y="9" width="30" height="21" rx="1"></rect>
    <path d="M12.778814,20.327116 C11.7062453,19.6096444 11,18.3872984 11,17 C11,14.790861 12.790861,13 15,13 C17.209139,13 19,14.790861 19,17 C19,18.3872984 18.2937547,19.6096444 17.221186,20.327116 L17.8348703,24.009222 C17.9260689,24.5564136 17.5490248,25 17.009222,25 L12.990778,25 C12.4435864,25 12.0751625,24.5490248 12.1651297,24.009222 L12.778814,20.327116 Z" id="path-4"></path>
  </defs>
  <g id="云主机" stroke="none" stroke-width="1" fill="none" fill-rule="evenodd">
    <g id="*图标" transform="translate(-270.000000, -583.000000)">
      <g id="Group-19" transform="translate(270.000000, 583.000000)">
        <g id="Rectangle-11-Copy-2">
          <use fill="#FAFDFF" fill-rule="evenodd" xlink:href="#path-1"></use>
          <path stroke="#97A4B6" stroke-width="1" d="M0.800433282,20.9953326 C1.17761651,9.67983562 10.6764403,0.5 22.0061566,0.5 L39.9938434,0.5 C51.3267452,0.5 60.822278,9.67667031 61.1995667,20.9953326 L61.5002775,30.0166574 L61.1995667,39.0046674 C60.8223835,50.3201644 51.3235597,59.5 39.9938434,59.5 L22.0061566,59.5 C10.6732548,59.5 1.17772202,50.3233297 0.800433282,39.0046674 L0.499722453,29.9833426 L0.800433282,20.9953326 L0.800433282,20.9953326 Z"></path>
        </g>
        <g id="Group-17" transform="translate(16.000000, 15.000000)">
          <g id="Path-36-Copy">
            <use fill="#FAFDFF" fill-rule="evenodd" xlink:href="#path-2"></use>
            <path stroke="#97A4B6" stroke-width="1" d="M6.43782645,10.5 C6.4354969,10.4782697 6.43315521,10.4558509 6.4308094,10.4327558 C6.27719935,8.92042936 6.366165,7.23218983 6.87288776,5.65274324 C7.9105217,2.41845511 10.4343274,0.5 15,0.5 C19.5656726,0.5 22.0894783,2.41845511 23.1271122,5.65274324 C23.633835,7.23218983 23.7228007,8.92042936 23.5691906,10.4327558 C23.5668448,10.4558509 23.5645031,10.4782697 23.5621735,10.5 L6.43782645,10.5 Z"></path>
          </g>
          <g id="Rectangle-40">
            <use fill="#FAFDFF" fill-rule="evenodd" xlink:href="#path-3"></use>
            <rect stroke="#97A4B6" stroke-width="1" x="0.5" y="9.5" width="29" height="20" rx="1"></rect>
          </g>
          <g id="Combined-Shape">
            <use fill-opacity="0.39770154" fill="#97A4B6" fill-rule="evenodd" xlink:href="#path-4"></use>
            <path stroke="#97A4B6" stroke-width="1" d="M13.0568145,19.9115252 C12.0911592,19.265571 11.5,18.1833206 11.5,17 C11.5,15.0670034 13.0670034,13.5 15,13.5 C16.9329966,13.5 18.5,15.0670034 18.5,17 C18.5,18.1833206 17.9088408,19.265571 16.9431855,19.9115252 L16.6749312,20.0909682 L16.727989,20.4093155 L17.3416734,24.0914215 C17.3818515,24.3324901 17.241397,24.5 17.009222,24.5 L12.990778,24.5 C12.7577727,24.5 12.6182978,24.3315944 12.6583266,24.0914215 L13.272011,20.4093155 L13.3250688,20.0909682 L13.0568145,19.9115252 Z"></path>
          </g>
        </g>
      </g>
    </g>
  </g>
</svg>
