<svg width="24px" height="25px" viewBox="310 348 24 25" version="1.1" xmlns="http://www.w3.org/2000/svg" xmlns:xlink="http://www.w3.org/1999/xlink">
  <!-- Generator: Sketch 42 (36781) - http://www.bohemiancoding.com/sketch -->
  <desc>Created with Sketch.</desc>
  <defs></defs>
  <g id="Group-25" stroke="none" stroke-width="1" fill="none" fill-rule="evenodd" transform="translate(310.000000, 348.000000)">
    <g id="Icon-24px">
      <polygon id="Bounds" points="0 0 24 0 24 24 0 24"></polygon>
      <path d="M12,2 C6.48,2 2,6.48 2,12 C2,17.52 6.48,22 12,22 C17.52,22 22,17.52 22,12 C22,6.48 17.52,2 12,2 L12,2 Z M3,12 C3,7.0275 7.0275,3 12,3 C16.9725,3 21,7.0275 21,12 C21,16.9725 16.9725,21 12,21 C7.0275,21 3,16.9725 3,12 Z" id="Shape" fill="#DAE0E6"></path>
    </g>
    <path d="M12,7 C9.24,7 7,9.24 7,12 C7,14.76 9.24,17 12,17 C14.76,17 17,14.76 17,12 C17,9.24 14.76,7 12,7 L12,7 Z" id="Path" fill="#007FDF"></path>
  </g>
</svg>
