<svg width="24px" height="25px" viewBox="430 348 24 25" version="1.1" xmlns="http://www.w3.org/2000/svg" xmlns:xlink="http://www.w3.org/1999/xlink">
  <!-- Generator: Sketch 42 (36781) - http://www.bohemiancoding.com/sketch -->
  <desc>Created with Sketch.</desc>
  <defs></defs>
  <g id="Group-26" stroke="none" stroke-width="1" fill="none" fill-rule="evenodd" transform="translate(430.000000, 348.000000)">
    <polygon id="Bounds" points="0 0 24 0 24 24 0 24"></polygon>
    <path d="M12,2 C6.48,2 2,6.48 2,12 C2,17.52 6.48,22 12,22 C17.52,22 22,17.52 22,12 C22,6.48 17.52,2 12,2 L12,2 Z M12,21 C7.0275,21 3,16.9725 3,12 C3,7.0275 7.0275,3 12,3 C16.9725,3 21,7.0275 21,12 C21,16.9725 16.9725,21 12,21 L12,21 Z" id="Shape" fill="#DAE0E6"></path>
  </g>
</svg>
