<?xml version="1.0" encoding="UTF-8"?>
<svg width="49px" height="49px" viewBox="0 0 49 49" version="1.1" xmlns="http://www.w3.org/2000/svg" xmlns:xlink="http://www.w3.org/1999/xlink">
  <!-- Generator: Sketch 46.2 (44496) - http://www.bohemiancoding.com/sketch -->
  <title>Combined Shape Copy 3</title>
  <desc>Created with Sketch.</desc>
  <defs></defs>
  <g id="2.1风格调整" stroke="none" stroke-width="1" fill="none" fill-rule="evenodd">
    <path d="M24,24 L16,24 C15.4477153,24 15,24.4477153 15,25 C15,25.5522847 15.4477153,26 16,26 L24,26 L24,34 C24,34.5522847 24.4477153,35 25,35 C25.5522847,35 26,34.5522847 26,34 L26,26 L34,26 C34.5522847,26 35,25.5522847 35,25 C35,24.4477153 34.5522847,24 34,24 L26,24 L26,16 C26,15.4477153 25.5522847,15 25,15 C24.4477153,15 24,15.4477153 24,16 L24,24 Z M24.5,49 C10.9690236,49 0,38.0309764 0,24.5 C0,10.9690236 10.9690236,0 24.5,0 C38.0309764,0 49,10.9690236 49,24.5 C49,38.0309764 38.0309764,49 24.5,49 Z" id="Combined-Shape-Copy-3" fill="#C6D3DC"></path>
  </g>
</svg>
