<?xml version="1.0" encoding="UTF-8"?>
<svg width="62px" height="60px" viewBox="0 0 62 60" version="1.1" xmlns="http://www.w3.org/2000/svg" xmlns:xlink="http://www.w3.org/1999/xlink">
  <!-- Generator: Sketch 44.1 (41455) - http://www.bohemiancoding.com/sketch -->
  <title>Rectangle 11</title>
  <desc>Created with Sketch.</desc>
  <defs>
    <path d="M780.300711,1033.97868 C780.686918,1022.39247 790.40798,1013 802.006157,1013 L819.993843,1013 C831.595223,1013 841.312978,1022.38933 841.699289,1033.97868 L842,1043 L841.699289,1052.02132 C841.313082,1063.60753 831.59202,1073 819.993843,1073 L802.006157,1073 C790.404777,1073 780.687022,1063.61067 780.300711,1052.02132 L780,1043 L780.300711,1033.97868 Z" id="path-1"></path>
    <path d="M20.5,-8.49298357 L20.5,19.5 L20.5,19.5 C20.5,20.0522847 20.0522847,20.5 19.5,20.5 L14.5378979,20.5 L14.5378979,20.5 C13.9856132,20.5 13.5378979,20.0522847 13.5378979,19.5 L13.5378979,0.478408532 L13.5378979,0.478408532 C13.5378979,-0.0738762174 13.0901827,-0.521591468 12.5378979,-0.521591468 L10.4955143,-0.521591468 L10.4955143,-0.521591468 C9.94322957,-0.521591468 9.49551432,-0.969306718 9.49551432,-1.52159147 C9.49551432,-1.83096333 9.63870605,-2.12291546 9.88333138,-2.31230764 L18.8878171,-9.28369974 L18.8878171,-9.28369974 C19.3245175,-9.62179903 19.9526169,-9.54186698 20.2907162,-9.1051665 C20.4263843,-8.92993296 20.5,-8.71459727 20.5,-8.49298357 Z" id="path-2"></path>
    <path d="M20.5,6.51465728 L20.5,34.5 L20.5,34.5 C20.5,35.0522847 20.0522847,35.5 19.5,35.5 L14.5378979,35.5 L14.5378979,35.5 C13.9856132,35.5 13.5378979,35.0522847 13.5378979,34.5 L13.5378979,15.7883381 L13.5378979,15.7883381 C13.5378979,15.2360534 13.0901827,14.7883381 12.5378979,14.7883381 L10.4185543,14.7883381 L10.4185543,14.7883381 C9.86626958,14.7883381 9.41855433,14.3406229 9.41855433,13.7883381 C9.41855433,13.484755 9.5564626,13.1976093 9.79341266,13.0078268 L18.8748583,5.73414598 L18.8748583,5.73414598 C19.3059228,5.38888977 19.9352551,5.45845112 20.2805113,5.88951561 C20.4225858,6.06690064 20.5,6.28738956 20.5,6.51465728 Z" id="path-3"></path>
  </defs>
  <g id="Hybrid" stroke="none" stroke-width="1" fill="none" fill-rule="evenodd">
    <g id="*导航_normal&amp;selected-间距调整" transform="translate(-780.000000, -1013.000000)">
      <g id="Rectangle-11">
        <use fill="#FAFDFF" fill-rule="evenodd" xlink:href="#path-1"></use>
        <path stroke="#97A4B6" stroke-width="1" d="M780.800433,1033.99533 L780.499722,1042.98334 L780.800433,1052.00467 C781.177722,1063.32333 790.673255,1072.5 802.006157,1072.5 L819.993843,1072.5 C831.32356,1072.5 840.822383,1063.32016 841.199567,1052.00467 L841.500278,1043.01666 L841.199567,1033.99533 C840.822278,1022.67667 831.326745,1013.5 819.993843,1013.5 L802.006157,1013.5 C790.67644,1013.5 781.177617,1022.67984 780.800433,1033.99533 Z"></path>
      </g>
      <g id="Group-21" transform="translate(796.000000, 1030.000000)">
        <g id="Rectangle-49" transform="translate(15.000000, 5.500000) rotate(90.000000) translate(-15.000000, -5.500000) ">
          <use fill="#FAFDFF" fill-rule="evenodd" xlink:href="#path-2"></use>
          <path stroke="#97A4B6" stroke-width="1" d="M20,-8.49298357 C20,-8.60379042 19.9631921,-8.71145827 19.8953581,-8.79907503 C19.7263084,-9.01742527 19.4122588,-9.0573913 19.1939085,-8.88834165 L10.1894228,-1.91694955 C10.0671102,-1.82225346 9.99551432,-1.6762774 9.99551432,-1.52159147 C9.99551432,-1.24544909 10.2193719,-1.02159147 10.4955143,-1.02159147 L12.5378979,-1.02159147 C13.366325,-1.02159147 14.0378979,-0.350018592 14.0378979,0.478408532 L14.0378979,19.5 C14.0378979,19.7761424 14.2617555,20 14.5378979,20 L19.5,20 C19.7761424,20 20,19.7761424 20,19.5 L20,-8.49298357 Z"></path>
        </g>
        <g id="Rectangle-49" transform="translate(15.000000, 20.500000) scale(-1, -1) rotate(90.000000) translate(-15.000000, -20.500000) ">
          <use fill-opacity="0.39770154" fill="#97A4B6" fill-rule="evenodd" xlink:href="#path-3"></use>
          <path stroke="#97A4B6" stroke-width="1" d="M20,6.51465728 C20,6.40102342 19.9612929,6.29077896 19.8902557,6.20208645 C19.7176275,5.9865542 19.4029614,5.95177353 19.1874292,6.12440163 L10.1059835,13.3980825 C9.98750846,13.4929737 9.91855433,13.6365466 9.91855433,13.7883381 C9.91855433,14.0644805 10.142412,14.2883381 10.4185543,14.2883381 L12.5378979,14.2883381 C13.366325,14.2883381 14.0378979,14.959911 14.0378979,15.7883381 L14.0378979,34.5 C14.0378979,34.7761424 14.2617555,35 14.5378979,35 L19.5,35 C19.7761424,35 20,34.7761424 20,34.5 L20,6.51465728 Z"></path>
        </g>
      </g>
    </g>
  </g>
</svg>
