<?xml version="1.0" encoding="UTF-8"?>
<svg width="62px" height="60px" viewBox="0 0 62 60" version="1.1" xmlns="http://www.w3.org/2000/svg" xmlns:xlink="http://www.w3.org/1999/xlink">
  <!-- Generator: Sketch 45.2 (43514) - http://www.bohemiancoding.com/sketch -->
  <title>Group 114 Copy</title>
  <desc>Created with Sketch.</desc>
  <defs>
    <path d="M0.300710829,20.9786751 C0.686917574,9.39247279 10.4079804,0 22.0061566,0 L39.9938434,0 C51.5952233,0 61.3129775,9.38932566 61.6992892,20.9786751 L62,30 L61.6992892,39.0213249 C61.3130824,50.6075272 51.5920196,60 39.9938434,60 L22.0061566,60 C10.4047767,60 0.687022478,50.6106743 0.300710829,39.0213249 L0,30 L0.300710829,20.9786751 Z" id="path-1"></path>
    <rect id="path-2" x="0" y="17" width="12" height="12" rx="1"></rect>
  </defs>
  <g id="UI-KIT" stroke="none" stroke-width="1" fill="none" fill-rule="evenodd">
    <g id="Group-114-Copy">
      <g id="Rectangle-11-Copy">
        <use fill="#FAFDFF" fill-rule="evenodd" xlink:href="#path-1"></use>
        <path stroke="#97A4B6" stroke-width="1" d="M0.800433282,20.9953326 L0.499722453,29.9833426 L0.800433282,39.0046674 C1.17772202,50.3233297 10.6732548,59.5 22.0061566,59.5 L39.9938434,59.5 C51.3235597,59.5 60.8223835,50.3201644 61.1995667,39.0046674 L61.5002775,30.0166574 L61.1995667,20.9953326 C60.822278,9.67667031 51.3267452,0.5 39.9938434,0.5 L22.0061566,0.5 C10.6764403,0.5 1.17761651,9.67983562 0.800433282,20.9953326 Z"></path>
      </g>
      <g id="Group-113" transform="translate(16.500000, 15.500000)">
        <g id="Rectangle-6">
          <use fill-opacity="0.39770154" fill="#97A4B6" fill-rule="evenodd" xlink:href="#path-2"></use>
          <rect stroke="#97A4B6" stroke-width="1" x="0.5" y="17.5" width="11" height="11" rx="1"></rect>
        </g>
        <rect id="Rectangle-6" stroke="#97A4B6" x="0.5" y="0.5" width="11" height="11" rx="1"></rect>
        <rect id="Rectangle-51" fill="#97A4B6" x="15" y="3" width="14" height="1" rx="0.5"></rect>
        <rect id="Rectangle-51-Copy-2" fill="#97A4B6" x="15" y="20" width="14" height="1" rx="0.5"></rect>
        <rect id="Rectangle-51-Copy" fill="#97A4B6" x="15" y="8" width="10" height="1" rx="0.5"></rect>
        <rect id="Rectangle-51-Copy-3" fill="#97A4B6" x="15" y="25" width="10" height="1" rx="0.5"></rect>
      </g>
    </g>
  </g>
</svg>
