
<svg width="63px" height="61px" viewBox="842 512 63 61" version="1.1" xmlns="http://www.w3.org/2000/svg" xmlns:xlink="http://www.w3.org/1999/xlink">
  <!-- Generator: Sketch 42 (36781) - http://www.bohemiancoding.com/sketch -->
  <desc>Created with Sketch.</desc>
  <defs>
    <path d="M0.300710829,20.9786751 C0.686917574,9.39247279 10.4079804,0 22.0061566,0 L39.9938434,0 C51.5952233,0 61.3129775,9.38932566 61.6992892,20.9786751 L62,30 L61.6992892,39.0213249 C61.3130824,50.6075272 51.5920196,60 39.9938434,60 L22.0061566,60 C10.4047767,60 0.687022478,50.6106743 0.300710829,39.0213249 L0,30 L0.300710829,20.9786751 Z" id="path-1"></path>
    <mask id="mask-2" maskContentUnits="userSpaceOnUse" maskUnits="objectBoundingBox" x="0" y="0" width="62" height="60" fill="white">
      <use xlink:href="#path-1"></use>
    </mask>
    <path d="M13.3987048,30 C23.9621594,26.4274699 25.3029111,20.8901205 25.6740634,17.88 C26.0466543,14.8684337 27.0456521,6.2349996 27.0456521,6.2349996 C27.1096606,5.68281488 26.7288369,5.12289555 26.2029398,4.98478353 C26.2029398,4.98478353 21.9881158,3.90688408 20.2668457,3.24682617 C18.5455756,2.58676827 14.3946379,0.450642749 14.3946379,0.450642749 C13.905776,0.201759631 13.1254752,0.214726032 12.6342561,0.486784801 C12.6342561,0.486784801 8.93388864,2.57963294 7.17370605,3.24682617 C5.41352347,3.9140194 0.819530082,4.95348305 0.819530082,4.95348305 C0.280215485,5.07871799 -0.107051969,5.62590833 -0.0448334276,6.18064618 C-0.0448334276,6.18064618 0.921945709,14.8192771 1.2815894,17.8308434 C1.6412331,20.8438554 2.84963592,26.3855422 13.3987048,30 Z" id="path-3"></path>
    <mask id="mask-4" maskContentUnits="userSpaceOnUse" maskUnits="objectBoundingBox" x="0" y="0" width="26.9991414" height="29.5899499" fill="white">
      <use xlink:href="#path-3"></use>
    </mask>
    <path d="M13.4441759,24 C19.3602185,21.8564819 20.1111039,18.5340723 20.318967,16.728 C20.5276358,14.9210602 21.045349,10.1265138 21.045349,10.1265138 C21.1042678,9.58228945 20.7274395,9.00799978 20.1992542,8.84119954 C20.1992542,8.84119954 17.6386328,8.04603162 16.855957,7.7244873 C16.0732813,7.40294299 14.3906745,6.47741445 14.3906745,6.47741445 C13.9021997,6.21374573 13.1144511,6.21214522 12.6259025,6.47464994 C12.6259025,6.47464994 10.8344959,7.45525639 10.1715088,7.7244873 C9.50852168,7.99371822 6.79836911,8.81741639 6.79836911,8.81741639 C6.27589029,8.97798113 5.89870924,9.55140425 5.95556918,10.0941229 C5.95556918,10.0941229 6.45659081,14.8915663 6.65800858,16.698506 C6.85942634,18.5063133 7.53619003,21.8313253 13.4441759,24 Z" id="path-5"></path>
    <mask id="mask-6" maskContentUnits="userSpaceOnUse" maskUnits="objectBoundingBox" x="0" y="0" width="14.9998178" height="17.5868881" fill="white">
      <use xlink:href="#path-5"></use>
    </mask>
  </defs>
  <g id="Group-54" stroke="none" stroke-width="1" fill="none" fill-rule="evenodd" transform="translate(842.000000, 512.000000)">
    <use id="Rectangle-11-Copy" stroke="#97A4B6" mask="url(#mask-2)" stroke-width="2" fill="#FAFDFF" xlink:href="#path-1"></use>
    <g id="Group-53" transform="translate(18.000000, 15.000000)" stroke-width="2" stroke="#97A4B6">
      <g id="Group-110">
        <use id="Stroke-3" mask="url(#mask-4)" xlink:href="#path-3"></use>
        <use id="Stroke-3" mask="url(#mask-6)" fill-opacity="0.39770154" fill="#97A4B6" xlink:href="#path-5"></use>
      </g>
    </g>
  </g>
</svg>
