
<svg width="36px" height="36px" viewBox="61 341 36 36" version="1.1" xmlns="http://www.w3.org/2000/svg" xmlns:xlink="http://www.w3.org/1999/xlink">
  <!-- Generator: Sketch 42 (36781) - http://www.bohemiancoding.com/sketch -->
  <desc>Created with Sketch.</desc>
  <defs>
    <path d="M8.93246987,20 C15.974773,17.6183133 16.8686074,13.926747 17.1160423,11.92 C17.3644362,9.91228916 17.9928112,4.48080006 17.9928112,4.48080006 C18.0562624,3.93366284 17.6727785,3.37693087 17.1384032,3.23554296 C17.1384032,3.23554296 14.6587438,2.60458939 13.5112305,2.16455078 C12.3637171,1.72451218 9.89406984,0.450712883 9.89406984,0.450712883 C9.40377733,0.201791031 8.61999573,0.215531666 8.12511953,0.487997793 C8.12511953,0.487997793 5.95592576,1.71975529 4.7824707,2.16455078 C3.60901565,2.60934627 0.873915192,3.22476617 0.873915192,3.22476617 C0.333464738,3.35108905 -0.0542324368,3.90342834 0.00651667401,4.44475075 C0.00651667401,4.44475075 0.614630473,9.87951807 0.854392937,11.8872289 C1.0941554,13.8959036 1.89975728,17.5903614 8.93246987,20 Z" id="path-1"></path>
    <mask id="mask-2" maskContentUnits="userSpaceOnUse" maskUnits="objectBoundingBox" x="0" y="0" width="17.9994276" height="19.7266332" fill="white">
      <use xlink:href="#path-1"></use>
    </mask>
    <path d="M8.96278393,16 C12.9068123,14.570988 13.4074026,12.3560482 13.545978,11.152 C13.6850906,9.94737349 13.9937162,7.08762901 13.9937162,7.08762901 C14.0531629,6.53890279 13.6835834,5.96288957 13.1487897,5.79317837 C13.1487897,5.79317837 11.7590885,5.36402108 11.2373047,5.1496582 C10.7155208,4.93529533 9.87903131,4.47009479 9.87903131,4.47009479 C9.39584313,4.21046861 8.61484208,4.21044459 8.12830394,4.47042931 C8.12830394,4.47042931 7.22299727,4.97017093 6.78100586,5.1496582 C6.33901445,5.32914548 4.85532943,5.77811266 4.85532943,5.77811266 C4.32857621,5.94047539 3.94902899,6.52569051 4.00571206,7.06622492 C4.00571206,7.06622492 4.30439388,9.92771084 4.43867239,11.1323373 C4.5729509,12.3375422 5.02412669,14.5542169 8.96278393,16 Z" id="path-3"></path>
    <mask id="mask-4" maskContentUnits="userSpaceOnUse" maskUnits="objectBoundingBox" x="0" y="0" width="9.99987852" height="11.7245921" fill="white">
      <use xlink:href="#path-3"></use>
    </mask>
  </defs>
  <g id="Group-111" stroke="none" stroke-width="1" fill="none" fill-rule="evenodd" transform="translate(61.000000, 341.000000)">
    <rect id="Rectangle-2" x="0" y="0" width="36" height="36"></rect>
    <g id="Group-110" transform="translate(9.000000, 8.000000)" stroke="#97A4B6" stroke-width="2">
      <use id="Stroke-3" mask="url(#mask-2)" xlink:href="#path-1"></use>
      <use id="Stroke-3" mask="url(#mask-4)" xlink:href="#path-3"></use>
    </g>
  </g>
</svg>
