<?xml version="1.0" encoding="UTF-8"?>
<svg width="62px" height="60px" viewBox="0 0 62 60" version="1.1" xmlns="http://www.w3.org/2000/svg" xmlns:xlink="http://www.w3.org/1999/xlink">
  <!-- Generator: Sketch 44.1 (41455) - http://www.bohemiancoding.com/sketch -->
  <title>Group 54</title>
  <desc>Created with Sketch.</desc>
  <defs>
    <path d="M0.300710829,20.9786751 C0.686917574,9.39247279 10.4079804,0 22.0061566,0 L39.9938434,0 C51.5952233,0 61.3129775,9.38932566 61.6992892,20.9786751 L62,30 L61.6992892,39.0213249 C61.3130824,50.6075272 51.5920196,60 39.9938434,60 L22.0061566,60 C10.4047767,60 0.687022478,50.6106743 0.300710829,39.0213249 L0,30 L0.300710829,20.9786751 Z" id="path-1"></path>
    <path d="M14.4441759,24 C20.3602185,21.8564819 21.1111039,18.5340723 21.318967,16.728 C21.5276358,14.9210602 22.045349,10.1265138 22.045349,10.1265138 C22.1042678,9.58228945 21.7274395,9.00799978 21.1992542,8.84119954 C21.1992542,8.84119954 18.6386328,8.04603162 17.855957,7.7244873 C17.0732813,7.40294299 15.3906745,6.47741445 15.3906745,6.47741445 C14.9021997,6.21374573 14.1144511,6.21214522 13.6259025,6.47464994 C13.6259025,6.47464994 11.8344959,7.45525639 11.1715088,7.7244873 C10.5085217,7.99371822 7.79836911,8.81741639 7.79836911,8.81741639 C7.27589029,8.97798113 6.89870924,9.55140425 6.95556918,10.0941229 C6.95556918,10.0941229 7.45659081,14.8915663 7.65800858,16.698506 C7.85942634,18.5063133 8.53619003,21.8313253 14.4441759,24 Z" id="path-2"></path>
  </defs>
  <g id="Hybrid" stroke="none" stroke-width="1" fill="none" fill-rule="evenodd">
    <g id="*导航_normal&amp;selected-间距调整" transform="translate(-780.000000, -523.000000)">
      <g id="Group-54" transform="translate(780.000000, 523.000000)">
        <g id="Rectangle-11-Copy">
          <use fill="#FAFDFF" fill-rule="evenodd" xlink:href="#path-1"></use>
          <path stroke="#97A4B6" stroke-width="1" d="M0.800433282,20.9953326 L0.499722453,29.9833426 L0.800433282,39.0046674 C1.17772202,50.3233297 10.6732548,59.5 22.0061566,59.5 L39.9938434,59.5 C51.3235597,59.5 60.8223835,50.3201644 61.1995667,39.0046674 L61.5002775,30.0166574 L61.1995667,20.9953326 C60.822278,9.67667031 51.3267452,0.5 39.9938434,0.5 L22.0061566,0.5 C10.6764403,0.5 1.17761651,9.67983562 0.800433282,20.9953326 Z"></path>
        </g>
        <g id="Group-53" transform="translate(17.000000, 15.000000)">
          <g id="Group-110">
            <path d="M14.3997507,29.4714794 C22.6709507,26.6384877 25.5548317,22.8713862 26.1778467,17.8186081 C26.3074371,16.7711592 26.5207184,14.9802844 26.7943202,12.6508714 C26.802594,12.5804241 26.802594,12.5804241 26.8108666,12.5099663 C26.9734947,11.1247694 27.1467399,9.64058617 27.3193163,8.15639677 C27.3797186,7.63692565 27.4170549,7.31534661 27.4859178,6.72167356 C27.5375218,6.27643011 27.5375218,6.27643011 27.5489779,6.17742577 C27.5842713,5.87295817 27.361497,5.54337916 27.0790568,5.46919347 C27.0260935,5.45564801 26.9281817,5.43039411 26.7909646,5.39465975 C26.5625822,5.33518394 26.3081761,5.26819796 26.0342292,5.19514599 C25.2512953,4.98636513 24.4682575,4.77071302 23.7367196,4.55965406 C23.4815625,4.48603765 23.2366667,4.41410842 23.0033236,4.34415 C22.1984211,4.10283273 21.5492378,3.89061766 21.0878215,3.71367768 C20.4947233,3.48624148 19.6011747,3.08242462 18.4813745,2.54457279 C18.3257904,2.46973297 18.3257904,2.46973297 18.1706713,2.39469977 C17.493256,2.06659668 16.7849997,1.71529104 16.0881756,1.36401369 C15.8443243,1.24108536 15.6192879,1.12692507 15.4183713,1.02444567 C15.2119469,0.918949685 15.2119469,0.918949685 15.1677906,0.896221373 C14.8252609,0.721837062 14.2207527,0.733521506 13.8804038,0.92199889 C13.7149708,1.01556427 13.4229048,1.17857739 13.0411982,1.38794991 C12.40512,1.73684956 11.7536206,2.08578698 11.1234326,2.41178716 C10.9711893,2.49054356 10.8217402,2.56714508 10.6754011,2.64139317 C9.71619795,3.12806402 8.92503233,3.49675186 8.35092583,3.71436564 C7.90034599,3.88515691 7.26081897,4.08436148 6.46087868,4.30795303 C6.14848462,4.39527039 5.81423985,4.48554779 5.46110073,4.57823652 C4.68819237,4.78110245 3.86092444,4.98625567 3.03377368,5.18339396 C2.744361,5.25237089 2.4755904,5.31543007 2.23430802,5.37127197 C2.08932704,5.40482607 1.98588242,5.42848174 1.93262656,5.44052431 C1.63987305,5.50850498 1.41816654,5.82280347 1.45206453,6.12503661 C1.46313737,6.22397771 1.46313737,6.22397771 1.51306231,6.66937997 C1.57968278,7.26326383 1.61580219,7.58495667 1.67423312,8.1046118 C1.84117719,9.58932779 2.00874807,11.074038 2.16602168,12.4597292 C2.17376781,12.5279735 2.17376781,12.5279735 2.18151496,12.5962082 C2.44644795,14.9295047 2.65285936,16.7231407 2.77806511,17.7715823 C3.39089831,22.9057577 6.15893033,26.6125611 14.3997507,29.4714794 Z" id="Stroke-3" stroke="#97A4B6"></path>
            <g id="Stroke-3">
              <use fill-opacity="0.39770154" fill="#97A4B6" fill-rule="evenodd" xlink:href="#path-2"></use>
              <path stroke="#97A4B6" stroke-width="1" d="M14.4452838,23.4670315 C18.9325304,21.8011395 20.4833093,19.6157707 20.8222681,16.6706403 C20.8928408,16.0595253 21.0031504,15.0689507 21.1423206,13.801227 L21.1521416,13.7117428 C21.2394784,12.915757 21.3324642,12.0628699 21.4250545,11.2099765 C21.4774904,10.7266604 21.4774904,10.7266604 21.5144272,10.3855059 C21.5421037,10.1296516 21.5421037,10.1296516 21.5482536,10.0726973 C21.5815196,9.76542446 21.3498125,9.41308542 21.0509708,9.31870561 C20.9386541,9.28382711 20.7426834,9.22246441 20.4908786,9.14275111 C20.0711678,9.00988419 19.6514009,8.87497427 19.2592405,8.74609884 C19.1759789,8.71870559 19.1759789,8.71870559 19.0928858,8.69123565 C18.4361356,8.47384115 17.9452631,8.30172701 17.665953,8.1869789 C17.4016194,8.07838351 17.0369104,7.90439738 16.5927827,7.67884232 C16.515412,7.63947123 16.515412,7.63947123 16.4383951,7.59999219 C16.1465839,7.45015492 15.8427814,7.28989701 15.5445763,7.12967249 C15.3656267,7.03352359 15.2280664,6.95862 15.1531752,6.9174077 C14.8122676,6.73339275 14.2026698,6.73235029 13.8659841,6.91323952 C13.7897131,6.95498986 13.6559449,7.02763919 13.4823778,7.12092717 C13.1931143,7.27639894 12.8996023,7.43189983 12.6193654,7.57725193 C12.5629061,7.60650601 12.5629061,7.60650601 12.5062883,7.63571518 C12.0015825,7.89579462 11.609397,8.08632061 11.3596328,8.18774681 C11.1032359,8.29186643 10.5766909,8.46948524 9.839255,8.7051985 C9.77419403,8.72597775 9.77419403,8.72597775 9.70904976,8.74671972 C9.32271836,8.86963775 8.90911448,8.99887764 8.49555545,9.12653344 C8.24743794,9.2031214 8.05436084,9.26219612 7.9452466,9.29535676 C7.65206713,9.38545475 7.42080367,9.73617118 7.45286461,10.0421878 C7.45880043,10.0990253 7.45880043,10.0990253 7.48557609,10.3549665 C7.52130945,10.696236 7.52130945,10.696236 7.57203362,11.1797142 C7.66159976,12.0328946 7.75153658,12.8860692 7.83599322,13.6823258 L7.84518786,13.7689914 C7.97996699,15.0390577 8.08673538,16.0313255 8.15493382,16.6431408 C8.48851353,19.6371559 9.97612116,21.7868625 14.4452838,23.4670315 Z"></path>
            </g>
          </g>
        </g>
      </g>
    </g>
  </g>
</svg>
