<?xml version="1.0" encoding="UTF-8"?>
<svg width="36px" height="36px" viewBox="0 0 36 36" version="1.1" xmlns="http://www.w3.org/2000/svg" xmlns:xlink="http://www.w3.org/1999/xlink">
  <!-- Generator: Sketch 45.1 (43504) - http://www.bohemiancoding.com/sketch -->
  <title>Group 4 Copy 17</title>
  <desc>Created with Sketch.</desc>
  <defs></defs>
  <g id="Hybrid" stroke="none" stroke-width="1" fill="none" fill-rule="evenodd">
    <g id="Group-111-Copy-2">
      <rect id="Rectangle-2" x="0" y="0" width="36" height="36"></rect>
      <g id="Group-110" transform="translate(9.000000, 8.000000)" stroke="#97A4B6">
        <path d="M8.93351368,19.4713044 C14.3436541,17.6063478 16.2134293,15.1545644 16.6198256,11.8586081 C16.7044493,11.1746138 16.8384322,10.0510656 17.0081876,8.60720618 L17.019702,8.50924579 C17.1247297,7.61547958 17.2365677,6.65782578 17.3479416,5.70016539 C17.4110159,5.15748094 17.4110159,5.15748094 17.4554489,4.7744197 C17.4887432,4.48713597 17.4887432,4.48713597 17.4961399,4.4232013 C17.530793,4.12438919 17.305943,3.79707687 17.0151062,3.7201024 C16.8820969,3.68625795 16.6506392,3.62607887 16.3534068,3.54659937 C15.8579524,3.4141156 15.3623761,3.27646635 14.8990123,3.14056544 C14.6990776,3.08192617 14.5091101,3.02474949 14.3305746,2.96933919 C13.9310996,2.84535807 13.5950893,2.73221042 13.3322062,2.63140229 C12.9519057,2.4855679 12.4213677,2.24869916 11.7745785,1.9409953 C11.660334,1.88653468 11.660334,1.88653468 11.5465768,1.83189859 C11.12044,1.6268748 10.6766601,1.40746489 10.2411123,1.18808525 C9.97975496,1.05644304 9.77898024,0.953941956 9.66772069,0.896544758 C9.32367791,0.721873999 8.7149212,0.734042195 8.37201225,0.922789676 C8.26896911,0.981301815 8.08735122,1.08284005 7.84950938,1.21313029 C7.45325947,1.43019677 7.04575128,1.64730126 6.64904775,1.85028931 C6.53356886,1.90937836 6.42044294,1.96652108 6.30999121,2.02150866 C5.77496349,2.28786827 5.31843233,2.49610996 4.95969048,2.63209025 C4.70462035,2.728774 4.37591733,2.83503598 3.98175298,2.95021202 C3.74766709,3.01861265 3.49250082,3.08955086 3.21944565,3.16247758 C2.72985275,3.29323651 2.2062673,3.42426344 1.68281675,3.54938438 C1.36879115,3.62444625 1.12424311,3.68094124 0.987716047,3.71164333 C0.695774806,3.77988059 0.470707887,4.09769816 0.503415737,4.3891511 C0.510557081,4.45297395 0.510557081,4.45297395 0.542767738,4.74035678 C0.585753297,5.12354916 0.585753297,5.12354916 0.646769013,5.66641848 C0.754505973,6.62440625 0.862677907,7.58238783 0.964243628,8.47646268 L0.975024075,8.57133981 C1.13941759,10.0177999 1.2690955,11.14322 1.35086864,11.8279678 C1.7507802,15.1783348 3.54447464,17.589938 8.93351368,19.4713044 Z" id="Stroke-3"></path>
        <path d="M8.9638875,15.4666404 C11.8483943,14.3822762 12.831624,12.9857919 13.0492791,11.0946403 C13.0940973,10.7065424 13.1593151,10.1224595 13.2395462,9.39319481 L13.2467522,9.32767184 C13.30191,8.82595587 13.3605794,8.28835065 13.4189605,7.7507381 C13.4539895,7.42816733 13.4811395,7.17726409 13.4966248,7.03377624 C13.5308005,6.71831512 13.3023529,6.36648236 13.0012579,6.27091718 C12.934363,6.25025919 12.8180584,6.2139511 12.66873,6.16666301 C12.4198052,6.08783552 12.1708079,6.00741953 11.9379215,5.93001035 C11.8717754,5.90798109 11.8717754,5.90798109 11.805825,5.88583037 C11.4773424,5.7752502 11.2195162,5.68290057 11.0473007,5.61214979 C10.9027285,5.55275564 10.7330875,5.47476255 10.5422356,5.38119302 C10.4696588,5.34544168 10.4696588,5.34544168 10.3979327,5.30950732 C10.2226826,5.22137663 10.0428027,5.12731514 9.86776697,5.03329043 C9.762661,4.97683019 9.68216003,4.93272796 9.64237161,4.91054023 C9.30670574,4.73018059 8.70298084,4.73025463 8.36993975,4.90816455 C8.19762763,5.00328319 7.93470035,5.14471446 7.65713864,5.28675954 C7.60944359,5.31111747 7.60944359,5.31111747 7.56142621,5.3354202 C7.32155364,5.45652883 7.12160842,5.55099803 6.96912985,5.6129177 C6.80375658,5.68007375 6.5171935,5.77841911 6.13100829,5.90322554 C6.08168074,5.9191455 6.08168074,5.9191455 6.03226685,5.93501224 C5.80626898,6.00749308 5.56453678,6.08326885 5.32286123,6.15785961 C5.17787781,6.2026073 5.06498939,6.23705974 5.00260835,6.25592948 C4.70751894,6.34688578 4.47084564,6.7075914 4.50301032,7.01431695 C4.51797141,7.15764991 4.54423639,7.40862927 4.57811994,7.7312991 C4.63459199,8.26907708 4.69133435,8.80684818 4.74466846,9.30872201 L4.75141346,9.37217139 C4.82913357,10.103029 4.89227211,10.6882944 4.93559763,11.0769722 C5.14994087,13.0007908 6.09227162,14.3737147 8.9638875,15.4666404 Z" id="Stroke-3"></path>
      </g>
    </g>
  </g>
</svg>
