
<svg width="62px" height="60px" viewBox="0 0 62 60" version="1.1" xmlns="http://www.w3.org/2000/svg" xmlns:xlink="http://www.w3.org/1999/xlink">
  <!-- Generator: Sketch 43.2 (39069) - http://www.bohemiancoding.com/sketch -->
  <desc>Created with Sketch.</desc>
  <defs>
    <path d="M0.300710829,20.9786751 C0.686917574,9.39247279 10.4079804,0 22.0061566,0 L39.9938434,0 C51.5952233,0 61.3129775,9.38932566 61.6992892,20.9786751 L62,30 L61.6992892,39.0213249 C61.3130824,50.6075272 51.5920196,60 39.9938434,60 L22.0061566,60 C10.4047767,60 0.687022478,50.6106743 0.300710829,39.0213249 L0,30 L0.300710829,20.9786751 Z" id="path-1"></path>
    <circle id="path-2" cx="15" cy="14" r="7"></circle>
  </defs>
  <g id="云主机" stroke="none" stroke-width="1" fill="none" fill-rule="evenodd">
    <g id="*图标" transform="translate(-60.000000, -812.000000)">
      <g id="Group-3" transform="translate(60.000000, 812.000000)">
        <g id="Rectangle-11">
          <use fill="#FAFDFF" fill-rule="evenodd" xlink:href="#path-1"></use>
          <path stroke="#97A4B6" stroke-width="1" d="M0.800433282,20.9953326 C1.17761651,9.67983562 10.6764403,0.5 22.0061566,0.5 L39.9938434,0.5 C51.3267452,0.5 60.822278,9.67667031 61.1995667,20.9953326 L61.5002775,30.0166574 L61.1995667,39.0046674 C60.8223835,50.3201644 51.3235597,59.5 39.9938434,59.5 L22.0061566,59.5 C10.6732548,59.5 1.17772202,50.3233297 0.800433282,39.0046674 L0.499722453,29.9833426 L0.800433282,20.9953326 L0.800433282,20.9953326 Z"></path>
        </g>
        <g id="Group-22" transform="translate(16.000000, 17.000000)">
          <path d="M6.97916667,4.21428571 L7.2649655,4.21428571 L7.4100006,3.96802204 L9.08945604,1.11637526 C9.28078908,0.791499555 9.7880659,0.5 10.1613601,0.5 L19.8386399,0.5 C20.2094999,0.5 20.7205175,0.793718117 20.910544,1.11637526 L22.5899994,3.96802204 L22.7350345,4.21428571 L23.0208333,4.21428571 L29.0018463,4.21428571 C29.2779061,4.21428571 29.5,4.43653154 29.5,4.71515094 L29.5,24.9991348 C29.5,25.2758564 29.2763899,25.5 29.0018463,25.5 L0.998153687,25.5 C0.722093897,25.5 0.5,25.2777542 0.5,24.9991348 L0.5,4.71515094 C0.5,4.43842931 0.723610068,4.21428571 0.998153687,4.21428571 L6.97916667,4.21428571 Z" id="Combined-Shape" stroke="#97A4B6"></path>
          <rect id="Rectangle-6" fill="#97A4B6" x="0" y="9.66666667" width="30" height="1"></rect>
          <g id="Oval-5">
            <use fill="#D6DBE2" fill-rule="evenodd" xlink:href="#path-2"></use>
            <circle stroke="#97A4B6" stroke-width="1" cx="15" cy="14" r="6.5"></circle>
          </g>
        </g>
      </g>
    </g>
  </g>
</svg>
