<?xml version="1.0" encoding="UTF-8"?>
<svg width="70px" height="70px" viewBox="0 0 70 70" version="1.1" xmlns="http://www.w3.org/2000/svg" xmlns:xlink="http://www.w3.org/1999/xlink">
    <!-- Generator: Sketch 48.2 (47327) - http://www.bohemiancoding.com/sketch -->
    <title>sys_app_saas_detail</title>
    <desc>Created with Sketch.</desc>
    <defs>
        <linearGradient x1="50%" y1="172.786458%" x2="40.5229048%" y2="0%" id="linearGradient-1">
            <stop stop-color="#D3E8FF" offset="0%"></stop>
            <stop stop-color="#C0DEFF" offset="100%"></stop>
        </linearGradient>
        <path d="M31.609375,0.0571608767 L31.609375,27.890625 L59.4428391,27.890625 C59.4807595,28.5055492 59.5,29.1255277 59.5,29.75 C59.5,46.1804713 46.1804713,59.5 29.75,59.5 C13.3195287,59.5 0,46.1804713 0,29.75 C0,13.3195287 13.3195287,0 29.75,0 C30.3744723,0 30.9944508,0.0192404501 31.609375,0.0571608767 Z" id="path-2"></path>
        <linearGradient x1="40.1684253%" y1="-12.0332792%" x2="92.1418425%" y2="70.3074269%" id="linearGradient-4">
            <stop stop-color="#A2CFFF" offset="0%"></stop>
            <stop stop-color="#84C0FF" offset="100%"></stop>
        </linearGradient>
        <path d="M-10.5,31.5 L28,31.5 L28,70 C6.73703713,70 -10.5,52.7629629 -10.5,31.5 Z" id="path-5"></path>
        <linearGradient x1="50%" y1="1.14423775e-15%" x2="50%" y2="100%" id="linearGradient-6">
            <stop stop-color="#E7F2FF" offset="0%"></stop>
            <stop stop-color="#FFFFFF" offset="100%"></stop>
        </linearGradient>
        <path d="M49.7613005,27.0113005 C44.811553,31.9610479 36.9744528,34.0234427 26.25,33.1984848 C25.4250421,22.474032 27.4874369,14.6369318 32.4371843,9.68718434 C37.3869318,4.73743687 45.224032,2.67504209 55.9484848,3.5 C56.7734427,14.2244528 54.7110479,22.061553 49.7613005,27.0113005 Z M40.9482233,20.8232233 C42.3979708,20.8232233 43.5732233,19.6479708 43.5732233,18.1982233 C43.5732233,16.7484758 42.3979708,15.5732233 40.9482233,15.5732233 C39.4984758,15.5732233 38.3232233,16.7484758 38.3232233,18.1982233 C38.3232233,19.6479708 39.4984758,20.8232233 40.9482233,20.8232233 Z" id="path-7"></path>
    </defs>
    <g id="应用中心" stroke="none" stroke-width="1" fill="none" fill-rule="evenodd">
        <g id="sys_app_saas_detail">
            <rect id="Rectangle-29" x="0" y="0" width="70" height="70"></rect>
            <g id="Group-23" transform="translate(5.250000, 5.250000)">
                <g id="Combined-Shape">
                    <mask id="mask-3" fill="white">
                        <use xlink:href="#path-2"></use>
                    </mask>
                    <g id="Mask">
                        <use fill="url(#linearGradient-1)" fill-rule="evenodd" xlink:href="#path-2"></use>
                        <path stroke="#D5E9FF" stroke-width="1.4" d="M30.909375,0.722701843 C30.5239381,0.707580416 30.1374325,0.7 29.75,0.7 C13.706128,0.7 0.7,13.706128 0.7,29.75 C0.7,45.793872 13.706128,58.8 29.75,58.8 C45.793872,58.8 58.8,45.793872 58.8,29.75 C58.8,29.3625675 58.7924196,28.9760619 58.7772982,28.590625 L30.909375,28.590625 L30.909375,0.722701843 Z"></path>
                    </g>
                    <g mask="url(#mask-3)">
                        <use fill="url(#linearGradient-4)" fill-rule="evenodd" xlink:href="#path-5"></use>
                        <path stroke="#A0CEFF" stroke-width="1.4" d="M-9.79364843,32.2 C-9.42461042,52.520537 6.97946302,68.9246104 27.3,69.2936484 L27.3,32.2 L-9.79364843,32.2 Z"></path>
                    </g>
                </g>
                <g id="Combined-Shape">
                    <use fill="url(#linearGradient-6)" fill-rule="evenodd" xlink:href="#path-7"></use>
                    <path stroke="#FFFFFF" stroke-width="1.4" d="M55.2939231,4.15456167 C45.0651061,3.46508806 37.6253234,5.48899477 32.9321591,10.1821591 C28.2389948,14.8753234 26.2150881,22.3151061 26.9045617,32.5439231 C37.1333787,33.2333968 44.5731614,31.20949 49.2663257,26.5163257 C53.95949,21.8231614 55.9833968,14.3833787 55.2939231,4.15456167 Z M40.9482233,21.5232233 C39.1118765,21.5232233 37.6232233,20.0345701 37.6232233,18.1982233 C37.6232233,16.3618765 39.1118765,14.8732233 40.9482233,14.8732233 C42.7845701,14.8732233 44.2732233,16.3618765 44.2732233,18.1982233 C44.2732233,20.0345701 42.7845701,21.5232233 40.9482233,21.5232233 Z"></path>
                </g>
            </g>
        </g>
    </g>
</svg>

