<?xml version="1.0" encoding="UTF-8"?>
<svg width="32px" height="32px" viewBox="0 0 32 32" version="1.1" xmlns="http://www.w3.org/2000/svg" xmlns:xlink="http://www.w3.org/1999/xlink">
    <!-- Generator: Sketch 50.2 (55047) - http://www.bohemiancoding.com/sketch -->
    <title>sys_app_add</title>
    <desc>Created with Sketch.</desc>
    <defs></defs>
    <g id="应用中心" stroke="none" stroke-width="1" fill="none" fill-rule="evenodd">
        <g id="Group-Copy-3">
            <path d="M15,15 L15,8.8 C15,8.3581722 15.4477153,8 16,8 C16.5522847,8 17,8.3581722 17,8.8 L17,15 L23,15 C23.5522847,15 24,15.4477153 24,16 C24,16.5522847 23.5522847,17 23,17 L17,17 L17,23.2 C17,23.6418278 16.5522847,24 16,24 C15.4477153,24 15,23.6418278 15,23.2 L15,17 L9,17 C8.44771525,17 8,16.5522847 8,16 C8,15.4477153 8.44771525,15 9,15 L15,15 Z" id="Combined-Shape" fill="#C6D3DC"></path>
            <circle id="Oval-5" stroke="#C6D3DC" cx="16" cy="16" r="15.5"></circle>
        </g>
    </g>
</svg>

