<?xml version="1.0" encoding="UTF-8"?>
<svg width="140px" height="120px" viewBox="0 0 140 120" version="1.1" xmlns="http://www.w3.org/2000/svg" xmlns:xlink="http://www.w3.org/1999/xlink">
    <!-- Generator: Sketch 48.2 (47327) - http://www.bohemiancoding.com/sketch -->
    <title>sys_about_hybrid</title>
    <desc>Created with Sketch.</desc>
    <defs>
        <linearGradient x1="52.4980187%" y1="165.856934%" x2="52.4980187%" y2="0%" id="linearGradient-1">
            <stop stop-color="#B5DAFF" offset="0%"></stop>
            <stop stop-color="#D9ECFF" stop-opacity="0" offset="100%"></stop>
        </linearGradient>
        <filter x="-25.0%" y="-150.0%" width="150.0%" height="400.0%" filterUnits="objectBoundingBox" id="filter-2">
            <feGaussianBlur stdDeviation="5" in="SourceGraphic"></feGaussianBlur>
        </filter>
        <linearGradient x1="50%" y1="0%" x2="50%" y2="100%" id="linearGradient-3">
            <stop stop-color="#007FDF" stop-opacity="0" offset="0%"></stop>
            <stop stop-color="#007FDF" offset="100%"></stop>
        </linearGradient>
        <path d="M15.4696876,18.2013391 C16.3086164,8.29144627 24.6180863,0.509960937 34.7450195,0.509960937 C44.8719527,0.509960937 53.1814227,8.29144627 54.0203515,18.2013391 L57.4013391,18.2013391 C64.3593874,18.2013391 70,23.8419517 70,30.8 C70,37.7580483 64.3593874,43.3986609 57.4013391,43.3986609 L26.5986609,43.3986609 C19.6406126,43.3986609 14,37.7580483 14,30.8 L14,18.2013391 L15.4696876,18.2013391 Z" id="path-4"></path>
        <path d="M25.1770368,9.8 L26.6,9.8 C31.2391919,9.8 35,13.5608081 35,18.2 C35,22.8391919 31.2391919,26.6 26.6,26.6 L8.4,26.6 C3.7608081,26.6 5.68137151e-16,22.8391919 0,18.2 C-3.81180246e-16,15.0874271 1.69291662,12.370256 4.20820831,10.9190284 C4.20275312,10.7800293 4.2,10.6403362 4.2,10.5 C4.2,4.70101013 8.90101013,0 14.7,0 C20.2637699,0 24.8168266,4.32737773 25.1770368,9.8 Z" id="path-5"></path>
        <path d="M8.4,26.6 C9.97490243,26.6 12.7749024,26.6 16.8,26.6 C16.8,22.5178922 16.8,19.7178922 16.8,18.2 C16.8,13.5608081 13.0391919,9.8 8.4,9.8 C3.7608081,9.8 0,13.5608081 0,18.2 C0,22.8391919 3.7608081,26.6 8.4,26.6 Z" id="path-6"></path>
    </defs>
    <g id="关于" stroke="none" stroke-width="1" fill="none" fill-rule="evenodd">
        <g id="sys_about_hybrid" transform="translate(1.000000, 1.000000)">
            <path d="M69,86 C107.107648,86 138,77.2842712 138,69 C138,60.7157288 107.107648,54 69,54 C30.8923523,54 0,60.7157288 0,69 C0,77.2842712 30.8923523,86 69,86 Z" id="Oval-Copy-2" fill="url(#linearGradient-1)"></path>
            <path d="M69,102 C85.5685425,102 99,99.2763348 99,96.6875 C99,94.0986652 85.5685425,92 69,92 C52.4314575,92 39,94.0986652 39,96.6875 C39,99.2763348 52.4314575,102 69,102 Z" id="Oval-Copy-2" fill="#DCEDFF" filter="url(#filter-2)"></path>
            <g id="Group-22" transform="translate(0.000000, 41.000000)">
                <path d="M69,32 C107.107648,32 138,23.2842712 138,15 C138,6.71572875 107.107648,0 69,0 C30.8923523,0 0,6.71572875 0,15 C0,23.2842712 30.8923523,32 69,32 Z" id="Oval-Copy-2" stroke="url(#linearGradient-3)" stroke-dasharray="1,5"></path>
                <circle id="Oval-3" fill="#007FDF" cx="41" cy="30" r="2"></circle>
            </g>
            <g id="Group-3" transform="translate(34.000000, 0.000000)">
                <circle id="Oval" fill="#89D7FF" opacity="0.400000006" cx="57.5" cy="16.5" r="16.5"></circle>
                <g id="Group-17">
                    <g id="Group-14">
                        <g id="Mask-Copy">
                            <use fill="#FFFFFF" fill-rule="evenodd" xlink:href="#path-4"></use>
                            <path stroke="#007FDF" stroke-width="3" d="M15.5,19.7013391 L15.5,30.8 C15.5,36.9296211 20.4690397,41.8986609 26.5986609,41.8986609 L57.4013391,41.8986609 C63.5309603,41.8986609 68.5,36.9296211 68.5,30.8 C68.5,24.6703789 63.5309603,19.7013391 57.4013391,19.7013391 L52.6419697,19.7013391 L52.5256977,18.3278701 C51.74741,9.1343043 44.0323921,2.00996094 34.7450195,2.00996094 C25.457647,2.00996094 17.742629,9.1343043 16.9643413,18.3278701 L16.8480694,19.7013391 L15.5,19.7013391 Z"></path>
                        </g>
                        <g id="Mask-Copy-2">
                            <use fill="#89D7FF" fill-rule="evenodd" xlink:href="#path-5"></use>
                            <path stroke="#007FDF" stroke-width="3" d="M26.6,11.3 L23.7725217,11.3 L23.6802755,9.89851745 C23.3702047,5.18765688 19.4469128,1.5 14.7,1.5 C9.72943725,1.5 5.7,5.52943725 5.7,10.5 C5.7,10.6204019 5.70235585,10.7404834 5.70705444,10.8602044 L5.74258429,11.7655114 L4.9578299,12.2182849 C2.83463236,13.4432891 1.5,15.7045266 1.5,18.2 C1.5,22.0107648 4.58923523,25.1 8.4,25.1 L26.6,25.1 C30.4107648,25.1 33.5,22.0107648 33.5,18.2 C33.5,14.3892352 30.4107648,11.3 26.6,11.3 Z"></path>
                        </g>
                        <g id="Oval-25">
                            <use fill="#89D7FF" fill-rule="evenodd" xlink:href="#path-6"></use>
                            <path stroke="#007FDF" stroke-width="3" d="M15.3,25.1 C15.3,21.0882132 15.3,20.8236133 15.3,18.2 C15.3,14.3892352 12.2107648,11.3 8.4,11.3 C4.58923523,11.3 1.5,14.3892352 1.5,18.2 C1.5,22.0107648 4.58923523,25.1 8.4,25.1 C11.0713872,25.1 11.3439362,25.1 15.3,25.1 Z"></path>
                        </g>
                        <path d="M21.0623954,17.2752181 C21.3626081,15.8684344 21.9796481,14.7826235 22.9219647,13.9703192 C24.1584185,12.9044602 25.1959951,12.5988497 26.802744,12.6112377 C27.5759196,12.6171988 28.2075348,11.9952486 28.213496,11.2220729 C28.2194571,10.4488973 27.5975069,9.81728206 26.8243312,9.81132091 C24.5904706,9.79409792 22.900888,10.2917519 21.0937824,11.8495294 C19.6743965,13.0730813 18.7483375,14.7026757 18.3240548,16.6908464 C18.162685,17.4470183 18.6448673,18.1908328 19.4010392,18.3522026 C20.1572111,18.5135724 20.9010256,18.03139 21.0623954,17.2752181 Z" id="Path-15" fill="#007FDF" fill-rule="nonzero"></path>
                        <rect id="Rectangle-41" fill="#007FDF" x="0" y="47.6" width="56" height="3.15516493" rx="1.57758247"></rect>
                        <rect id="Rectangle-41-Copy" fill="#007FDF" x="63" y="47.6" width="7" height="2.8" rx="1.4"></rect>
                        <rect id="Rectangle-41" fill="#007FDF" x="14" y="54.6" width="56" height="2.8" rx="1.4"></rect>
                        <rect id="Rectangle-41-Copy" fill="#007FDF" x="0" y="54.6" width="7" height="2.8" rx="1.4"></rect>
                    </g>
                </g>
            </g>
        </g>
    </g>
</svg>

