<?xml version="1.0" encoding="UTF-8"?>
<svg width="62px" height="60px" viewBox="0 0 62 60" version="1.1" xmlns="http://www.w3.org/2000/svg" xmlns:xlink="http://www.w3.org/1999/xlink">
  <!-- Generator: Sketch 46.2 (44496) - http://www.bohemiancoding.com/sketch -->
  <title>Rectangle 11 Copy</title>
  <desc>Created with Sketch.</desc>
  <defs>
    <path d="M833.300711,1120.97868 C833.686918,1109.39247 843.40798,1100 855.006157,1100 L872.993843,1100 C884.595223,1100 894.312978,1109.38933 894.699289,1120.97868 L895,1130 L894.699289,1139.02132 C894.313082,1150.60753 884.59202,1160 872.993843,1160 L855.006157,1160 C843.404777,1160 833.687022,1150.61067 833.300711,1139.02132 L833,1130 L833.300711,1120.97868 Z" id="path-1"></path>
    <circle id="path-2" cx="15" cy="15" r="7.5"></circle>
  </defs>
  <g id="UI-KIT" stroke="none" stroke-width="1" fill="none" fill-rule="evenodd">
    <g id="*图标" transform="translate(-833.000000, -1100.000000)">
      <g id="Rectangle-11-Copy">
        <use fill="#FAFDFF" fill-rule="evenodd" xlink:href="#path-1"></use>
        <path stroke="#97A4B6" stroke-width="1" d="M833.800433,1120.99533 L833.499722,1129.98334 L833.800433,1139.00467 C834.177722,1150.32333 843.673255,1159.5 855.006157,1159.5 L872.993843,1159.5 C884.32356,1159.5 893.822383,1150.32016 894.199567,1139.00467 L894.500278,1130.01666 L894.199567,1120.99533 C893.822278,1109.67667 884.326745,1100.5 872.993843,1100.5 L855.006157,1100.5 C843.67644,1100.5 834.177617,1109.67984 833.800433,1120.99533 Z"></path>
      </g>
      <g id="Group-146" transform="translate(849.000000, 1115.000000)">
        <path d="M15,0.577350269 L2.50961894,7.78867513 L2.50961894,22.2113249 L15,29.4226497 L27.4903811,22.2113249 L27.4903811,7.78867513 L15,0.577350269 Z" id="Polygon" stroke="#97A4B6"></path>
        <g id="Oval-26">
          <use fill-opacity="0.39770154" fill="#97A4B6" fill-rule="evenodd" xlink:href="#path-2"></use>
          <circle stroke="#97A4B6" stroke-width="1" cx="15" cy="15" r="7"></circle>
        </g>
        <circle id="Oval-9" fill="#97A4B6" cx="15" cy="15" r="1.5"></circle>
      </g>
    </g>
  </g>
</svg>
