<?xml version="1.0" encoding="UTF-8"?>
<svg width="36px" height="36px" viewBox="0 0 36 36" version="1.1" xmlns="http://www.w3.org/2000/svg" xmlns:xlink="http://www.w3.org/1999/xlink">
  <!-- Generator: Sketch 52.4 (67378) - http://www.bohemiancoding.com/sketch -->
  <title>pop_tag_n</title>
  <desc>Created with Sketch.</desc>
  <g id="Page-2" stroke="none" stroke-width="1" fill="none" fill-rule="evenodd">
    <g id="备注" transform="translate(-823.000000, -550.000000)">
      <g id="pop_tag_n" transform="translate(823.000000, 550.000000)">
        <rect id="Rectangle-2" x="0" y="0" width="36" height="36"></rect>
        <path d="M27.8777249,18 L23.6653988,13.021226 C23.6813387,13.0400662 23.593751,13 23.6084946,13 L8.99149287,13 C9.00211373,13 9,13.0021474 9,13.0024733 L9,22.9975267 C9,22.9971605 9.00282476,23 8.99149287,23 L23.6084946,23 C23.5907906,23 23.6835527,22.957317 23.6653988,22.978774 L27.8777249,18 Z M24.4288216,12.3753269 L28.8700672,17.6246731 C29.0411646,17.8269024 29.045444,18.1680396 28.8700672,18.3753269 L24.4288216,23.6246731 C24.2577241,23.8269024 23.8861718,24 23.6084946,24 L8.99149287,24 C8.45225041,24 8,23.5511774 8,22.9975267 L8,13.0024733 C8,12.455761 8.44390648,12 8.99149287,12 L23.6084946,12 C23.8859318,12 24.2534447,12.1680396 24.4288216,12.3753269 Z M22,19 C22.5522847,19 23,18.5522847 23,18 C23,17.4477153 22.5522847,17 22,17 C21.4477153,17 21,17.4477153 21,18 C21,18.5522847 21.4477153,19 22,19 Z M22,20 C20.8954305,20 20,19.1045695 20,18 C20,16.8954305 20.8954305,16 22,16 C23.1045695,16 24,16.8954305 24,18 C24,19.1045695 23.1045695,20 22,20 Z" id="Combined-Shape" fill="#97A4B6" fill-rule="nonzero"></path>
        <rect id="Rectangle" fill="#97A4B6" x="12" y="16" width="1" height="4" rx="0.5"></rect>
        <rect id="Rectangle" fill="#97A4B6" x="14" y="16" width="1" height="4" rx="0.5"></rect>
      </g>
    </g>
  </g>
</svg>
