<?xml version="1.0" encoding="UTF-8"?>
<svg width="35px" height="14px" viewBox="0 0 35 14" version="1.1" xmlns="http://www.w3.org/2000/svg" xmlns:xlink="http://www.w3.org/1999/xlink">
    <!-- Generator: Sketch 48.2 (47327) - http://www.bohemiancoding.com/sketch -->
    <title>Group 25 Copy 6</title>
    <desc>Created with Sketch.</desc>
    <defs></defs>
    <g id="uikit" stroke="none" stroke-width="1" fill="none" fill-rule="evenodd" transform="translate(-60.000000, -802.000000)">
        <g id="Group-25-Copy-6" transform="translate(60.000000, 804.000000)" fill="#EC5960">
            <g id="Group-24">
                <path d="M15.416,9.616 L15.416,2.224 L14,2.224 L14,1.072 L18.056,1.072 L18.056,2.224 L16.64,2.224 L16.64,9.616 L15.416,9.616 Z M18.38,3.088 C18.38,2.74399828 18.4399994,2.44000132 18.56,2.176 C18.6800006,1.91199868 18.839999,1.69200088 19.04,1.516 C19.232001,1.34799916 19.4499988,1.22000044 19.694,1.132 C19.9380012,1.04399956 20.1839988,1 20.432,1 C20.6800012,1 20.9259988,1.04399956 21.17,1.132 C21.4140012,1.22000044 21.635999,1.34799916 21.836,1.516 C22.028001,1.69200088 22.1839994,1.91199868 22.304,2.176 C22.4240006,2.44000132 22.484,2.74399828 22.484,3.088 L22.484,7.6 C22.484,7.9600018 22.4240006,8.26799872 22.304,8.524 C22.1839994,8.78000128 22.028001,8.99199916 21.836,9.16 C21.635999,9.33600088 21.4140012,9.46799956 21.17,9.556 C20.9259988,9.64400044 20.6800012,9.688 20.432,9.688 C20.1839988,9.688 19.9380012,9.64400044 19.694,9.556 C19.4499988,9.46799956 19.232001,9.33600088 19.04,9.16 C18.839999,8.99199916 18.6800006,8.78000128 18.56,8.524 C18.4399994,8.26799872 18.38,7.9600018 18.38,7.6 L18.38,3.088 Z M19.604,7.6 C19.604,7.89600148 19.6859992,8.1139993 19.85,8.254 C20.0140008,8.3940007 20.2079989,8.464 20.432,8.464 C20.6560011,8.464 20.8499992,8.3940007 21.014,8.254 C21.1780008,8.1139993 21.26,7.89600148 21.26,7.6 L21.26,3.088 C21.26,2.79199852 21.1780008,2.5740007 21.014,2.434 C20.8499992,2.2939993 20.6560011,2.224 20.432,2.224 C20.2079989,2.224 20.0140008,2.2939993 19.85,2.434 C19.6859992,2.5740007 19.604,2.79199852 19.604,3.088 L19.604,7.6 Z M23.564,9.616 L23.564,1.072 L25.4,1.072 C25.7360017,1.072 26.0319987,1.11599956 26.288,1.204 C26.5440013,1.29200044 26.775999,1.44799888 26.984,1.672 C27.192001,1.89600112 27.3359996,2.1579985 27.416,2.458 C27.4960004,2.7580015 27.536,3.16399744 27.536,3.676 C27.536,4.06000192 27.5140002,4.38399868 27.47,4.648 C27.4259998,4.91200132 27.3320007,5.15999884 27.188,5.392 C27.0199992,5.6720014 26.7960014,5.88999922 26.516,6.046 C26.2359986,6.20200078 25.8680023,6.28 25.412,6.28 L24.788,6.28 L24.788,9.616 L23.564,9.616 Z M24.788,2.224 L24.788,5.128 L25.376,5.128 C25.6240012,5.128 25.8159993,5.09200036 25.952,5.02 C26.0880007,4.94799964 26.1879997,4.84800064 26.252,4.72 C26.3160003,4.5999994 26.3539999,4.45200088 26.366,4.276 C26.3780001,4.09999912 26.384,3.90400108 26.384,3.688 C26.384,3.487999 26.38,3.2980009 26.372,3.118 C26.364,2.9379991 26.3280003,2.78000068 26.264,2.644 C26.1999997,2.50799932 26.1040006,2.40400036 25.976,2.332 C25.8479994,2.25999964 25.6640012,2.224 25.424,2.224 L24.788,2.224 Z M34.16,1.072 L34.16,2.224 L31.736,2.224 L31.736,4.528 C31.8480006,4.41599944 31.9919991,4.32200038 32.168,4.246 C32.3440009,4.16999962 32.5399989,4.132 32.756,4.132 C33.1720021,4.132 33.5099987,4.25799874 33.77,4.51 C34.0300013,4.76200126 34.16,5.13999748 34.16,5.644 L34.16,7.852 C34.16,8.14000144 34.1100005,8.39599888 34.01,8.62 C33.9099995,8.84400112 33.7760008,9.0359992 33.608,9.196 C33.4399992,9.3560008 33.2460011,9.47799958 33.026,9.562 C32.8059989,9.64600042 32.5760012,9.688 32.336,9.688 C32.0959988,9.688 31.8660011,9.64600042 31.646,9.562 C31.4259989,9.47799958 31.2320008,9.3560008 31.064,9.196 C30.8959992,9.0359992 30.7620005,8.84400112 30.662,8.62 C30.5619995,8.39599888 30.512,8.14000144 30.512,7.852 L30.512,7.492 L31.736,7.492 L31.736,7.804 C31.736,8.01200104 31.7939994,8.17399942 31.91,8.29 C32.0260006,8.40600058 32.1759991,8.464 32.36,8.464 C32.5440009,8.464 32.6859995,8.40800056 32.786,8.296 C32.8860005,8.18399944 32.936,8.028001 32.936,7.828 L32.936,5.824 C32.936,5.65599916 32.8820005,5.5120006 32.774,5.392 C32.6659995,5.2719994 32.5280008,5.212 32.36,5.212 C32.2559995,5.212 32.1680004,5.22999982 32.096,5.266 C32.0239996,5.30200018 31.9640002,5.34399976 31.916,5.392 C31.8679998,5.44000024 31.8320001,5.49199972 31.808,5.548 C31.7679998,5.62000036 31.744,5.66399992 31.736,5.68 L30.656,5.68 L30.656,1.072 L34.16,1.072 Z" id="TOP-5"></path>
                <path d="M2.47739738,10 C0.700352054,8.98573666 -0.120682911,7.44024397 0.0142924907,5.36352192 C0.216755593,2.24843884 2.77534892,2.68045221 2.0070238,0 C4.40738868,0.511618824 5.62848446,1.87197481 5.67031114,4.08106794 C6.47419952,3.84673871 6.86664834,3.10797841 6.84765762,1.86478705 C8.37256576,3.26656612 9.08718989,4.73062525 8.99152999,6.25696444 C8.84804015,8.54647322 7.38131033,10 5.67031114,10 C4.52964501,10 3.60314089,9.367685 2.89079879,8.10305501 C2.67162071,8.33335411 2.53382024,8.63588395 2.47739738,9.01064453 C2.42097453,9.38540511 2.42097453,9.71519027 2.47739738,10 Z" id="Path-3"></path>
            </g>
        </g>
    </g>
</svg>

