<?xml version="1.0" encoding="UTF-8"?>
<svg width="36px" height="36px" viewBox="0 0 36 36" version="1.1" xmlns="http://www.w3.org/2000/svg" xmlns:xlink="http://www.w3.org/1999/xlink">
    <!-- Generator: Sketch 47.1 (45422) - http://www.bohemiancoding.com/sketch -->
    <title>Rectangle 2</title>
    <desc>Created with Sketch.</desc>
    <defs></defs>
    <g id="UI-KIT" stroke="none" stroke-width="1" fill="none" fill-rule="evenodd">
        <g id="*图标" transform="translate(-990.000000, -1162.000000)">
            <rect id="Rectangle-2" x="990" y="1162" width="36" height="36"></rect>
            <g id="Group-162" transform="translate(999.000000, 1170.000000)">
                <rect id="Rectangle-37-Copy-2" stroke="#97A4B6" x="13.5" y="2.5" width="4" height="4" rx="1"></rect>
                <polygon id="Rectangle-37-Copy-5" fill="#97A4B6" points="8.5 0 11 3 6 3"></polygon>
                <rect id="Rectangle-37" fill="#97A4B6" x="8" y="3" width="1" height="13"></rect>
                <circle id="Oval-27" stroke="#97A4B6" cx="8.5" cy="17.5" r="2"></circle>
                <circle id="Oval-27-Copy" stroke="#97A4B6" cx="2" cy="6" r="1.5"></circle>
                <path d="M1.5,7 L1.5,12 C1.5,12.8284271 2.17157288,13.5 3,13.5 L8,13.5 L8,12.5 L3,12.5 C2.72385763,12.5 2.5,12.2761424 2.5,12 L2.5,7 L1.5,7 Z" id="Path-13" fill="#97A4B6" fill-rule="nonzero"></path>
                <path d="M16,6 L16,10 C16,10.8284271 15.3284271,11.5 14.5,11.5 L8.5,11.5 L8.5,10.5 L14.5,10.5 C14.7761424,10.5 15,10.2761424 15,10 L15,6 L16,6 Z" id="Path-13" fill="#97A4B6" fill-rule="nonzero"></path>
            </g>
        </g>
    </g>
</svg>

