
<svg width="36px" height="36px" viewBox="0 0 36 36" version="1.1" xmlns="http://www.w3.org/2000/svg" xmlns:xlink="http://www.w3.org/1999/xlink">
  <!-- Generator: Sketch 43.2 (39069) - http://www.bohemiancoding.com/sketch -->
  <desc>Created with Sketch.</desc>
  <defs>
    <path d="M12.030249,13 L16.0029401,13 C17.1058858,13 18,13.9636923 18,15.1460818 L18,17.8539182 C18,19.0391664 17.1073772,20 16.0005801,20 L1.99941986,20 C0.895170763,20 0,19.0363077 0,17.8539182 L0,15.1460818 C0,13.9608336 0.896457474,13 2.0022276,13 L6.63330078,13" id="path-1"></path>
    <path d="M9,15 C12.6066834,15 15,11.1181841 15,7.70701357 C15,4.29584306 12.3137085,1 9,1 C5.6862915,1 3,4.29584306 3,7.70701357 C3,11.1181841 5.39331657,15 9,15 Z" id="path-2"></path>
  </defs>
  <g id="云主机" stroke="none" stroke-width="1" fill="none" fill-rule="evenodd">
    <g id="*图标" transform="translate(-637.000000, -1015.000000)">
      <g id="Group-71-Copy" transform="translate(637.000000, 1015.000000)">
        <rect id="Rectangle-2" x="0" y="0" width="36" height="36"></rect>
        <g id="Group-87" transform="translate(8.000000, 8.000000)">
          <g id="Rectangle-2">
            <use fill="#FFFFFF" fill-rule="evenodd" xlink:href="#path-1"></use>
            <path stroke="#97A4B6" stroke-width="1" d="M12.030249,13.5 L16.0029401,13.5 C16.8203542,13.5 17.5,14.2310334 17.5,15.1460818 L17.5,17.8539182 C17.5,18.7716585 16.8220302,19.5 16.0005801,19.5 L1.99941986,19.5 C1.18056146,19.5 0.5,18.7688457 0.5,17.8539182 L0.5,15.1460818 C0.5,14.2295333 1.18063882,13.5 2.0022276,13.5 L6.63330078,13.5 L12.030249,13.5 L12.030249,13.5 Z"></path>
          </g>
          <g id="Oval-3">
            <use fill="#FFFFFF" fill-rule="evenodd" xlink:href="#path-2"></use>
            <path stroke="#97A4B6" stroke-width="1" d="M9,14.5 C5.9667606,14.5 3.5,11.2157724 3.5,7.70701357 C3.5,4.45633648 6.06722668,1.5 9,1.5 C11.9327733,1.5 14.5,4.45633648 14.5,7.70701357 C14.5,11.2157724 12.0332394,14.5 9,14.5 Z"></path>
          </g>
          <rect id="Rectangle-44" fill="#97A4B6" x="15" y="0" width="5" height="1" rx="0.5"></rect>
          <rect id="Rectangle-44" fill="#97A4B6" x="15" y="2" width="5" height="1" rx="0.5"></rect>
          <rect id="Rectangle-44" fill="#97A4B6" x="15" y="4" width="5" height="1" rx="0.5"></rect>
        </g>
      </g>
    </g>
  </g>
</svg>
