
<svg width="62px" height="60px" viewBox="0 0 62 60" version="1.1" xmlns="http://www.w3.org/2000/svg" xmlns:xlink="http://www.w3.org/1999/xlink">
  <!-- Generator: Sketch 43.2 (39069) - http://www.bohemiancoding.com/sketch -->
  <desc>Created with Sketch.</desc>
  <defs>
    <path d="M270.300711,1023.97868 C270.686918,1012.39247 280.40798,1003 292.006157,1003 L309.993843,1003 C321.595223,1003 331.312978,1012.38933 331.699289,1023.97868 L332,1033 L331.699289,1042.02132 C331.313082,1053.60753 321.59202,1063 309.993843,1063 L292.006157,1063 C280.404777,1063 270.687022,1053.61067 270.300711,1042.02132 L270,1033 L270.300711,1023.97868 Z" id="path-1"></path>
    <path d="M18.0453735,17 L24.0044101,17 C25.6588287,17 27,18.3767032 27,20.0658312 L27,23.9341688 C27,25.6273806 25.6610658,27 24.0008702,27 L2.99912979,27 C1.34275614,27 0,25.6232968 0,23.9341688 L0,20.0658312 C0,18.3726194 1.34468621,17 3.0033414,17 L8.81339722,17" id="path-2"></path>
    <path d="M13.5,20 C18.6094682,20 22,14.4545487 22,9.58144796 C22,4.70834723 18.1944204,0 13.5,0 C8.80557963,0 5,4.70834723 5,9.58144796 C5,14.4545487 8.39053181,20 13.5,20 Z" id="path-3"></path>
  </defs>
  <g id="云主机" stroke="none" stroke-width="1" fill="none" fill-rule="evenodd">
    <g id="*图标" transform="translate(-270.000000, -1003.000000)">
      <g id="Rectangle-11-Copy-3">
        <use fill="#FAFDFF" fill-rule="evenodd" xlink:href="#path-1"></use>
        <path stroke="#97A4B6" stroke-width="1" d="M270.800433,1023.99533 C271.177617,1012.67984 280.67644,1003.5 292.006157,1003.5 L309.993843,1003.5 C321.326745,1003.5 330.822278,1012.67667 331.199567,1023.99533 L331.500278,1033.01666 L331.199567,1042.00467 C330.822383,1053.32016 321.32356,1062.5 309.993843,1062.5 L292.006157,1062.5 C280.673255,1062.5 271.177722,1053.32333 270.800433,1042.00467 L270.499722,1032.98334 L270.800433,1023.99533 Z"></path>
      </g>
      <g id="Group-84" transform="translate(286.000000, 1019.000000)">
        <g id="Group-81" transform="translate(0.000000, 2.000000)">
          <g id="Rectangle-2">
            <use fill="#D2D9E2" fill-rule="evenodd" xlink:href="#path-2"></use>
            <path stroke="#97A4B6" stroke-width="1" d="M18.0453735,17.5 L24.0044101,17.5 C25.3785769,17.5 26.5,18.6487745 26.5,20.0658312 L26.5,23.9341688 C26.5,25.3551165 25.3810109,26.5 24.0008702,26.5 L2.99912979,26.5 C1.62287402,26.5 0.5,25.3510968 0.5,23.9341688 L0.5,20.0658312 C0.5,18.6465002 1.62314293,17.5 3.0033414,17.5 L8.81339722,17.5 L18.0453735,17.5 L18.0453735,17.5 Z"></path>
          </g>
          <g id="Oval-3">
            <use fill="#FAFDFF" fill-rule="evenodd" xlink:href="#path-3"></use>
            <path stroke="#97A4B6" stroke-width="1" d="M13.5,19.5 C9.0739378,19.5 5.5,14.7016986 5.5,9.58144796 C5.5,4.82470512 9.22419636,0.5 13.5,0.5 C17.7758036,0.5 21.5,4.82470512 21.5,9.58144796 C21.5,14.7016986 17.9260622,19.5 13.5,19.5 Z"></path>
          </g>
        </g>
        <g id="Group-80" transform="translate(22.000000, 0.000000)" fill="#97A4B6">
          <rect id="Rectangle-44" x="0" y="0" width="8" height="1" rx="0.5"></rect>
          <rect id="Rectangle-44" x="0" y="3" width="8" height="1" rx="0.5"></rect>
          <rect id="Rectangle-44" x="0" y="6" width="8" height="1" rx="0.5"></rect>
        </g>
      </g>
    </g>
  </g>
</svg>
