
<svg width="36px" height="36px" viewBox="0 0 36 36" version="1.1" xmlns="http://www.w3.org/2000/svg" xmlns:xlink="http://www.w3.org/1999/xlink">
  <!-- Generator: Sketch 43.2 (39069) - http://www.bohemiancoding.com/sketch -->
  <desc>Created with Sketch.</desc>
  <defs>
    <path d="M13.3669434,12 L17.7810445,12 C19.0065398,12 20,12.9636923 20,14.1460818 L20,16.8539182 C20,18.0391664 19.0081969,19 17.7784224,19 L2.22157762,19 C0.994634181,19 0,18.0363077 0,16.8539182 L0,14.1460818 C0,12.9608336 0.99606386,12 2.22469734,12 L6.52844238,12" id="path-1"></path>
    <path d="M9.89622642,15 C13.8034668,15 16.3962264,10.8409115 16.3962264,7.18608597 C16.3962264,3.53126042 13.4860773,4.54747351e-13 9.89622642,4.54747351e-13 C6.30637554,4.54747351e-13 3.39622642,3.53126042 3.39622642,7.18608597 C3.39622642,10.8409115 5.98898603,15 9.89622642,15 Z" id="path-2"></path>
  </defs>
  <g id="云主机" stroke="none" stroke-width="1" fill="none" fill-rule="evenodd">
    <g id="*图标" transform="translate(-469.000000, -1085.000000)">
      <g id="Group-46-Copy" transform="translate(469.000000, 1085.000000)">
        <rect id="Rectangle-2" x="0" y="0" width="36" height="36"></rect>
        <g id="Group-86" transform="translate(8.000000, 8.000000)">
          <g id="Rectangle-2">
            <use fill="#FFFFFF" fill-rule="evenodd" xlink:href="#path-1"></use>
            <path stroke="#97A4B6" stroke-width="1" d="M13.3669434,12.5 L17.7810445,12.5 C18.7329456,12.5 19.5,13.2425459 19.5,14.1460818 L19.5,16.8539182 C19.5,17.7601295 18.7347762,18.5 17.7784224,18.5 L2.22157762,18.5 C1.26810243,18.5 0.5,17.7573173 0.5,16.8539182 L0.5,14.1460818 C0.5,13.2410932 1.26824886,12.5 2.22469734,12.5 L6.52844238,12.5 L13.3669434,12.5 L13.3669434,12.5 Z"></path>
          </g>
          <g id="Oval-3">
            <use fill="#FFFFFF" fill-rule="evenodd" xlink:href="#path-2"></use>
            <path stroke="#97A4B6" stroke-width="1" d="M9.89622642,14.5 C6.58267701,14.5 3.89622642,10.9625833 3.89622642,7.18608597 C3.89622642,3.68555254 6.69323636,0.5 9.89622642,0.5 C13.0992165,0.5 15.8962264,3.68555254 15.8962264,7.18608597 C15.8962264,10.9625833 13.2097758,14.5 9.89622642,14.5 Z"></path>
          </g>
        </g>
      </g>
    </g>
  </g>
</svg>
