<?xml version="1.0" encoding="UTF-8"?>
<svg width="62px" height="60px" viewBox="0 0 62 60" version="1.1" xmlns="http://www.w3.org/2000/svg" xmlns:xlink="http://www.w3.org/1999/xlink">
  <!-- Generator: Sketch 45.1 (43504) - http://www.bohemiancoding.com/sketch -->
  <title>Rectangle 11</title>
  <desc>Created with Sketch.</desc>
  <defs>
    <path d="M780.300711,193.978675 C780.686918,182.392473 790.40798,173 802.006157,173 L819.993843,173 C831.595223,173 841.312978,182.389326 841.699289,193.978675 L842,203 L841.699289,212.021325 C841.313082,223.607527 831.59202,233 819.993843,233 L802.006157,233 C790.404777,233 780.687022,223.610674 780.300711,212.021325 L780,203 L780.300711,193.978675 Z" id="path-1"></path>
    <path d="M4.808,10.0064 C1.9984,10.992 0,13.6608 0,16.8 C0,20.768 3.2288,24 7.2112,24 L25.5904,24 C29.1408,24 32,21.1344 32,17.6 C32,14.072 29.1312,11.2 25.5904,11.2 C25.5904,10.936 25.6,10.6688 25.6,10.4 C25.6,4.656 20.944,0 15.2,0 C9.5888,0 5.0144,4.4448 4.808,10.0064 Z" id="path-2"></path>
    <path d="M17.4552369,2.49426192 L22.5410233,7.58004836 L22.5410233,7.58004836 C22.9315476,7.97057265 22.9315476,8.60373763 22.5410233,8.99426192 L17.4552369,14.0800484 L17.4552369,14.0800484 C17.0647126,14.4705727 16.4315476,14.4705727 16.0410233,14.0800484 C15.8534869,13.892512 15.7481301,13.6381581 15.7481301,13.3729416 L15.7481301,11.2871551 L7.07735803,11.2871551 L7.07735803,11.2871551 L7.07735803,11.2871551 C6.86392993,11.2338267 6.70294113,11.0582495 6.66828001,10.8410075 C6.5305569,9.97789594 6.44543301,9.11676652 6.41289565,8.25762128 C6.38062177,7.40543343 6.50376452,6.56078008 6.7823239,5.72366124 L6.78232672,5.72366217 C6.85797198,5.49633517 7.05213012,5.32875821 7.28807282,5.28715514 L7.28807282,5.28715514 L15.7481301,5.28715514 L15.7481301,3.2013687 L15.7481301,3.2013687 C15.7481301,2.64908395 16.1958453,2.2013687 16.7481301,2.2013687 C17.0133466,2.2013687 17.2677005,2.30672554 17.4552369,2.49426192 Z" id="path-4"></path>
  </defs>
  <g id="Hybrid" stroke="none" stroke-width="1" fill="none" fill-rule="evenodd">
    <g id="混合云_导航" transform="translate(-780.000000, -173.000000)">
      <g id="Rectangle-11">
        <use fill="#FAFDFF" fill-rule="evenodd" xlink:href="#path-1"></use>
        <path stroke="#97A4B6" stroke-width="1" d="M780.800433,193.995333 L780.499722,202.983343 L780.800433,212.004667 C781.177722,223.32333 790.673255,232.5 802.006157,232.5 L819.993843,232.5 C831.32356,232.5 840.822383,223.320164 841.199567,212.004667 L841.500278,203.016657 L841.199567,193.995333 C840.822278,182.67667 831.326745,173.5 819.993843,173.5 L802.006157,173.5 C790.67644,173.5 781.177617,182.679836 780.800433,193.995333 Z"></path>
      </g>
      <g id="Path-7-Copy-2" transform="translate(795.000000, 190.000000)">
        <mask id="mask-3" fill="white">
          <use xlink:href="#path-2"></use>
        </mask>
        <g id="Mask">
          <use fill="#FAFDFF" fill-rule="evenodd" xlink:href="#path-2"></use>
          <path stroke="#97A4B6" stroke-width="1" d="M5.30765604,10.024943 L5.29502013,10.365427 L4.97351028,10.4782118 C2.31036182,11.412437 0.5,13.9292399 0.5,16.8 C0.5,20.4946089 3.50769587,23.5 7.2112,23.5 L25.5904,23.5 C28.8610014,23.5 31.5,20.8619125 31.5,17.6 C31.5,14.3456302 28.8525436,11.7 25.5904,11.7 L25.0904,11.7 L25.0904,11.2 C25.0904,11.0860851 25.09161,10.9968444 25.0952809,10.792806 C25.0988114,10.5965712 25.1,10.5081165 25.1,10.4 C25.1,4.93214237 20.6678576,0.5 15.2,0.5 C9.87238662,0.5 5.50462741,4.71740445 5.30765604,10.024943 Z"></path>
        </g>
        <g id="Rectangle-29" mask="url(#mask-3)" transform="translate(14.620893, 8.287155) scale(-1, 1) rotate(100.000000) translate(-14.620893, -8.287155) ">
          <use fill-opacity="0.39770154" fill="#97A4B6" fill-rule="evenodd" xlink:href="#path-4"></use>
          <path stroke="#97A4B6" stroke-width="1" d="M7.17387703,10.7871551 L16.2481301,10.7871551 L16.2481301,13.3729416 C16.2481301,13.5055498 16.3008085,13.6327268 16.3945767,13.726495 C16.5898388,13.9217571 16.9064213,13.9217571 17.1016835,13.726495 L22.1874699,8.64070853 C22.3827321,8.44544639 22.3827321,8.1288639 22.1874699,7.93360175 L17.1016835,2.84781531 C17.0079153,2.75404712 16.8807383,2.7013687 16.7481301,2.7013687 C16.4719877,2.7013687 16.2481301,2.92522633 16.2481301,3.2013687 L16.2481301,5.78715514 L15.7481301,5.78715514 L7.37489691,5.77955902 C7.31977766,5.78927803 7.2744184,5.82842717 7.25674714,5.88153015 C6.99697305,6.66219594 6.88255469,7.44700748 6.91253747,8.23869895 C6.94431319,9.07773311 7.02746435,9.91887416 7.16203488,10.7622286 C7.16354683,10.7717048 7.16775057,10.7802933 7.17387703,10.7871551 Z"></path>
        </g>
      </g>
    </g>
  </g>
</svg>
