
<svg width="62px" height="60px" viewBox="0 0 62 60" version="1.1" xmlns="http://www.w3.org/2000/svg" xmlns:xlink="http://www.w3.org/1999/xlink">
  <!-- Generator: Sketch 43.2 (39069) - http://www.bohemiancoding.com/sketch -->
  <desc>Created with Sketch.</desc>
  <defs>
    <path d="M0.300710829,20.9786751 C0.686917574,9.39247279 10.4079804,0 22.0061566,0 L39.9938434,0 C51.5952233,0 61.3129775,9.38932566 61.6992892,20.9786751 L62,30 L61.6992892,39.0213249 C61.3130824,50.6075272 51.5920196,60 39.9938434,60 L22.0061566,60 C10.4047767,60 0.687022478,50.6106743 0.300710829,39.0213249 L0,30 L0.300710829,20.9786751 Z" id="path-1"></path>
    <polyline id="path-2" points="20.3629557 20 26.6666667 20 30 30 0 30 3.33333333 20 9.5505778 20"></polyline>
    <path d="M9.82832841,22.1273274 C5.97951512,20.2208562 3.33333333,16.2527859 3.33333333,11.6666667 C3.33333333,5.22334459 8.55667792,0 15,0 C21.4433221,0 26.6666667,5.22334459 26.6666667,11.6666667 C26.6666667,16.2527859 24.0204849,20.2208562 20.1716716,22.1273274 L15,28.3333333 L9.82832841,22.1273274 Z" id="path-3"></path>
    <circle id="path-4" cx="15" cy="11.6666667" r="6.66666667"></circle>
  </defs>
  <g id="云主机" stroke="none" stroke-width="1" fill="none" fill-rule="evenodd">
    <g id="*图标" transform="translate(-60.000000, -443.000000)">
      <g id="Group-91" transform="translate(60.000000, 443.000000)">
        <g id="Rectangle-11-Copy">
          <use fill="#FAFDFF" fill-rule="evenodd" xlink:href="#path-1"></use>
          <path stroke="#97A4B6" stroke-width="1" d="M0.800433282,20.9953326 C1.17761651,9.67983562 10.6764403,0.5 22.0061566,0.5 L39.9938434,0.5 C51.3267452,0.5 60.822278,9.67667031 61.1995667,20.9953326 L61.5002775,30.0166574 L61.1995667,39.0046674 C60.8223835,50.3201644 51.3235597,59.5 39.9938434,59.5 L22.0061566,59.5 C10.6732548,59.5 1.17772202,50.3233297 0.800433282,39.0046674 L0.499722453,29.9833426 L0.800433282,20.9953326 L0.800433282,20.9953326 Z"></path>
        </g>
        <g id="Group-90" transform="translate(16.000000, 15.000000)">
          <g id="Rectangle-33">
            <use fill="#FAFDFF" fill-rule="evenodd" xlink:href="#path-2"></use>
            <path stroke="#97A4B6" stroke-width="1" d="M26.3062871,20.5 L29.3062871,29.5 L0.693712943,29.5 L3.69371294,20.5 L9.5505778,20.5 L20.3629557,20.5 L26.3062871,20.5 Z"></path>
          </g>
          <g id="Combined-Shape">
            <use fill="#FAFDFF" fill-rule="evenodd" xlink:href="#path-3"></use>
            <path stroke="#97A4B6" stroke-width="1" d="M15,27.5523084 L10.2124391,21.8072352 L10.0502633,21.6792818 C6.27380765,19.8086522 3.83333333,15.9565281 3.83333333,11.6666667 C3.83333333,5.49948696 8.83282029,0.5 15,0.5 C21.1671797,0.5 26.1666667,5.49948696 26.1666667,11.6666667 C26.1666667,15.9565281 23.7261924,19.8086522 19.9497367,21.6792818 L19.7875609,21.8072352 L15,27.5523084 Z"></path>
          </g>
          <g id="Oval-15">
            <use fill="#D6DBE2" fill-rule="evenodd" xlink:href="#path-4"></use>
            <circle stroke="#97A4B6" stroke-width="1" cx="15" cy="11.6666667" r="6.16666667"></circle>
          </g>
        </g>
      </g>
    </g>
  </g>
</svg>
