<svg width="36px" height="36px" viewBox="0 0 36 36" version="1.1" xmlns="http://www.w3.org/2000/svg" xmlns:xlink="http://www.w3.org/1999/xlink">
  <!-- Generator: Sketch 42 (36781) - http://www.bohemiancoding.com/sketch -->
  <desc>Created with Sketch.</desc>
  <defs>
    <polyline id="path-1" points="12.2177734 12 16 12 18 18 0 18 2 12 5.73034668 12"></polyline>
    <mask id="mask-2" maskContentUnits="userSpaceOnUse" maskUnits="objectBoundingBox" x="0" y="0" width="18" height="6" fill="white">
      <use xlink:href="#path-1"></use>
    </mask>
    <path d="M5.89699705,13.2763965 C3.58770907,12.1325137 2,9.75167153 2,7 C2,3.13400675 5.13400675,0 9,0 C12.8659932,0 16,3.13400675 16,7 C16,9.75167153 14.4122909,12.1325137 12.103003,13.2763965 L9,17 L5.89699705,13.2763965 Z" id="path-3"></path>
    <mask id="mask-4" maskContentUnits="userSpaceOnUse" maskUnits="objectBoundingBox" x="0" y="0" width="14" height="17" fill="white">
      <use xlink:href="#path-3"></use>
    </mask>
    <circle id="path-5" cx="9" cy="7" r="4"></circle>
    <mask id="mask-6" maskContentUnits="userSpaceOnUse" maskUnits="objectBoundingBox" x="0" y="0" width="8" height="8" fill="white">
      <use xlink:href="#path-5"></use>
    </mask>
  </defs>
  <g id="Group-58" stroke="none" stroke-width="1" fill="none" fill-rule="evenodd">
    <rect id="Rectangle-2" x="0" y="0" width="36" height="36"></rect>
    <g id="Group-58-Copy" transform="translate(9.000000, 9.000000)" stroke="#FFFFFF" stroke-width="2.2">
      <use id="Rectangle-33" mask="url(#mask-2)" xlink:href="#path-1"></use>
      <use id="Combined-Shape" mask="url(#mask-4)" xlink:href="#path-3"></use>
      <use id="Oval-15" mask="url(#mask-6)" fill-opacity="0.4" fill="#0077D2" xlink:href="#path-5"></use>
    </g>
  </g>
</svg>
