<?xml version="1.0" encoding="UTF-8"?>
<svg width="36px" height="36px" viewBox="0 0 36 36" version="1.1" xmlns="http://www.w3.org/2000/svg" xmlns:xlink="http://www.w3.org/1999/xlink">
  <!-- Generator: Sketch 45.1 (43504) - http://www.bohemiancoding.com/sketch -->
  <title>Group 4 Copy 23</title>
  <desc>Created with Sketch.</desc>
  <defs></defs>
  <g id="Hybrid" stroke="none" stroke-width="1" fill="none" fill-rule="evenodd">
    <g id="Group-94">
      <rect id="Rectangle-2" x="0" y="0" width="36" height="36"></rect>
      <g id="Group-93" transform="translate(8.000000, 8.000000)">
        <path d="M0.5,15.5 L19.5,15.5 L19.5,5.9955775 C19.5,5.72093484 19.2797655,5.5 19.0081969,5.5 L0.99180311,5.5 C0.727110798,5.5 0.5,5.72620117 0.5,5.9955775 L0.5,15.5 Z" id="Rectangle" stroke="#3C73B9"></path>
        <rect id="Rectangle-37" fill="#3C73B9" x="9.66666667" y="8.66666667" width="1" height="4" rx="0.5"></rect>
        <rect id="Rectangle-37" fill="#3C73B9" x="13" y="8.66666667" width="1" height="4" rx="0.5"></rect>
        <rect id="Rectangle-37" fill="#3C73B9" x="16.3333333" y="8.66666667" width="1" height="4" rx="0.5"></rect>
        <path d="M0.5,15.5 L0.5,19.0001925 C0.5,19.2793847 0.719442199,19.5 0.99180311,19.5 L19.0081969,19.5 C19.2724156,19.5 19.5,19.2723641 19.5,19.0001925 L19.5,15.5 L0.5,15.5 Z" id="Rectangle-37-Copy-2" stroke="#3C73B9"></path>
        <rect id="Rectangle-37-Copy-4" fill="#3C73B9" x="15" y="0" width="1" height="6" rx="0.5"></rect>
        <rect id="Rectangle-37-Copy-4" fill="#3C73B9" x="4" y="0" width="1" height="6" rx="0.5"></rect>
      </g>
    </g>
  </g>
</svg>
