<?xml version="1.0" encoding="UTF-8"?>
<svg width="62px" height="60px" viewBox="0 0 62 60" version="1.1" xmlns="http://www.w3.org/2000/svg" xmlns:xlink="http://www.w3.org/1999/xlink">
  <!-- Generator: Sketch 47.1 (45422) - http://www.bohemiancoding.com/sketch -->
  <title>Group 159</title>
  <desc>Created with Sketch.</desc>
  <defs>
    <path d="M0.300710829,20.9786751 C0.686917574,9.39247279 10.4079804,0 22.0061566,0 L39.9938434,0 C51.5952233,0 61.3129775,9.38932566 61.6992892,20.9786751 L62,30 L61.6992892,39.0213249 C61.3130824,50.6075272 51.5920196,60 39.9938434,60 L22.0061566,60 C10.4047767,60 0.687022478,50.6106743 0.300710829,39.0213249 L0,30 L0.300710829,20.9786751 Z" id="path-1"></path>
    <rect id="path-2" x="4" y="17" width="4" height="3" rx="1"></rect>
    <rect id="path-3" x="10" y="17" width="4" height="3" rx="1"></rect>
    <rect id="path-4" x="18" y="17" width="8" height="3" rx="1"></rect>
    <path d="M0,23 L30,23 L30,28.9970707 C30,29.5509732 29.5526348,30 29.0018463,30 L0.998153687,30 C0.446888627,30 0,29.5621186 0,28.9970707 L0,23 Z" id="path-5"></path>
  </defs>
  <g id="UI-KIT" stroke="none" stroke-width="1" fill="none" fill-rule="evenodd">
    <g id="*图标" transform="translate(-840.000000, -1290.000000)">
      <g id="Group-159" transform="translate(840.000000, 1290.000000)">
        <g id="Rectangle-11-Copy-3">
          <use fill="#FAFDFF" fill-rule="evenodd" xlink:href="#path-1"></use>
          <path stroke="#97A4B6" stroke-width="1" d="M0.800433282,20.9953326 L0.499722453,29.9833426 L0.800433282,39.0046674 C1.17772202,50.3233297 10.6732548,59.5 22.0061566,59.5 L39.9938434,59.5 C51.3235597,59.5 60.8223835,50.3201644 61.1995667,39.0046674 L61.5002775,30.0166574 L61.1995667,20.9953326 C60.822278,9.67667031 51.3267452,0.5 39.9938434,0.5 L22.0061566,0.5 C10.6764403,0.5 1.17761651,9.67983562 0.800433282,20.9953326 Z"></path>
        </g>
        <g id="Group-158" transform="translate(16.000000, 15.000000)">
          <path d="M0.5,23.5 L29.5,23.5 L29.5,13.9955775 C29.5,13.7216493 29.2776386,13.5 29.0018463,13.5 L0.998153687,13.5 C0.723017339,13.5 0.5,13.7223684 0.5,13.9955775 L0.5,23.5 Z" id="Rectangle" stroke="#97A4B6"></path>
          <g id="Rectangle-37">
            <use fill="#D2D9E2" fill-rule="evenodd" xlink:href="#path-2"></use>
            <rect stroke="#97A4B6" stroke-width="1" x="4.5" y="17.5" width="3" height="2" rx="1"></rect>
          </g>
          <g id="Rectangle-37">
            <use fill="#D2D9E2" fill-rule="evenodd" xlink:href="#path-3"></use>
            <rect stroke="#97A4B6" stroke-width="1" x="10.5" y="17.5" width="3" height="2" rx="1"></rect>
          </g>
          <g id="Rectangle-37">
            <use fill="#D2D9E2" fill-rule="evenodd" xlink:href="#path-4"></use>
            <rect stroke="#97A4B6" stroke-width="1" x="18.5" y="17.5" width="7" height="2" rx="1"></rect>
          </g>
          <g id="Rectangle-37-Copy-2">
            <use fill-opacity="0.39770154" fill="#97A4B6" fill-rule="evenodd" xlink:href="#path-5"></use>
            <path stroke="#97A4B6" stroke-width="1" d="M0.5,23.5 L0.5,28.9970707 C0.5,29.2817982 0.718842671,29.5 0.998153687,29.5 L29.0018463,29.5 C29.2761585,29.5 29.5,29.2751617 29.5,28.9970707 L29.5,23.5 L0.5,23.5 Z"></path>
          </g>
          <path d="M9,10 C9,6.687 11.687,4 15,4 C18.313,4 21,6.687 21,10 L20,10 C20,7.238 17.762,5 15,5 C12.238,5 10,7.238 10,10 L9,10 Z" id="Page-1" fill="#97A4B6"></path>
          <path d="M5,10 C5,4.478 9.478,0 15,0 C20.522,0 25,4.478 25,10 L24,10 C24,5.029 19.971,1 15,1 C10.029,1 6,5.029 6,10 L5,10 Z" id="Page-1" fill="#97A4B6"></path>
        </g>
      </g>
    </g>
  </g>
</svg>
