<?xml version="1.0" encoding="UTF-8"?>
<svg width="62px" height="60px" viewBox="0 0 62 60" version="1.1" xmlns="http://www.w3.org/2000/svg" xmlns:xlink="http://www.w3.org/1999/xlink">
  <!-- Generator: Sketch 44.1 (41455) - http://www.bohemiancoding.com/sketch -->
  <title>Group 23</title>
  <desc>Created with Sketch.</desc>
  <defs>
    <path d="M0.300710829,20.9786751 C0.686917574,9.39247279 10.4079804,0 22.0061566,0 L39.9938434,0 C51.5952233,0 61.3129775,9.38932566 61.6992892,20.9786751 L62,30 L61.6992892,39.0213249 C61.3130824,50.6075272 51.5920196,60 39.9938434,60 L22.0061566,60 C10.4047767,60 0.687022478,50.6106743 0.300710829,39.0213249 L0,30 L0.300710829,20.9786751 Z" id="path-1"></path>
    <rect id="path-2" x="0" y="0" width="30" height="20" rx="1"></rect>
    <path d="M7,1.0575329 L7,8.94258481 L7,8.94258481 C7,9.49486956 6.55228475,9.94258481 6,9.94258481 C5.77593475,9.94258481 5.55836145,9.86733376 5.38217538,9.72890074 L0.364455345,5.78637478 L0.364455345,5.78637478 C-0.069814952,5.44515967 -0.145251082,4.81650453 0.195964032,4.38223423 C0.245211726,4.31955585 0.301776964,4.26299062 0.364455345,4.21374292 L5.38217538,0.271216967 L5.38217538,0.271216967 C5.81644568,-0.0699981475 6.44510082,0.00543798262 6.78631593,0.439708279 C6.92474895,0.615894351 7,0.833467652 7,1.0575329 Z" id="path-3"></path>
    <path d="M20,1.0575329 L20,8.94258481 L20,8.94258481 C20,9.49486956 19.5522847,9.94258481 19,9.94258481 C18.7759348,9.94258481 18.5583615,9.86733376 18.3821754,9.72890074 L13.3644553,5.78637478 L13.3644553,5.78637478 C12.930185,5.44515967 12.8547489,4.81650453 13.195964,4.38223423 C13.2452117,4.31955585 13.301777,4.26299062 13.3644553,4.21374292 L18.3821754,0.271216967 L18.3821754,0.271216967 C18.8164457,-0.0699981475 19.4451008,0.00543798262 19.7863159,0.439708279 C19.924749,0.615894351 20,0.833467652 20,1.0575329 Z" id="path-4"></path>
    <rect id="path-5" x="6" y="3" width="8" height="4"></rect>
    <circle id="path-6" cx="15" cy="25" r="4"></circle>
  </defs>
  <g id="Hybrid" stroke="none" stroke-width="1" fill="none" fill-rule="evenodd">
    <g id="*导航_normal&amp;selected-间距调整" transform="translate(-780.000000, -243.000000)">
      <g id="Group-23" transform="translate(780.000000, 243.000000)">
        <g id="Rectangle-11">
          <use fill="#FAFDFF" fill-rule="evenodd" xlink:href="#path-1"></use>
          <path stroke="#97A4B6" stroke-width="1" d="M0.800433282,20.9953326 L0.499722453,29.9833426 L0.800433282,39.0046674 C1.17772202,50.3233297 10.6732548,59.5 22.0061566,59.5 L39.9938434,59.5 C51.3235597,59.5 60.8223835,50.3201644 61.1995667,39.0046674 L61.5002775,30.0166574 L61.1995667,20.9953326 C60.822278,9.67667031 51.3267452,0.5 39.9938434,0.5 L22.0061566,0.5 C10.6764403,0.5 1.17761651,9.67983562 0.800433282,20.9953326 Z"></path>
        </g>
        <g id="Group-20" transform="translate(16.000000, 16.000000)">
          <g id="Rectangle-3">
            <use fill="#FAFDFF" fill-rule="evenodd" xlink:href="#path-2"></use>
            <rect stroke="#97A4B6" stroke-width="1" x="0.5" y="0.5" width="29" height="19" rx="1"></rect>
          </g>
          <rect id="Rectangle-45" fill="#97A4B6" x="0" y="24.5" width="30" height="1" rx="0.5"></rect>
          <g id="Group-19" transform="translate(5.000000, 5.000000)">
            <g id="Group-18">
              <g id="Combined-Shape">
                <use fill-opacity="0.39770154" fill="#97A4B6" fill-rule="evenodd" xlink:href="#path-3"></use>
                <path stroke="#97A4B6" stroke-width="1" d="M6.5,1.0575329 C6.5,0.945500274 6.46237448,0.836713624 6.39315797,0.748620588 C6.22255041,0.53148544 5.90822284,0.493767375 5.69108769,0.664374932 L0.673367653,4.60690089 C0.642028463,4.63152473 0.613745844,4.65980735 0.589121997,4.69114654 C0.41851444,4.90828169 0.456232505,5.22260926 0.673367653,5.39321682 L5.69108769,9.33574277 C5.77918073,9.40495928 5.88796738,9.44258481 6,9.44258481 C6.27614237,9.44258481 6.5,9.21872718 6.5,8.94258481 L6.5,1.0575329 Z"></path>
              </g>
              <g id="Combined-Shape-Copy" transform="translate(16.500000, 5.000029) scale(-1, 1) translate(-16.500000, -5.000029) ">
                <use fill-opacity="0.39770154" fill="#97A4B6" fill-rule="evenodd" xlink:href="#path-4"></use>
                <path stroke="#97A4B6" stroke-width="1" d="M19.5,1.0575329 C19.5,0.945500274 19.4623745,0.836713624 19.393158,0.748620588 C19.2225504,0.53148544 18.9082228,0.493767375 18.6910877,0.664374932 L13.6733677,4.60690089 C13.6420285,4.63152473 13.6137458,4.65980735 13.589122,4.69114654 C13.4185144,4.90828169 13.4562325,5.22260926 13.6733677,5.39321682 L18.6910877,9.33574277 C18.7791807,9.40495928 18.8879674,9.44258481 19,9.44258481 C19.2761424,9.44258481 19.5,9.21872718 19.5,8.94258481 L19.5,1.0575329 Z"></path>
              </g>
              <g id="Rectangle-47">
                <use fill-opacity="0.39770154" fill="#97A4B6" fill-rule="evenodd" xlink:href="#path-5"></use>
                <rect stroke="#97A4B6" stroke-width="1" x="6.5" y="3.5" width="7" height="3"></rect>
              </g>
            </g>
            <rect id="Rectangle-48" fill="#D2D9E2" x="6" y="4" width="1" height="2"></rect>
            <rect id="Rectangle-48-Copy" fill="#D2D9E2" x="13" y="4" width="1" height="2"></rect>
          </g>
          <g id="Oval-6">
            <use fill="#FAFDFF" fill-rule="evenodd" xlink:href="#path-6"></use>
            <circle stroke="#97A4B6" stroke-width="1" cx="15" cy="25" r="3.5"></circle>
          </g>
        </g>
      </g>
    </g>
  </g>
</svg>
