<?xml version="1.0" encoding="UTF-8"?>
<svg width="62px" height="60px" viewBox="0 0 62 60" version="1.1" xmlns="http://www.w3.org/2000/svg" xmlns:xlink="http://www.w3.org/1999/xlink">
  <!-- Generator: Sketch 45.1 (43504) - http://www.bohemiancoding.com/sketch -->
  <title>Rectangle 11</title>
  <desc>Created with Sketch.</desc>
  <defs>
    <path d="M780.300711,123.978675 C780.686918,112.392473 790.40798,103 802.006157,103 L819.993843,103 C831.595223,103 841.312978,112.389326 841.699289,123.978675 L842,133 L841.699289,142.021325 C841.313082,153.607527 831.59202,163 819.993843,163 L802.006157,163 C790.404777,163 780.687022,153.610674 780.300711,142.021325 L780,133 L780.300711,123.978675 Z" id="path-1"></path>
    <path d="M4.808,10.0064 C1.9984,10.992 0,13.6608 0,16.8 C0,20.768 3.2288,24 7.2112,24 L25.5904,24 C29.1408,24 32,21.1344 32,17.6 C32,14.072 29.1312,11.2 25.5904,11.2 C25.5904,10.936 25.6,10.6688 25.6,10.4 C25.6,4.656 20.944,0 15.2,0 C9.5888,0 5.0144,4.4448 4.808,10.0064 Z" id="path-2"></path>
    <path d="M17.8293171,10.9959163 L22.9151035,16.0817027 L22.9151035,16.0817027 C23.3056278,16.472227 23.3056278,17.105392 22.9151035,17.4959163 L17.8293171,22.5817027 L17.8293171,22.5817027 C17.4387928,22.972227 16.8056278,22.972227 16.4151035,22.5817027 C16.2275671,22.3941663 16.1222103,22.1398124 16.1222103,21.8745959 L16.1222103,19.7888095 L8.93935283,19.7888095 L8.5753068,19.7962592 L7.50539139,13.7888095 L16.1222103,13.7888095 L16.1222103,11.703023 L16.1222103,11.703023 C16.1222103,11.1507383 16.5699256,10.703023 17.1222103,10.703023 C17.3874268,10.703023 17.6417807,10.8083799 17.8293171,10.9959163 Z" id="path-4"></path>
  </defs>
  <g id="Hybrid" stroke="none" stroke-width="1" fill="none" fill-rule="evenodd">
    <g id="混合云_导航" transform="translate(-780.000000, -103.000000)">
      <g id="Rectangle-11">
        <use fill="#FAFDFF" fill-rule="evenodd" xlink:href="#path-1"></use>
        <path stroke="#97A4B6" stroke-width="1" d="M780.800433,123.995333 L780.499722,132.983343 L780.800433,142.004667 C781.177722,153.32333 790.673255,162.5 802.006157,162.5 L819.993843,162.5 C831.32356,162.5 840.822383,153.320164 841.199567,142.004667 L841.500278,133.016657 L841.199567,123.995333 C840.822278,112.67667 831.326745,103.5 819.993843,103.5 L802.006157,103.5 C790.67644,103.5 781.177617,112.679836 780.800433,123.995333 Z"></path>
      </g>
      <g id="Path-7-Copy" transform="translate(795.000000, 120.000000)">
        <mask id="mask-3" fill="white">
          <use xlink:href="#path-2"></use>
        </mask>
        <g id="Mask">
          <use fill="#FAFDFF" fill-rule="evenodd" xlink:href="#path-2"></use>
          <path stroke="#97A4B6" stroke-width="1" d="M5.30765604,10.024943 L5.29502013,10.365427 L4.97351028,10.4782118 C2.31036182,11.412437 0.5,13.9292399 0.5,16.8 C0.5,20.4946089 3.50769587,23.5 7.2112,23.5 L25.5904,23.5 C28.8610014,23.5 31.5,20.8619125 31.5,17.6 C31.5,14.3456302 28.8525436,11.7 25.5904,11.7 L25.0904,11.7 L25.0904,11.2 C25.0904,11.0860851 25.09161,10.9968444 25.0952809,10.792806 C25.0988114,10.5965712 25.1,10.5081165 25.1,10.4 C25.1,4.93214237 20.6678576,0.5 15.2,0.5 C9.87238662,0.5 5.50462741,4.71740445 5.30765604,10.024943 Z"></path>
        </g>
        <g id="Rectangle-29" mask="url(#mask-3)" transform="translate(15.356694, 16.788809) scale(1, -1) rotate(100.000000) translate(-15.356694, -16.788809) ">
          <use fill-opacity="0.39770154" fill="#97A4B6" fill-rule="evenodd" xlink:href="#path-4"></use>
          <path stroke="#97A4B6" stroke-width="1" d="M8.10230828,14.2888095 L8.99279879,19.2888095 L16.6222103,19.2888095 L16.6222103,21.8745959 C16.6222103,22.0072042 16.6748887,22.1343811 16.7686569,22.2281493 C16.9639191,22.4234114 17.2805015,22.4234114 17.4757637,22.2281493 L22.5615501,17.1423629 C22.7568123,16.9471007 22.7568123,16.6305182 22.5615501,16.4352561 L17.4757637,11.3494696 C17.3819955,11.2557015 17.2548185,11.203023 17.1222103,11.203023 C16.8460679,11.203023 16.6222103,11.4268807 16.6222103,11.703023 L16.6222103,14.2888095 L8.10230828,14.2888095 Z"></path>
        </g>
      </g>
    </g>
  </g>
</svg>
