<?xml version="1.0" encoding="UTF-8"?>
<svg width="36px" height="36px" viewBox="0 0 36 36" version="1.1" xmlns="http://www.w3.org/2000/svg" xmlns:xlink="http://www.w3.org/1999/xlink">
    <!-- Generator: Sketch 45.1 (43504) - http://www.bohemiancoding.com/sketch -->
    <title>Group 62 Copy 7</title>
    <desc>Created with Sketch.</desc>
    <defs></defs>
    <g id="Hybrid" stroke="none" stroke-width="1" fill="none" fill-rule="evenodd">
        <g id="Group-96-Copy">
            <polygon id="Rectangle-11-Copy" points="0 0 36 0 36 18 36 36 0 36 0 18"></polygon>
            <g id="Group-95" transform="translate(8.000000, 8.000000)">
                <rect id="Rectangle-3" stroke="#97A4B6" x="1.5" y="0.5" width="17" height="12" rx="1"></rect>
                <rect id="Rectangle-45" fill="#97A4B6" x="0" y="16" width="8.5" height="1" rx="0.5"></rect>
                <rect id="Rectangle-45-Copy" fill="#97A4B6" x="12" y="16" width="8" height="1" rx="0.5"></rect>
                <path d="M12.5962765,5.58369964 L7.40372354,5.58369964 L7.40372354,4.32575497 C7.40372354,4.21261039 7.36534856,4.10281095 7.29486943,4.01429888 C7.12285698,3.79827497 6.80829136,3.76259663 6.59226745,3.93460907 L3.86169659,6.10886919 C3.832215,6.13234437 3.80548196,6.1590774 3.78200678,6.18855899 C3.60999433,6.4045829 3.64567268,6.71914852 3.86169659,6.89116097 L6.59226745,9.06542108 C6.68077952,9.13590021 6.79057896,9.17427519 6.90372354,9.17427519 C7.17986591,9.17427519 7.40372354,8.95041756 7.40372354,8.67427519 L7.40372354,7.41624717 L12.5962765,7.41624717 L12.5962765,8.67427519 C12.5962765,8.95041756 12.8201341,9.17427519 13.0962765,9.17427519 C13.209421,9.17427519 13.3192205,9.13590021 13.4077325,9.06542108 L16.1383034,6.89116097 C16.3543273,6.71914852 16.3900057,6.4045829 16.2179932,6.18855899 C16.194518,6.1590774 16.167785,6.13234437 16.1383034,6.10886919 L13.4077325,3.93460907 C13.1917086,3.76259663 12.877143,3.79827497 12.7051306,4.01429888 C12.6346514,4.10281095 12.5962765,4.21261039 12.5962765,4.32575497 L12.5962765,5.58369964 Z" id="Combined-Shape" stroke="#97A4B6"></path>
                <circle id="Oval-6" stroke="#97A4B6" cx="10.5" cy="16.5" r="2"></circle>
            </g>
        </g>
    </g>
</svg>
