<?xml version="1.0" encoding="UTF-8"?>
<svg width="36px" height="36px" viewBox="0 0 36 36" version="1.1" xmlns="http://www.w3.org/2000/svg" xmlns:xlink="http://www.w3.org/1999/xlink">
  <!-- Generator: Sketch 45.1 (43504) - http://www.bohemiancoding.com/sketch -->
  <title>Group 4 Copy 7</title>
  <desc>Created with Sketch.</desc>
  <defs>
    <path d="M3.005,6.254 C1.249,6.87 0,8.538 0,10.5 C0,12.98 2.018,15 4.507,15 L15.994,15 C18.213,15 20,13.209 20,11 C20,8.795 18.207,7 15.994,7 C15.994,6.835 16,6.668 16,6.5 C16,2.91 13.09,0 9.5,0 C5.993,0 3.134,2.778 3.005,6.254 Z" id="path-1"></path>
  </defs>
  <g id="Hybrid" stroke="none" stroke-width="1" fill="none" fill-rule="evenodd">
    <g id="Group-32-Copy">
      <g id="Group-3-Copy-4">
        <polygon id="Rectangle-11-Copy-2" points="0 0 36 0 36 18 36 36 0 36 0 18"></polygon>
        <polygon id="Rectangle-11-Copy-7" points="0 0 36 0 36 18 36 36 0 36 0 18"></polygon>
      </g>
      <g id="Path-7-Copy-4" transform="translate(8.000000, 10.000000)">
        <mask id="mask-2" fill="white">
          <use xlink:href="#path-1"></use>
        </mask>
        <path stroke="#97A4B6" d="M3.50465604,6.27254305 L3.49202013,6.613027 L3.17051028,6.72581177 C1.58069948,7.28351305 0.5,8.78592413 0.5,10.5 C0.5,12.705545 2.29583115,14.5 4.507,14.5 L15.994,14.5 C17.934587,14.5 19.5,12.9351274 19.5,11 C19.5,9.06960125 17.9293153,7.5 15.994,7.5 L15.494,7.5 L15.494,7 C15.494,6.92729755 15.4947978,6.86846029 15.4970809,6.74213095 C15.4992967,6.61841625 15.5,6.56607905 15.5,6.5 C15.5,3.18614237 12.8138576,0.5 9.5,0.5 C6.27117506,0.5 3.62402628,3.05602392 3.50465604,6.27254305 Z"></path>
        <path d="M5.87350005,9.45272045 L6.33655511,12.0527205 L10.9466745,12.0527205 L10.9466745,12.8385069 C10.9466745,12.9711151 10.9993529,13.0982921 11.0931211,13.1920603 C11.2883833,13.3873224 11.6049658,13.3873224 11.8002279,13.1920603 L13.8860143,11.1062738 C14.0812765,10.9110117 14.0812765,10.5944292 13.8860143,10.3991671 L11.8002279,8.31338062 C11.7064597,8.21961244 11.5792828,8.16693402 11.4466745,8.16693402 C11.1705321,8.16693402 10.9466745,8.39079164 10.9466745,8.66693402 L10.9466745,9.45272045 L5.87350005,9.45272045 Z" id="Rectangle-29" stroke="#97A4B6" mask="url(#mask-2)" transform="translate(9.904522, 10.752720) scale(1, -1) rotate(100.000000) translate(-9.904522, -10.752720) "></path>
      </g>
    </g>
  </g>
</svg>
