<?xml version="1.0" encoding="UTF-8"?>
<svg width="62px" height="60px" viewBox="0 0 62 60" version="1.1" xmlns="http://www.w3.org/2000/svg" xmlns:xlink="http://www.w3.org/1999/xlink">
  <!-- Generator: Sketch 45.2 (43514) - http://www.bohemiancoding.com/sketch -->
  <title>Group 121 Copy</title>
  <desc>Created with Sketch.</desc>
  <defs>
    <path d="M0.300710829,20.9786751 C0.686917574,9.39247279 10.4079804,0 22.0061566,0 L39.9938434,0 C51.5952233,0 61.3129775,9.38932566 61.6992892,20.9786751 L62,30 L61.6992892,39.0213249 C61.3130824,50.6075272 51.5920196,60 39.9938434,60 L22.0061566,60 C10.4047767,60 0.687022478,50.6106743 0.300710829,39.0213249 L0,30 L0.300710829,20.9786751 Z" id="path-1"></path>
    <path d="M21.6200736,19.8275296 L13.8371744,19.8275296 L13.8371744,17 C13.8371744,16.4477153 13.3894591,16 12.8371744,16 L9,16 L9,16 C8.44771525,16 8,16.4477153 8,17 L8,17 L8,24.568824 C8,25.1211088 8.44771525,25.568824 9,25.568824 L9,25.568824 L11.8778808,25.568824 L21.6200736,25.568824 L21.6200736,27.9670149 L21.6200736,27.9670149 C21.6200736,28.5192997 22.0677889,28.9670149 22.6200736,28.9670149 C22.8824218,28.9670149 23.1342629,28.8639185 23.3213009,28.6799527 L23.3213009,28.6799527 L28.6781289,23.4111146 L28.6781289,23.4111146 C29.0718736,23.0238375 29.0771166,22.3906942 28.6898394,21.9969496 C28.6859683,21.9930138 28.6820647,21.9891101 28.6781289,21.985239 L23.3213009,16.7164009 L23.3213009,16.7164009 C22.9275562,16.3291238 22.2944129,16.3343668 21.9071358,16.7281115 C21.7231701,16.9151494 21.6200736,17.1669905 21.6200736,17.4293387 L21.6200736,19.8275296 Z" id="path-2"></path>
  </defs>
  <g id="UI-KIT" stroke="none" stroke-width="1" fill="none" fill-rule="evenodd">
    <g id="Group-121-Copy">
      <g id="Rectangle-11-Copy">
        <use fill="#FAFDFF" fill-rule="evenodd" xlink:href="#path-1"></use>
        <path stroke="#97A4B6" stroke-width="1" d="M0.800433282,20.9953326 L0.499722453,29.9833426 L0.800433282,39.0046674 C1.17772202,50.3233297 10.6732548,59.5 22.0061566,59.5 L39.9938434,59.5 C51.3235597,59.5 60.8223835,50.3201644 61.1995667,39.0046674 L61.5002775,30.0166574 L61.1995667,20.9953326 C60.822278,9.67667031 51.3267452,0.5 39.9938434,0.5 L22.0061566,0.5 C10.6764403,0.5 1.17761651,9.67983562 0.800433282,20.9953326 Z"></path>
      </g>
      <g id="Group-120" transform="translate(17.000000, 15.500000)">
        <path d="M14.252058,1.45208129 L14.252058,4.53771022 L5.39373914,4.53771022 L5.39373914,1 C5.39373914,0.723857625 5.16988151,0.5 4.89373914,0.5 L1,0.5 C0.723857625,0.5 0.5,0.723857625 0.5,1 L0.5,9.09427555 C0.5,9.37041792 0.723857625,9.59427555 1,9.59427555 L14.252058,9.59427555 L14.252058,12.6799045 C14.252058,12.9560469 14.4759156,13.1799045 14.752058,13.1799045 C14.8870284,13.1799045 15.016266,13.1253382 15.1103954,13.0286082 L20.5733812,7.41469665 C20.7622647,7.22059489 20.7622647,6.91139088 20.5733812,6.71728912 L15.1103954,1.10337753 C14.9178116,0.905473248 14.6012585,0.901160125 14.4033542,1.09374389 C14.3066243,1.18787329 14.252058,1.31711085 14.252058,1.45208129 Z" id="Combined-Shape" stroke="#97A4B6" transform="translate(10.500000, 6.500000) scale(1, -1) translate(-10.500000, -6.500000) "></path>
        <g id="Combined-Shape" transform="translate(18.500000, 22.500000) scale(-1, 1) translate(-18.500000, -22.500000) ">
          <use fill-opacity="0.39770154" fill="#97A4B6" fill-rule="evenodd" xlink:href="#path-2"></use>
          <path stroke="#97A4B6" stroke-width="1" d="M22.1200736,17.4293387 L22.1200736,20.3275296 L13.3371744,20.3275296 L13.3371744,17 C13.3371744,16.7238576 13.1133168,16.5 12.8371744,16.5 L9,16.5 C8.72385763,16.5 8.5,16.7238576 8.5,17 L8.5,24.568824 C8.5,24.8449664 8.72385763,25.068824 9,25.068824 L22.1200736,25.068824 L22.1200736,27.9670149 C22.1200736,28.2431573 22.3439312,28.4670149 22.6200736,28.4670149 C22.7512477,28.4670149 22.8771683,28.4154667 22.9706872,28.3234838 L28.3275153,23.0546457 C28.5243876,22.8610072 28.5270091,22.5444355 28.3333705,22.3475632 C28.330459,22.3446194 28.330459,22.3446194 28.3275153,22.3417079 L22.9706872,17.0728698 C22.7738149,16.8792313 22.4572433,16.8818528 22.2636047,17.0787251 C22.1716218,17.1722441 22.1200736,17.2981646 22.1200736,17.4293387 Z"></path>
        </g>
      </g>
    </g>
  </g>
</svg>
