<?xml version="1.0" encoding="UTF-8"?>
<svg width="36px" height="36px" viewBox="0 0 36 36" version="1.1" xmlns="http://www.w3.org/2000/svg" xmlns:xlink="http://www.w3.org/1999/xlink">
  <!-- Generator: Sketch 45.1 (43504) - http://www.bohemiancoding.com/sketch -->
  <title>Group 4 Copy 22</title>
  <desc>Created with Sketch.</desc>
  <defs></defs>
  <g id="Hybrid" stroke="none" stroke-width="1" fill="none" fill-rule="evenodd">
    <g id="Group-109-Copy">
      <rect id="Rectangle-2-Copy-4" x="0" y="0" width="36" height="36"></rect>
      <path d="M17.8329935,9.74760905 L17.8329935,11.1666667 L11.4998544,11.1666667 L11.4998544,9 C11.4998544,8.72385763 11.2759967,8.5 10.9998544,8.5 L9,8.5 C8.72385763,8.5 8.5,8.72385763 8.5,9 L8.5,13.6666667 C8.5,13.942809 8.72385763,14.1666667 9,14.1666667 L17.8329935,14.1666667 L17.8329935,15.5857243 C17.8329935,15.8618667 18.0568511,16.0857243 18.3329935,16.0857243 C18.4656049,16.0857243 18.5927846,16.0330434 18.6865502,15.9392744 L21.6054532,13.0202136 C21.8007067,12.8249529 21.8007067,12.5083804 21.6054501,12.3131166 L18.6865533,9.3940621 C18.4912947,9.1987964 18.1747123,9.19879063 17.9794466,9.39404923 C17.8856744,9.48781794 17.8329935,9.61499765 17.8329935,9.74760905 Z" id="Combined-Shape" stroke="#97A4B6" transform="translate(15.195000, 12.528595) scale(1, -1) translate(-15.195000, -12.528595) "></path>
      <path d="M23.1666667,20.4142136 L23.1666667,21.8333333 L16.8333333,21.8333333 L16.8333333,19.6666667 C16.8333333,19.3905243 16.6094757,19.1666667 16.3333333,19.1666667 L14.3333333,19.1666667 C14.057191,19.1666667 13.8333333,19.3905243 13.8333333,19.6666667 L13.8333333,24.3333333 C13.8333333,24.6094757 14.057191,24.8333333 14.3333333,24.8333333 L23.1666667,24.8333333 L23.1666667,26.2524531 C23.1666667,26.5285955 23.3905243,26.7524531 23.6666667,26.7524531 C23.7992749,26.7524531 23.9264519,26.6997747 24.0202201,26.6060065 L26.9393398,23.6868867 C27.134602,23.4916246 27.134602,23.1750421 26.9393398,22.9797799 L24.0202201,20.0606602 C23.8249579,19.865398 23.5083754,19.865398 23.3131133,20.0606602 C23.2193451,20.1544284 23.1666667,20.2816053 23.1666667,20.4142136 Z" id="Combined-Shape" stroke="#97A4B6" transform="translate(20.528595, 23.195262) scale(-1, 1) translate(-20.528595, -23.195262) "></path>
    </g>
  </g>
</svg>
