<?xml version="1.0" encoding="UTF-8"?>
<svg width="62px" height="60px" viewBox="0 0 62 60" version="1.1" xmlns="http://www.w3.org/2000/svg" xmlns:xlink="http://www.w3.org/1999/xlink">
    <!-- Generator: Sketch 48.2 (47327) - http://www.bohemiancoding.com/sketch -->
    <title>wizard_virtual_border_router_n</title>
    <desc>Created with Sketch.</desc>
    <defs>
        <path d="M20.5480332,7.5480697 L20.5480332,35.5334124 C20.5480332,36.0856972 20.100318,36.5334124 19.5480332,36.5334124 L14.5859312,36.5334124 C14.0336464,36.5334124 13.5859312,36.0856972 13.5859312,35.5334124 L13.5859312,16.8217506 C13.5859312,16.2694658 13.1382159,15.8217506 12.5859312,15.8217506 L10.4665876,15.8217506 C9.91430283,15.8217506 9.46658758,15.3740353 9.46658758,14.8217506 C9.46658758,14.5181674 9.60449584,14.2310217 9.84144591,14.0412393 L18.9228916,6.7675584 C19.3539561,6.42230219 19.9832883,6.49186355 20.3285445,6.92292803 C20.4706191,7.10031306 20.5480332,7.32080198 20.5480332,7.5480697 Z" id="path-1"></path>
    </defs>
    <g id="*图标" stroke="none" stroke-width="1" fill="none" fill-rule="evenodd" transform="translate(-1128.000000, -1241.000000)">
        <g id="wizard_virtual_border_router_n" transform="translate(1128.000000, 1241.000000)">
            <g id="Group-57">
                <path d="M0.300710829,20.9786751 C0.686917574,9.39247279 10.4079804,0 22.0061566,0 L39.9938434,0 C51.5952233,0 61.3129775,9.38932566 61.6992892,20.9786751 L62,30 L61.6992892,39.0213249 C61.3130824,50.6075272 51.5920196,60 39.9938434,60 L22.0061566,60 C10.4047767,60 0.687022478,50.6106743 0.300710829,39.0213249 L0,30 L0.300710829,20.9786751 Z" id="Rectangle-11"></path>
            </g>
            <g id="Group-21-Copy" transform="translate(16.000000, 16.000000)">
                <path d="M19.9987584,-7.49871086 C19.9987584,-7.60951771 19.9619505,-7.71718556 19.8941165,-7.80480233 C19.7250668,-8.02315257 19.4110172,-8.06311859 19.1926669,-7.89406894 L10.1881812,-0.922676843 C10.0658686,-0.827980756 9.99427271,-0.682004691 9.99427271,-0.527318759 C9.99427271,-0.251176384 10.2181303,-0.0273187593 10.4942727,-0.0273187593 L12.5366563,-0.0273187593 C13.3650834,-0.0273187593 14.0366563,0.644254116 14.0366563,1.47268124 L14.0366563,20.4942727 C14.0366563,20.7704151 14.2605139,20.9942727 14.5366563,20.9942727 L19.4987584,20.9942727 C19.7749008,20.9942727 19.9987584,20.7704151 19.9987584,20.4942727 L19.9987584,-7.49871086 Z" id="Rectangle-49" stroke="#97A4B6" transform="translate(14.996516, 6.497757) rotate(90.000000) translate(-14.996516, -6.497757) "></path>
                <g id="Rectangle-49" transform="translate(15.007310, 21.540723) scale(-1, -1) rotate(90.000000) translate(-15.007310, -21.540723) ">
                    <use fill-opacity="0.39770154" fill="#97A4B6" fill-rule="evenodd" xlink:href="#path-1"></use>
                    <path stroke="#97A4B6" stroke-width="1" d="M20.0480332,7.5480697 C20.0480332,7.43443584 20.0093262,7.32419138 19.9382889,7.23549887 C19.7656608,7.01996663 19.4509947,6.98518595 19.2354624,7.15781405 L10.1540167,14.4314949 C10.0355417,14.5263861 9.96658758,14.669959 9.96658758,14.8217506 C9.96658758,15.0978929 10.1904452,15.3217506 10.4665876,15.3217506 L12.5859312,15.3217506 C13.4143583,15.3217506 14.0859312,15.9933234 14.0859312,16.8217506 L14.0859312,35.5334124 C14.0859312,35.8095548 14.3097888,36.0334124 14.5859312,36.0334124 L19.5480332,36.0334124 C19.8241756,36.0334124 20.0480332,35.8095548 20.0480332,35.5334124 L20.0480332,7.5480697 Z"></path>
                </g>
            </g>
        </g>
    </g>
</svg>


