<?xml version="1.0" encoding="UTF-8"?>
<svg width="62px" height="60px" viewBox="0 0 62 60" version="1.1" xmlns="http://www.w3.org/2000/svg" xmlns:xlink="http://www.w3.org/1999/xlink">
    <!-- Generator: Sketch 48.2 (47327) - http://www.bohemiancoding.com/sketch -->
    <title>wizard_daho_vll_h</title>
    <desc>Created with Sketch.</desc>
    <defs>
        <circle id="path-1" cx="4.5" cy="24" r="4.5"></circle>
        <circle id="path-2" cx="25.5" cy="24" r="4.5"></circle>
    </defs>
    <g id="*图标" stroke="none" stroke-width="1" fill="none" fill-rule="evenodd" transform="translate(-1219.000000, -1144.000000)">
        <g id="wizard_daho_vll_h" transform="translate(1219.000000, 1144.000000)">
            <g id="Group-66-Copy-2">
                <g id="Group-57">
                    <path d="M0.300710829,20.9786751 C0.686917574,9.39247279 10.4079804,0 22.0061566,0 L39.9938434,0 C51.5952233,0 61.3129775,9.38932566 61.6992892,20.9786751 L62,30 L61.6992892,39.0213249 C61.3130824,50.6075272 51.5920196,60 39.9938434,60 L22.0061566,60 C10.4047767,60 0.687022478,50.6106743 0.300710829,39.0213249 L0,30 L0.300710829,20.9786751 Z" id="Rectangle-11"></path>
                </g>
            </g>
            <g id="daho_vll" transform="translate(16.000000, 16.000000)">
                <g id="Group-172">
                    <path d="M11.5,0.5 C11.2238576,0.5 11,0.723857625 11,1 L11,8 C11,8.27614237 11.2238576,8.5 11.5,8.5 L18.5,8.5 C18.7761424,8.5 19,8.27614237 19,8 L19,1 C19,0.723857625 18.7761424,0.5 18.5,0.5 L11.5,0.5 Z" id="Rectangle-27" stroke="#007FDF"></path>
                    <rect id="Rectangle-50" fill="#007FDF" x="14.5" y="9" width="1" height="6"></rect>
                    <g id="Oval-28">
                        <use fill="#E0F3FF" fill-rule="evenodd" xlink:href="#path-1"></use>
                        <circle stroke="#007FDF" stroke-width="1" cx="4.5" cy="24" r="4"></circle>
                    </g>
                    <g id="Oval-28-Copy">
                        <use fill="#E0F3FF" fill-rule="evenodd" xlink:href="#path-2"></use>
                        <circle stroke="#007FDF" stroke-width="1" cx="25.5" cy="24" r="4"></circle>
                    </g>
                    <rect id="Rectangle-31" fill="#007FDF" x="8.5" y="23.25" width="13" height="1"></rect>
                    <path d="M5,20 L5,16 C5,15.4477153 5.44771525,15 6,15 L24,15 C24.5522847,15 25,15.4477153 25,16 L25,20" id="Path-28" stroke="#007FDF" stroke-linecap="round" stroke-linejoin="round"></path>
                </g>
            </g>
        </g>
    </g>
</svg>

