
<svg width="37px" height="2px" viewBox="0 0 37 2" version="1.1" xmlns="http://www.w3.org/2000/svg" xmlns:xlink="http://www.w3.org/1999/xlink">
  <!-- Generator: Sketch 44.1 (41455) - http://www.bohemiancoding.com/sketch -->
  <desc>Created with Sketch.</desc>
  <defs></defs>
  <g id="wizard" stroke="none" stroke-width="1" fill="none" fill-rule="evenodd">
    <g id="wizard_状态" transform="translate(-404.000000, -443.000000)" fill="#007FDF">
      <g id="Group-5" transform="translate(240.000000, 414.000000)">
        <path d="M179,30.9902439 C178.447715,30.9902439 178,30.5447126 178,29.995122 C178,29.4455313 178.447715,29 179,29 C179.552285,29 180,29.4455313 180,29.995122 C180,30.5447126 179.552285,30.9902439 179,30.9902439 Z M186,31 C185.447715,31 185,30.5522847 185,30 C185,29.4477153 185.447715,29 186,29 C186.552285,29 187,29.4477153 187,30 C187,30.5522847 186.552285,31 186,31 Z M165,30.9902439 C164.447715,30.9902439 164,30.5447126 164,29.995122 C164,29.4455313 164.447715,29 165,29 C165.552285,29 166,29.4455313 166,29.995122 C166,30.5447126 165.552285,30.9902439 165,30.9902439 Z M172,31 C171.447715,31 171,30.5522847 171,30 C171,29.4477153 171.447715,29 172,29 C172.552285,29 173,29.4477153 173,30 C173,30.5522847 172.552285,31 172,31 Z M193,31 C192.447715,31 192,30.5522847 192,30 C192,29.4477153 192.447715,29 193,29 C193.552285,29 194,29.4477153 194,30 C194,30.5522847 193.552285,31 193,31 Z M200,31 C199.447715,31 199,30.5522847 199,30 C199,29.4477153 199.447715,29 200,29 C200.552285,29 201,29.4477153 201,30 C201,30.5522847 200.552285,31 200,31 Z" id="Combined-Shape"></path>
      </g>
    </g>
  </g>
</svg>
