
<svg width="62px" height="61px" viewBox="0 0 62 61" version="1.1" xmlns="http://www.w3.org/2000/svg" xmlns:xlink="http://www.w3.org/1999/xlink">
  <!-- Generator: Sketch 44.1 (41455) - http://www.bohemiancoding.com/sketch -->
  <desc>Created with Sketch.</desc>
  <defs>
    <path d="M15.6599121,17.9967041 C18.559407,17.9967041 20.9099121,15.646199 20.9099121,12.7467041 C20.9099121,9.84720917 18.559407,7.4967041 15.6599121,7.4967041 C12.7604172,7.4967041 10.4099121,9.84720917 10.4099121,12.7467041 C10.4099121,15.646199 12.7604172,17.9967041 15.6599121,17.9967041 Z" id="path-1"></path>
  </defs>
  <g id="wizard" stroke="none" stroke-width="1" fill="none" fill-rule="evenodd">
    <g transform="translate(-1788.000000, -90.000000)" id="Group-30">
      <g transform="translate(1788.000000, 90.000000)">
        <path d="M0.300710829,20.9786751 C0.686917574,9.39247279 10.4079804,0 22.0061566,0 L39.9938434,0 C51.5952233,0 61.3129775,9.38932566 61.6992892,20.9786751 L62,30 L61.6992892,39.0213249 C61.3130824,50.6075272 51.5920196,60 39.9938434,60 L22.0061566,60 C10.4047767,60 0.687022478,50.6106743 0.300710829,39.0213249 L0,30 L0.300710829,20.9786751 Z" id="Rectangle-11-Copy"></path>
        <g id="Group-103" transform="translate(16.000000, 16.000000)">
          <g id="Oval">
            <use fill-opacity="0.39770154" fill="#97A4B6" fill-rule="evenodd" xlink:href="#path-1"></use>
            <path stroke="#97A4B6" stroke-width="1" d="M15.6599121,17.4967041 C18.2832647,17.4967041 20.4099121,15.3700567 20.4099121,12.7467041 C20.4099121,10.1233515 18.2832647,7.9967041 15.6599121,7.9967041 C13.0365595,7.9967041 10.9099121,10.1233515 10.9099121,12.7467041 C10.9099121,15.3700567 13.0365595,17.4967041 15.6599121,17.4967041 Z"></path>
          </g>
          <path d="M3.75,26.5 C5.54492544,26.5 7,25.0449254 7,23.25 C7,21.4550746 5.54492544,20 3.75,20 C1.95507456,20 0.5,21.4550746 0.5,23.25 C0.5,25.0449254 1.95507456,26.5 3.75,26.5 Z" id="Oval-Copy" stroke="#97A4B6"></path>
          <path d="M23.25,7 C25.0449254,7 26.5,5.54492544 26.5,3.75 C26.5,1.96826884 25.0004337,0.5 23.1921387,0.5 C21.4106899,0.5 20,1.94141498 20,3.75 C20,5.54492544 21.4550746,7 23.25,7 Z" id="Oval-Copy-3" stroke="#97A4B6"></path>
          <circle id="Oval-Copy-2" stroke="#97A4B6" cx="15.75" cy="24.75" r="3.25"></circle>
          <circle id="Oval-Copy-2" stroke="#97A4B6" cx="26.1213203" cy="21" r="2.5"></circle>
          <path d="M7.85568237,6.04602051 C9.23639425,6.04602051 10.3556824,4.92673238 10.3556824,3.54602051 C10.3556824,2.16530863 9.23639425,1.04602051 7.85568237,1.04602051 C6.4749705,1.04602051 5.35568237,2.16530863 5.35568237,3.54602051 C5.35568237,4.92673238 6.4749705,6.04602051 7.85568237,6.04602051 Z" id="Oval-Copy-4" stroke="#97A4B6"></path>
          <path d="M15.75,17.25 L15.75,21.75" id="Path-6" stroke="#97A4B6"></path>
          <rect id="Rectangle-15" fill="#97A4B6" transform="translate(8.840990, 18.272971) rotate(-315.000000) translate(-8.840990, -18.272971) " x="8.34099026" y="14.3942911" width="1" height="7.75735931"></rect>
          <polygon id="Rectangle-15-Copy" fill="#97A4B6" transform="translate(19.609427, 7.547136) rotate(-315.000000) translate(-19.609427, -7.547136) " points="19.1094275 5.60779667 20.1094275 5.60779667 20.1094275 9.48647633 19.1094275 9.48647633"></polygon>
          <polygon id="Rectangle-15" fill="#97A4B6" transform="translate(21.564832, 17.388371) scale(-1, 1) rotate(-315.000000) translate(-21.564832, -17.388371) " points="21.0648325 14.3883711 22.0648325 14.3883711 22.0648325 20.3883711 21.0648325 20.3883711"></polygon>
          <polygon id="Rectangle-15-Copy-2" fill="#97A4B6" transform="translate(11.182146, 7.065377) scale(-1, 1) rotate(-315.000000) translate(-11.182146, -7.065377) " points="10.6821465 4.81537743 11.6821465 4.81537743 11.6821465 9.31537743 10.6821465 9.31537743"></polygon>
        </g>
      </g>
    </g>
  </g>
</svg>
