<?xml version="1.0" encoding="UTF-8"?>
<svg width="62px" height="60px" viewBox="0 0 62 60" version="1.1" xmlns="http://www.w3.org/2000/svg" xmlns:xlink="http://www.w3.org/1999/xlink">
    <!-- Generator: Sketch 48.2 (47327) - http://www.bohemiancoding.com/sketch -->
    <title>wizard_routerInterface_n</title>
    <desc>Created with Sketch.</desc>
    <defs>
        <circle id="path-1" cx="15" cy="15" r="15"></circle>
        <path d="M17.1212652,10.0503077 L15.7083306,8.63737299 C15.3178063,8.2468487 14.6846413,8.2468487 14.294117,8.63737299 L8.63731786,14.2941721 C8.24679357,14.6846964 8.24679357,15.3178614 8.63731786,15.7083857 L10.0502525,17.1213203 L-0.556349186,27.7279221 L2.27207794,30.5563492 L12.8786797,19.9497475 L14.294117,21.3651848 C14.6846413,21.7557091 15.3178063,21.7557091 15.7083306,21.3651848 L21.3651297,15.7083857 C21.755654,15.3178614 21.755654,14.6846964 21.3651297,14.2941721 L19.9496923,12.8787348 L28.0814755,4.74695167 L25.2530483,1.91852455 L17.1212652,10.0503077 Z" id="path-3"></path>
    </defs>
    <g id="*图标" stroke="none" stroke-width="1" fill="none" fill-rule="evenodd" transform="translate(-1128.000000, -1314.000000)">
        <g id="wizard_routerInterface_n" transform="translate(1128.000000, 1314.000000)">
            <g id="Group-57-Copy">
                <path d="M0.300710829,20.9786751 C0.686917574,9.39247279 10.4079804,0 22.0061566,0 L39.9938434,0 C51.5952233,0 61.3129775,9.38932566 61.6992892,20.9786751 L62,30 L61.6992892,39.0213249 C61.3130824,50.6075272 51.5920196,60 39.9938434,60 L22.0061566,60 C10.4047767,60 0.687022478,50.6106743 0.300710829,39.0213249 L0,30 L0.300710829,20.9786751 Z" id="Rectangle-11"></path>
            </g>
            <g id="Group-31-Copy" transform="translate(16.000000, 15.000000)">
                <circle id="Mask" cx="15" cy="15" r="15"></circle>
                <mask id="mask-2" fill="white">
                    <use xlink:href="#path-1"></use>
                </mask>
                <circle stroke="#97A4B6" cx="15" cy="15" r="14.5"></circle>
                <g id="Combined-Shape" mask="url(#mask-2)">
                    <use fill-opacity="0.39770154" fill="#97A4B6" fill-rule="evenodd" xlink:href="#path-3"></use>
                    <path stroke="#97A4B6" stroke-width="1" d="M0.150757595,27.7279221 L2.27207794,29.8492424 L12.8786797,19.2426407 L14.6476704,21.0116314 C14.8429325,21.2068936 15.159515,21.2068936 15.3547772,21.0116314 L21.0115763,15.3548323 C21.2068384,15.1595701 21.2068384,14.8429876 21.0115763,14.6477255 L19.2425856,12.8787348 L27.3743687,4.74695167 L25.2530483,2.62563133 L17.1212652,10.7574144 L15.3547772,8.99092638 C15.159515,8.79566423 14.8429325,8.79566423 14.6476704,8.99092638 L8.99087125,14.6477255 C8.79560911,14.8429876 8.79560911,15.1595701 8.99087125,15.3548323 L10.7573593,17.1213203 L0.150757595,27.7279221 Z"></path>
                </g>
                <path d="M5.45405845,11.1109127 C5.25879631,11.3061748 5.25879631,11.6227573 5.45405845,11.8180195 L6.86827202,13.232233 C7.06353416,13.4274952 7.38011665,13.4274952 7.5753788,13.232233 L8.98959236,11.8180195 C9.18485451,11.6227573 9.18485451,11.3061748 8.98959236,11.1109127 L7.5753788,9.69669914 C7.38011665,9.501437 7.06353416,9.501437 6.86827202,9.69669914 L5.45405845,11.1109127 Z" id="Rectangle-32-Copy-4" stroke="#97A4B6" mask="url(#mask-2)"></path>
                <polygon id="Rectangle-34-Copy-2" fill="#97A4B6" mask="url(#mask-2)" points="7.5753788 10.4038059 20.3033009 -2.32411614 21.0104076 -1.61700936 8.28248558 11.1109127"></polygon>
                <path d="M21.0104076,18.1819805 C20.8151455,18.3772427 20.8151455,18.6938252 21.0104076,18.8890873 L22.4246212,20.3033009 C22.6198833,20.498563 22.9364658,20.498563 23.131728,20.3033009 L24.5459415,18.8890873 C24.7412037,18.6938252 24.7412037,18.3772427 24.5459415,18.1819805 L23.131728,16.767767 C22.9364658,16.5725048 22.6198833,16.5725048 22.4246212,16.767767 L21.0104076,18.1819805 Z" id="Rectangle-32-Copy-3" stroke="#97A4B6" mask="url(#mask-2)"></path>
                <polygon id="Rectangle-34-Copy" fill="#97A4B6" mask="url(#mask-2)" points="8.28248558 32.3241161 21.0104076 19.5961941 21.7175144 20.3033009 8.98959236 33.0312229"></polygon>
            </g>
        </g>
    </g>
</svg>

