
<svg width="62px" height="61px" viewBox="0 0 62 61" version="1.1" xmlns="http://www.w3.org/2000/svg" xmlns:xlink="http://www.w3.org/1999/xlink">
  <!-- Generator: Sketch 44.1 (41455) - http://www.bohemiancoding.com/sketch -->
  <desc>Created with Sketch.</desc>
  <defs>
    <path d="M0.794991224,2.79056698 L13.7949912,0.0676178145 L13.7949912,0.0676178145 C14.3355455,-0.0456054063 14.8655369,0.300814877 14.9787601,0.841369173 C14.9928822,0.908791472 15,0.977492534 15,1.04637795 L15,28.0919993 L1,28.0919993 L1,28.0919993 C0.44771525,28.0919993 -8.15469881e-16,27.6442841 -2.10942375e-15,27.0919993 L0,3.76932712 L8.8817842e-16,3.76932712 C8.30219396e-16,3.29605577 0.331772095,2.88759176 0.794991224,2.79056698 Z" id="path-1"></path>
    <path d="M15.2050032,0.0678550121 L28.2050032,2.79072687 L28.2050032,2.79072687 C28.668225,2.88774945 29,3.29621468 29,3.76948817 L29,27.091442 L29,27.091442 C29,27.6437268 28.5522847,28.091442 28,28.091442 L14,28.091442 L14,14.5499755 L14,12.09508 L14,1.04661631 L14,1.04661631 C14,0.494331565 14.4477153,0.0466163149 15,0.0466163149 C15.0688835,0.0466163149 15.1375827,0.0537336717 15.2050032,0.0678550121 Z" id="path-2"></path>
  </defs>
  <g id="wizard" stroke="none" stroke-width="1" fill="none" fill-rule="evenodd">
    <g id="wizard_状态" transform="translate(-864.000000, -414.000000)">
      <g id="Group-65" transform="translate(864.000000, 414.000000)">
        <path d="M0.300710829,20.9786751 C0.686917574,9.39247279 10.4079804,0 22.0061566,0 L39.9938434,0 C51.5952233,0 61.3129775,9.38932566 61.6992892,20.9786751 L62,30 L61.6992892,39.0213249 C61.3130824,50.6075272 51.5920196,60 39.9938434,60 L22.0061566,60 C10.4047767,60 0.687022478,50.6106743 0.300710829,39.0213249 L0,30 L0.300710829,20.9786751 Z" id="Rectangle-11"></path>
        <g id="Group-38" transform="translate(17.000000, 17.000000)">
          <g id="Rectangle-19" transform="translate(7.500000, 14.046000) scale(1, -1) translate(-7.500000, -14.046000) ">
            <use fill-opacity="0.4" fill="#FFFFFF" fill-rule="evenodd" xlink:href="#path-1"></use>
            <path stroke="#007FDF" stroke-width="1" d="M14.5,27.5919993 L14.5,1.04637795 C14.5,1.01193524 14.4964411,0.977584711 14.4893801,0.943873561 C14.4327685,0.673596413 14.1677728,0.500386272 13.8974956,0.556997882 L0.897495612,3.27994705 C0.665886047,3.32845944 0.5,3.53269144 0.5,3.76932712 L0.5,27.0919993 C0.5,27.3681417 0.723857625,27.5919993 1,27.5919993 L14.5,27.5919993 Z"></path>
          </g>
          <g id="Rectangle-19-Copy" transform="translate(21.500000, 14.045721) scale(1, -1) translate(-21.500000, -14.045721) ">
            <use fill="#E0F3FF" fill-rule="evenodd" xlink:href="#path-2"></use>
            <path stroke="#007FDF" stroke-width="1" d="M14.5,27.591442 L28,27.591442 C28.2761424,27.591442 28.5,27.3675844 28.5,27.091442 L28.5,3.76948817 C28.5,3.53285143 28.3341125,3.32861881 28.1025016,3.28010752 L15.1025016,0.557235663 C15.0687913,0.550174993 15.0344418,0.546616315 15,0.546616315 C14.7238576,0.546616315 14.5,0.77047394 14.5,1.04661631 L14.5,27.591442 Z"></path>
          </g>
          <rect id="Rectangle-5-Copy-2" fill="#007FDF" transform="translate(21.368421, 8.500000) rotate(-270.000000) translate(-21.368421, -8.500000) " x="19" y="8" width="4.73684211" height="1" rx="0.5"></rect>
          <rect id="Rectangle-5-Copy-3" fill="#007FDF" transform="translate(7.368421, 8.500000) rotate(-270.000000) translate(-7.368421, -8.500000) " x="5" y="8" width="4.73684211" height="1" rx="0.5"></rect>
        </g>
      </g>
    </g>
  </g>
</svg>
