
<svg width="62px" height="60px" viewBox="0 0 62 60" version="1.1" xmlns="http://www.w3.org/2000/svg" xmlns:xlink="http://www.w3.org/1999/xlink">
  <!-- Generator: Sketch 44.1 (41455) - http://www.bohemiancoding.com/sketch -->
  <desc>Created with Sketch.</desc>
  <defs>
    <circle id="path-1" cx="15" cy="15" r="15"></circle>
    <circle id="path-3" cx="15" cy="15" r="9"></circle>
  </defs>
  <g id="wizard" stroke="none" stroke-width="1" fill="none" fill-rule="evenodd">
    <g id="wizard_状态" transform="translate(-310.000000, -252.000000)">
      <g id="Group-23" transform="translate(310.000000, 252.000000)">
        <path d="M0.300710829,20.9786751 C0.686917574,9.39247279 10.4079804,0 22.0061566,0 L39.9938434,0 C51.5952233,0 61.3129775,9.38932566 61.6992892,20.9786751 L62,30 L61.6992892,39.0213249 C61.3130824,50.6075272 51.5920196,60 39.9938434,60 L22.0061566,60 C10.4047767,60 0.687022478,50.6106743 0.300710829,39.0213249 L0,30 L0.300710829,20.9786751 Z" id="Rectangle-11"></path>
        <g id="Group-123" transform="translate(16.000000, 15.000000)">
          <mask id="mask-2" fill="white">
            <use xlink:href="#path-1"></use>
          </mask>
          <g id="Mask">
            <use fill-opacity="0.4" fill="#FFFFFF" fill-rule="evenodd" xlink:href="#path-1"></use>
            <circle stroke="#007FDF" stroke-width="1" cx="15" cy="15" r="14.5"></circle>
          </g>
          <g id="Mask" mask="url(#mask-2)">
            <use fill="#E0F3FF" fill-rule="evenodd" xlink:href="#path-3"></use>
            <circle stroke="#007FDF" stroke-width="1" cx="15" cy="15" r="8.5"></circle>
          </g>
          <path d="M14.6464466,15.1868519 C14.8417088,15.382114 15.1580892,15.382316 15.3527261,15.1876792 L25.248629,5.29177626 C25.4434342,5.09697104 25.4373533,4.77504839 25.2478017,4.58549682 C25.0525395,4.39023467 24.736159,4.39003267 24.5415222,4.58466948 L14.6456193,14.4805724 C14.4508141,14.6753777 14.456895,14.9973003 14.6464466,15.1868519 Z" id="Rectangle-36" fill="#007FDF" mask="url(#mask-2)"></path>
        </g>
      </g>
    </g>
  </g>
</svg>
