<?xml version="1.0" encoding="UTF-8"?>
<svg width="60px" height="60px" viewBox="0 0 60 60" version="1.1" xmlns="http://www.w3.org/2000/svg" xmlns:xlink="http://www.w3.org/1999/xlink">
    <!-- Generator: Sketch 51.1 (57501) - http://www.bohemiancoding.com/sketch -->
    <title>wizard_server_h</title>
    <desc>Created with Sketch.</desc>
    <defs></defs>
    <g id="混合云" stroke="none" stroke-width="1" fill="none" fill-rule="evenodd">
        <g id="wizard_状态" transform="translate(-311.000000, -873.000000)">
            <g id="wizard_server_h" transform="translate(311.000000, 873.000000)">
                <g id="Group-3-Copy-5">
                    <polygon id="Rectangle-11-Copy-2" points="0 0 60 0 60 30 60 60 0 60 0 30"></polygon>
                    <polygon id="Rectangle-11-Copy-7" points="0 0 60 0 60 30 60 60 0 60 0 30"></polygon>
                </g>
                <g id="Group-45-Copy" transform="translate(15.000000, 17.000000)">
                    <rect id="Rectangle-4" stroke="#007FDF" x="0.5" y="0.5" width="29" height="6" rx="1"></rect>
                    <rect id="Rectangle-4-Copy" stroke="#007FDF" x="3.5" y="6.5" width="23" height="4" rx="1"></rect>
                    <rect id="Rectangle-4-Copy-2" stroke="#007FDF" x="3.5" y="16.5" width="23" height="4" rx="1"></rect>
                    <rect id="Rectangle-4" stroke="#007FDF" x="0.5" y="10.5" width="29" height="6" rx="1"></rect>
                    <rect id="Rectangle-4" stroke="#007FDF" fill="#E0F3FF" x="0.5" y="20.5" width="29" height="6" rx="1"></rect>
                    <path d="M4,23 L9,23 L9,23.8888889 L4,23.8888889 L4,23 Z M22,23 L23,23 L23,24 L22,24 L22,23 Z M25,23 L26,23 L26,24 L25,24 L25,23 Z M19,23 L20,23 L20,24 L19,24 L19,23 Z" id="Combined-Shape" fill="#007FDF"></path>
                    <path d="M4,13 L9,13 L9,13.8888889 L4,13.8888889 L4,13 Z M22,13 L23,13 L23,14 L22,14 L22,13 Z M25,13 L26,13 L26,14 L25,14 L25,13 Z M19,13 L20,13 L20,14 L19,14 L19,13 Z" id="Combined-Shape-Copy-14" fill="#007FDF"></path>
                    <path d="M4,3 L9,3 L9,3.88888889 L4,3.88888889 L4,3 Z M22,3 L23,3 L23,4 L22,4 L22,3 Z M25,3 L26,3 L26,4 L25,4 L25,3 Z M19,3 L20,3 L20,4 L19,4 L19,3 Z" id="Combined-Shape-Copy-15" fill="#007FDF"></path>
                </g>
            </g>
        </g>
    </g>
</svg>

