
<svg width="62px" height="60px" viewBox="0 0 62 60" version="1.1" xmlns="http://www.w3.org/2000/svg" xmlns:xlink="http://www.w3.org/1999/xlink">
  <!-- Generator: Sketch 44.1 (41455) - http://www.bohemiancoding.com/sketch -->
  <desc>Created with Sketch.</desc>
  <defs>
    <path d="M0,0.996534824 C0,0.446163838 0.445857482,0 0.990261178,0 L14.4642843,0 C15.0111904,0 15.4545455,0.449948758 15.4545455,1.00684547 L15.4545455,14 L15.9950705,14 C16.5500777,14 17,14.4499488 17,15.0068455 L17,26.9931545 C17,27.5492199 16.5452911,28 16.0000398,28 L0.999960201,28 C0.447697432,28 0,27.5601869 0,27.0034652 L0,0.996534824 Z" id="path-1"></path>
  </defs>
  <g id="wizard" stroke="none" stroke-width="1" fill="none" fill-rule="evenodd">
    <g transform="translate(-1419.000000, -90.000000)" id="Group-35">
      <g transform="translate(1419.000000, 90.000000)">
        <path d="M0.300710829,20.9786751 C0.686917574,9.39247279 10.4079804,0 22.0061566,0 L39.9938434,0 C51.5952233,0 61.3129775,9.38932566 61.6992892,20.9786751 L62,30 L61.6992892,39.0213249 C61.3130824,50.6075272 51.5920196,60 39.9938434,60 L22.0061566,60 C10.4047767,60 0.687022478,50.6106743 0.300710829,39.0213249 L0,30 L0.300710829,20.9786751 Z" id="Rectangle-11"></path>
        <g id="Group-34" transform="translate(16.000000, 16.000000)">
          <rect id="Rectangle-4" stroke="#97A4B6" x="0.5" y="0.5" width="29" height="27" rx="1"></rect>
          <g id="Rectangle-8">
            <use fill-opacity="0.39770154" fill="#97A4B6" fill-rule="evenodd" xlink:href="#path-1"></use>
            <path stroke="#97A4B6" stroke-width="1" d="M0.5,0.996534824 L0.5,27.0034652 C0.5,27.2809695 0.720755144,27.5 0.999960201,27.5 L16.0000398,27.5 C16.2713428,27.5 16.5,27.270878 16.5,26.9931545 L16.5,15.0068455 C16.5,14.726229 16.2740726,14.5 15.9950705,14.5 L14.9545455,14.5 L14.9545455,1.00684547 C14.9545455,0.724599192 14.7335197,0.5 14.4642843,0.5 L0.990261178,0.5 C0.721648534,0.5 0.5,0.722664082 0.5,0.996534824 Z"></path>
          </g>
          <rect id="Rectangle-9" fill="#97A4B6" x="7.89473684" y="6.31578947" width="1.57894737" height="1.57894737"></rect>
          <rect id="Rectangle-9-Copy" fill="#97A4B6" x="20.5263158" y="6.31578947" width="1.57894737" height="1.57894737"></rect>
        </g>
      </g>
    </g>
  </g>
</svg>
