
<svg width="63px" height="61px" viewBox="0 0 63 61" version="1.1" xmlns="http://www.w3.org/2000/svg" xmlns:xlink="http://www.w3.org/1999/xlink">
  <!-- Generator: Sketch 44.1 (41455) - http://www.bohemiancoding.com/sketch -->
  <desc>Created with Sketch.</desc>
  <defs>
    <path d="M14,0.820357498 C14,0.265370733 14.432744,-0.0938959703 14.9841919,0.0216057128 L28.0158081,2.75109964 C28.5593623,2.86494797 29,3.41494705 29,3.958041 L29,27.0906413 C29,27.6433683 28.5510798,28.091442 27.992516,28.091442 L15.007484,28.091442 C14.4510659,28.091442 14,27.6408932 14,27.0957057 L14,14.5499755 L14,12.09508 L14,0.820357498 Z" id="path-1"></path>
  </defs>
  <g id="wizard" stroke="none" stroke-width="1" fill="none" fill-rule="evenodd">
    <g transform="translate(-864.000000, -90.000000)" id="Group-65">
      <g transform="translate(864.000000, 90.000000)">
        <path d="M0.300710829,20.9786751 C0.686917574,9.39247279 10.4079804,0 22.0061566,0 L39.9938434,0 C51.5952233,0 61.3129775,9.38932566 61.6992892,20.9786751 L62,30 L61.6992892,39.0213249 C61.3130824,50.6075272 51.5920196,60 39.9938434,60 L22.0061566,60 C10.4047767,60 0.687022478,50.6106743 0.300710829,39.0213249 L0,30 L0.300710829,20.9786751 Z" id="Rectangle-11"></path>
        <g id="Group-38" transform="translate(17.000000, 17.000000)">
          <path d="M0.5,3.95791309 L0.5,27.0911702 C0.5,27.3676924 0.725978666,27.5919993 1.00748397,27.5919993 L13.992516,27.5919993 C14.2741536,27.5919993 14.5,27.3660668 14.5,27.0856138 L14.5,0.821605099 C14.5,0.579507205 14.353928,0.461394641 14.1183125,0.510746102 L1.08669628,3.24031753 C0.769654771,3.30672429 0.5,3.63894631 0.5,3.95791309 Z" id="Rectangle-19" stroke="#97A4B6" transform="translate(7.500000, 14.046000) scale(1, -1) translate(-7.500000, -14.046000) "></path>
          <g id="Rectangle-19-Copy" transform="translate(21.500000, 14.045721) scale(1, -1) translate(-21.500000, -14.045721) ">
            <use fill-opacity="0.39770154" fill="#97A4B6" fill-rule="evenodd" xlink:href="#path-1"></use>
            <path stroke="#97A4B6" stroke-width="1" d="M14.5,0.820357498 L14.5,27.0957057 C14.5,27.3654392 14.7279194,27.591442 15.007484,27.591442 L27.992516,27.591442 C28.2747749,27.591442 28.5,27.3673813 28.5,27.0906413 L28.5,3.958041 C28.5,3.64809648 28.2218424,3.30510365 27.9133065,3.24048029 L14.8816903,0.510986364 C14.6443214,0.461269044 14.5,0.579218498 14.5,0.820357498 Z"></path>
          </g>
          <rect id="Rectangle-5-Copy-2" fill="#97A4B6" transform="translate(21.368421, 8.500000) rotate(-270.000000) translate(-21.368421, -8.500000) " x="19" y="8" width="4.73684211" height="1" rx="0.5"></rect>
          <rect id="Rectangle-5-Copy-3" fill="#97A4B6" transform="translate(7.368421, 8.500000) rotate(-270.000000) translate(-7.368421, -8.500000) " x="5" y="8" width="4.73684211" height="1" rx="0.5"></rect>
        </g>
      </g>
    </g>
  </g>
</svg>
