
<svg width="37px" height="2px" viewBox="0 0 37 2" version="1.1" xmlns="http://www.w3.org/2000/svg" xmlns:xlink="http://www.w3.org/1999/xlink">
  <!-- Generator: Sketch 44.1 (41455) - http://www.bohemiancoding.com/sketch -->
  <desc>Created with Sketch.</desc>
  <defs></defs>
  <g id="wizard" stroke="none" stroke-width="1" fill="none" fill-rule="evenodd">
    <g id="wizard_状态" transform="translate(-404.000000, -119.000000)" fill="#97A4B6">
      <path d="M419,120.990244 C418.447715,120.990244 418,120.544713 418,119.995122 C418,119.445531 418.447715,119 419,119 C419.552285,119 420,119.445531 420,119.995122 C420,120.544713 419.552285,120.990244 419,120.990244 Z M426,121 C425.447715,121 425,120.552285 425,120 C425,119.447715 425.447715,119 426,119 C426.552285,119 427,119.447715 427,120 C427,120.552285 426.552285,121 426,121 Z M405,120.990244 C404.447715,120.990244 404,120.544713 404,119.995122 C404,119.445531 404.447715,119 405,119 C405.552285,119 406,119.445531 406,119.995122 C406,120.544713 405.552285,120.990244 405,120.990244 Z M412,121 C411.447715,121 411,120.552285 411,120 C411,119.447715 411.447715,119 412,119 C412.552285,119 413,119.447715 413,120 C413,120.552285 412.552285,121 412,121 Z M433,121 C432.447715,121 432,120.552285 432,120 C432,119.447715 432.447715,119 433,119 C433.552285,119 434,119.447715 434,120 C434,120.552285 433.552285,121 433,121 Z M440,121 C439.447715,121 439,120.552285 439,120 C439,119.447715 439.447715,119 440,119 C440.552285,119 441,119.447715 441,120 C441,120.552285 440.552285,121 440,121 Z" id="Combined-Shape"></path>
    </g>
  </g>
</svg>
