<?xml version="1.0" encoding="UTF-8"?>
<svg width="60px" height="60px" viewBox="0 0 60 60" version="1.1" xmlns="http://www.w3.org/2000/svg" xmlns:xlink="http://www.w3.org/1999/xlink">
  <!-- Generator: Sketch 45.2 (43514) - http://www.bohemiancoding.com/sketch -->
  <title>wizard_状态</title>
  <desc>Created with Sketch.</desc>
  <defs>
    <circle id="path-1" cx="30" cy="30" r="20"></circle>
  </defs>
  <g id="Hybrid" stroke="none" stroke-width="1" fill="none" fill-rule="evenodd">
    <g id="Group-6">
      <polygon id="Rectangle-11-Copy-3" points="0 0 60 0 60 30 60 60 0 60 0 30"></polygon>
      <g id="Oval-15">
        <use fill="#007FDF" fill-rule="evenodd" xlink:href="#path-1"></use>
        <circle stroke="#007FDF" stroke-width="1" cx="30" cy="30" r="19.5"></circle>
      </g>
      <g id="Group-5" transform="translate(22.000000, 20.000000)" stroke="#FFFFFF">
        <path d="M0.5,18.3725586 L4.45714286,18.3725583 C4.53726338,18.3725583 4.59981898,18.3469487 4.65634435,18.2905427 L17.4182491,5.5555904 C17.5290101,5.44506336 17.5290101,5.25977755 17.41642,5.14017348 L13.7611063,1.45457422 C13.6497612,1.34346431 13.4622948,1.34346431 13.3449689,1.45325884 L10.7909441,4.02090168 L0.604514552,14.165246 C0.533874184,14.2458074 0.5,14.3233546 0.5,14.3868139 L0.5,18.3725586 Z" id="Shape-Copy"></path>
        <path d="M10.0229952,4.40722467 L14.2016602,8.71289062" id="Path-9"></path>
      </g>
    </g>
  </g>
</svg>
