
<svg width="63px" height="61px" viewBox="0 0 63 61" version="1.1" xmlns="http://www.w3.org/2000/svg" xmlns:xlink="http://www.w3.org/1999/xlink">
  <!-- Generator: Sketch 44.1 (41455) - http://www.bohemiancoding.com/sketch -->
  <desc>Created with Sketch.</desc>
  <defs>
    <path d="M-5.32907052e-15,18.5096495 C-5.32907052e-15,18.2281779 0.224229097,18 0.495676249,18 L29.5043238,18 C29.7780782,18 30,18.2276528 30,18.5096495 L30,27.0046024 C30,27.5543453 29.5526348,28 29.0018463,28 L0.998153687,28 C0.446888627,28 -5.32907052e-15,27.5443356 -5.32907052e-15,27.0046024 L-5.32907052e-15,18.5096495 Z" id="path-1"></path>
  </defs>
  <g id="wizard" stroke="none" stroke-width="1" fill="none" fill-rule="evenodd">
    <g id="wizard_状态" transform="translate(-1049.000000, -414.000000)">
      <g id="Group-66-Copy" transform="translate(1049.000000, 414.000000)">
        <g id="Group-57">
          <path d="M0.300710829,20.9786751 C0.686917574,9.39247279 10.4079804,0 22.0061566,0 L39.9938434,0 C51.5952233,0 61.3129775,9.38932566 61.6992892,20.9786751 L62,30 L61.6992892,39.0213249 C61.3130824,50.6075272 51.5920196,60 39.9938434,60 L22.0061566,60 C10.4047767,60 0.687022478,50.6106743 0.300710829,39.0213249 L0,30 L0.300710829,20.9786751 Z" id="Rectangle-11"></path>
        </g>
        <g id="Group-64" transform="translate(16.000000, 16.000000)">
          <path d="M4.5222757,1.08271797 L0.512397288,18.1460498 C0.460821407,18.3655219 0.569342337,18.5 0.806363448,18.5 L29.0937317,18.5 C29.3300207,18.5 29.4390965,18.3647676 29.3876979,18.1460498 L25.3778195,1.08271797 C25.3052365,0.773853761 24.9572364,0.5 24.6347619,0.5 L5.26533331,0.5 C4.94190088,0.5 4.59492873,0.773555754 4.5222757,1.08271797 Z" id="Rectangle-14" stroke="#007FDF"></path>
          <g id="Rectangle-13">
            <use fill="#E0F3FF" fill-rule="evenodd" xlink:href="#path-1"></use>
            <path stroke="#007FDF" stroke-width="1" d="M0.5,18.5096495 L0.5,27.0046024 C0.5,27.2721145 0.7269401,27.5 0.998153687,27.5 L29.0018463,27.5 C29.2770028,27.5 29.5,27.2776919 29.5,27.0046024 L29.5,18.5096495 C29.5,18.5009907 29.4990357,18.5 29.5043238,18.5 L0.495676249,18.5 C0.50236377,18.5 0.5,18.5024226 0.5,18.5096495 Z"></path>
          </g>
          <rect id="Rectangle-5-Copy-2" fill="#007FDF" x="24" y="22.5" width="1.5" height="1.5"></rect>
        </g>
      </g>
    </g>
  </g>
</svg>
