
<svg width="62px" height="60px" viewBox="0 0 62 60" version="1.1" xmlns="http://www.w3.org/2000/svg" xmlns:xlink="http://www.w3.org/1999/xlink">
  <!-- Generator: Sketch 44.1 (41455) - http://www.bohemiancoding.com/sketch -->
  <desc>Created with Sketch.</desc>
  <defs>
    <circle id="path-1" cx="15" cy="15" r="15"></circle>
    <circle id="path-3" cx="15" cy="15" r="9"></circle>
  </defs>
  <g id="wizard" stroke="none" stroke-width="1" fill="none" fill-rule="evenodd">
    <g transform="translate(-310.000000, -90.000000)" id="Group-23">
      <g transform="translate(310.000000, 90.000000)">
        <path d="M0.300710829,20.9786751 C0.686917574,9.39247279 10.4079804,0 22.0061566,0 L39.9938434,0 C51.5952233,0 61.3129775,9.38932566 61.6992892,20.9786751 L62,30 L61.6992892,39.0213249 C61.3130824,50.6075272 51.5920196,60 39.9938434,60 L22.0061566,60 C10.4047767,60 0.687022478,50.6106743 0.300710829,39.0213249 L0,30 L0.300710829,20.9786751 Z" id="Rectangle-11"></path>
        <g id="Group-123" transform="translate(16.000000, 15.000000)">
          <mask id="mask-2" fill="white">
            <use xlink:href="#path-1"></use>
          </mask>
          <circle stroke="#97A4B6" cx="15" cy="15" r="14.5"></circle>
          <g id="Mask" mask="url(#mask-2)">
            <use fill="#D6DBE2" fill-rule="evenodd" xlink:href="#path-3"></use>
            <circle stroke="#97A4B6" stroke-width="1" cx="15" cy="15" r="8.5"></circle>
          </g>
          <path d="M19.9471241,17.3824644 C20.2232665,17.3824644 20.4471241,17.1588925 20.4471241,16.8836344 L20.4471241,2.88871426 C20.4471241,2.61321808 20.2151905,2.38988429 19.9471241,2.38988429 L19.9471241,2.38988429 C19.6709818,2.38988429 19.4471241,2.61345624 19.4471241,2.88871426 L19.4471241,16.8836344 C19.4471241,17.1591306 19.6790577,17.3824644 19.9471241,17.3824644 L19.9471241,17.3824644 Z" id="Rectangle-36" fill="#97A4B6" mask="url(#mask-2)" transform="translate(19.947124, 9.886174) rotate(-315.000000) translate(-19.947124, -9.886174) "></path>
        </g>
      </g>
    </g>
  </g>
</svg>
