
<svg width="62px" height="60px" viewBox="0 0 62 60" version="1.1" xmlns="http://www.w3.org/2000/svg" xmlns:xlink="http://www.w3.org/1999/xlink">
  <!-- Generator: Sketch 43.2 (39069) - http://www.bohemiancoding.com/sketch -->
  <desc>Created with Sketch.</desc>
  <defs>
    <path d="M62.3007108,641.978675 C62.6869176,630.392473 72.4079804,621 84.0061566,621 L101.993843,621 C113.595223,621 123.312978,630.389326 123.699289,641.978675 L124,651 L123.699289,660.021325 C123.313082,671.607527 113.59202,681 101.993843,681 L84.0061566,681 C72.4047767,681 62.6870225,671.610674 62.3007108,660.021325 L62,651 L62.3007108,641.978675 Z" id="path-1"></path>
    <circle id="path-2" cx="15" cy="15" r="15"></circle>
    <circle id="path-4" cx="15" cy="15" r="9"></circle>
  </defs>
  <g id="云主机" stroke="none" stroke-width="1" fill="none" fill-rule="evenodd">
    <g id="*图标" transform="translate(-62.000000, -621.000000)">
      <g id="Rectangle-11">
        <use fill="#FAFDFF" fill-rule="evenodd" xlink:href="#path-1"></use>
        <path stroke="#97A4B6" stroke-width="1" d="M62.8004333,641.995333 C63.1776165,630.679836 72.6764403,621.5 84.0061566,621.5 L101.993843,621.5 C113.326745,621.5 122.822278,630.67667 123.199567,641.995333 L123.500278,651.016657 L123.199567,660.004667 C122.822383,671.320164 113.32356,680.5 101.993843,680.5 L84.0061566,680.5 C72.6732548,680.5 63.177722,671.32333 62.8004333,660.004667 L62.4997225,650.983343 L62.8004333,641.995333 Z"></path>
      </g>
      <g id="Group-123" transform="translate(78.000000, 636.000000)">
        <mask id="mask-3" fill="white">
          <use xlink:href="#path-2"></use>
        </mask>
        <circle stroke="#97A4B6" cx="15" cy="15" r="14.5"></circle>
        <g id="Mask" mask="url(#mask-3)">
          <use fill="#D6DBE2" fill-rule="evenodd" xlink:href="#path-4"></use>
          <circle stroke="#97A4B6" stroke-width="1" cx="15" cy="15" r="8.5"></circle>
        </g>
        <path d="M19.9471241,17.3824644 C20.2232665,17.3824644 20.4471241,17.1588925 20.4471241,16.8836344 L20.4471241,2.88871426 C20.4471241,2.61321808 20.2151905,2.38988429 19.9471241,2.38988429 L19.9471241,2.38988429 C19.6709818,2.38988429 19.4471241,2.61345624 19.4471241,2.88871426 L19.4471241,16.8836344 C19.4471241,17.1591306 19.6790577,17.3824644 19.9471241,17.3824644 L19.9471241,17.3824644 Z" id="Rectangle-36" fill="#97A4B6" mask="url(#mask-3)" transform="translate(19.947124, 9.886174) rotate(-315.000000) translate(-19.947124, -9.886174) "></path>
      </g>
    </g>
  </g>
</svg>
