<?xml version="1.0" encoding="UTF-8"?>
<svg width="62px" height="60px" viewBox="0 0 62 60" version="1.1" xmlns="http://www.w3.org/2000/svg" xmlns:xlink="http://www.w3.org/1999/xlink">
  <!-- Generator: Sketch 48.2 (47327) - http://www.bohemiancoding.com/sketch -->
  <title>zwatch_alarm_ico</title>
  <desc>Created with Sketch.</desc>
  <defs>
    <path d="M52.3007108,1486.97868 C52.6869176,1475.39247 62.4079804,1466 74.0061566,1466 L91.9938434,1466 C103.595223,1466 113.312978,1475.38933 113.699289,1486.97868 L114,1496 L113.699289,1505.02132 C113.313082,1516.60753 103.59202,1526 91.9938434,1526 L74.0061566,1526 C62.4047767,1526 52.6870225,1516.61067 52.3007108,1505.02132 L52,1496 L52.3007108,1486.97868 Z" id="path-1"></path>
    <path d="M4.70534663,27 L25.2946534,27 C25.423085,27 25.5465918,27.0494207 25.6395718,27.1380176 L29.8374622,31.1380176 C30.0373796,31.3285107 30.0450194,31.645001 29.8545263,31.8449184 C29.7601601,31.9439531 29.6293387,32 29.4925438,32 L0.507456178,32 C0.231313803,32 0.0074561776,31.7761424 0.0074561776,31.5 C0.0074561776,31.3632051 0.0635030632,31.2323837 0.162537758,31.1380176 L4.36042821,27.1380176 C4.45340821,27.0494207 4.57691499,27 4.70534663,27 Z" id="path-2"></path>
  </defs>
  <g id="*图标" stroke="none" stroke-width="1" fill="none" fill-rule="evenodd" transform="translate(-52.000000, -1466.000000)">
    <g id="Rectangle-11-Copy">
      <use fill="#FAFDFF" fill-rule="evenodd" xlink:href="#path-1"></use>
      <path stroke="#97A4B6" stroke-width="1" d="M52.8004333,1486.99533 L52.4997225,1495.98334 L52.8004333,1505.00467 C53.177722,1516.32333 62.6732548,1525.5 74.0061566,1525.5 L91.9938434,1525.5 C103.32356,1525.5 112.822383,1516.32016 113.199567,1505.00467 L113.500278,1496.01666 L113.199567,1486.99533 C112.822278,1475.67667 103.326745,1466.5 91.9938434,1466.5 L74.0061566,1466.5 C62.6764403,1466.5 53.1776165,1475.67984 52.8004333,1486.99533 Z"></path>
    </g>
    <g id="Group-167" transform="translate(68.000000, 1480.000000)">
      <path d="M14.5,7.5 C8.9771525,7.5 4.5,11.9771525 4.5,17.5 L4.5,27 C4.5,27.2761424 4.72385763,27.5 5,27.5 L25,27.5 C25.2761424,27.5 25.5,27.2761424 25.5,27 L25.5,17.5 C25.5,11.9771525 21.0228475,7.5 15.5,7.5 L14.5,7.5 Z" id="Rectangle-25" stroke="#97A4B6"></path>
      <g id="Rectangle-26">
        <use fill-opacity="0.39770154" fill="#97A4B6" fill-rule="evenodd" xlink:href="#path-2"></use>
        <path stroke="#97A4B6" stroke-width="1" d="M4.70534663,27.5 L0.507456178,31.5 L29.4925438,31.5 L25.2946534,27.5 L4.70534663,27.5 Z"></path>
      </g>
      <path d="M9.5,14.5 L9.5,14.5 C9.77614237,14.5 10,14.7238576 10,15 L10,27.5 L9,27.5 L9,15 C9,14.7238576 9.22385763,14.5 9.5,14.5 Z" id="Rectangle-60" fill="#97A4B6"></path>
      <rect id="Rectangle-65" fill="#97A4B6" x="14.5" y="0" width="1" height="5" rx="0.5"></rect>
      <rect id="Rectangle-65" fill="#97A4B6" transform="translate(26.121320, 6.121320) rotate(-315.000000) translate(-26.121320, -6.121320) " x="25.6213203" y="3.62132034" width="1" height="5" rx="0.5"></rect>
      <rect id="Rectangle-65" fill="#97A4B6" transform="translate(4.121320, 6.121320) scale(-1, 1) rotate(-315.000000) translate(-4.121320, -6.121320) " x="3.62132034" y="3.62132034" width="1" height="5" rx="0.5"></rect>
    </g>
  </g>
</svg>
