<?xml version="1.0" encoding="UTF-8"?>
<svg width="62px" height="60px" viewBox="0 0 62 60" version="1.1" xmlns="http://www.w3.org/2000/svg" xmlns:xlink="http://www.w3.org/1999/xlink">
  <!-- Generator: Sketch 48.2 (47327) - http://www.bohemiancoding.com/sketch -->
  <title>zwatch_snstext_template_ico</title>
  <desc>Created with Sketch.</desc>
  <defs>
    <path d="M0.300710829,20.9786751 C0.686917574,9.39247279 10.4079804,0 22.0061566,0 L39.9938434,0 C51.5952233,0 61.3129775,9.38932566 61.6992892,20.9786751 L62,30 L61.6992892,39.0213249 C61.3130824,50.6075272 51.5920196,60 39.9938434,60 L22.0061566,60 C10.4047767,60 0.687022478,50.6106743 0.300710829,39.0213249 L0,30 L0.300710829,20.9786751 Z" id="path-1"></path>
    <path d="M8.15412032,0 L19.8454462,1.33226763e-15 C20.2520377,1.9798296e-15 20.6181506,0.246180038 20.7715475,0.622724953 L23.2158269,6.62272495 C23.4241902,7.13419655 23.1784723,7.717738 22.6670007,7.92610126 C22.5472056,7.97490339 22.4190799,8 22.2897257,8 L5.70984086,8 C5.15755611,8 4.70984086,7.55228475 4.70984086,7 C4.70984086,6.87064574 4.73493747,6.7425201 4.7837396,6.62272495 L7.22801907,0.622724953 C7.3814159,0.246180038 7.74752881,7.46896499e-17 8.15412032,0 Z" id="path-2"></path>
  </defs>
  <g id="*图标" stroke="none" stroke-width="1" fill="none" fill-rule="evenodd" transform="translate(-875.000000, -1451.000000)">
    <g id="zwatch_snstext_template_ico" transform="translate(875.000000, 1451.000000)">
      <g id="Rectangle-11-Copy-3">
        <use fill="#FAFDFF" fill-rule="evenodd" xlink:href="#path-1"></use>
        <path stroke="#97A4B6" stroke-width="1" d="M0.800433282,20.9953326 L0.499722453,29.9833426 L0.800433282,39.0046674 C1.17772202,50.3233297 10.6732548,59.5 22.0061566,59.5 L39.9938434,59.5 C51.3235597,59.5 60.8223835,50.3201644 61.1995667,39.0046674 L61.5002775,30.0166574 L61.1995667,20.9953326 C60.822278,9.67667031 51.3267452,0.5 39.9938434,0.5 L22.0061566,0.5 C10.6764403,0.5 1.17761651,9.67983562 0.800433282,20.9953326 Z"></path>
      </g>
      <g id="Group-179" transform="translate(17.000000, 13.000000)">
        <rect id="Rectangle-27" stroke="#97A4B6" x="0.5" y="4.5" width="27" height="27" rx="1"></rect>
        <g id="Rectangle-28">
          <use fill="#D2D9E2" fill-rule="evenodd" xlink:href="#path-2"></use>
          <path stroke="#97A4B6" stroke-width="1" d="M8.15412032,0.5 C7.95082457,0.5 7.76776811,0.623090019 7.6910697,0.811362476 L5.24679023,6.81136248 C5.22238917,6.87126005 5.20984086,6.93532287 5.20984086,7 C5.20984086,7.27614237 5.43369849,7.5 5.70984086,7.5 L22.2897257,7.5 C22.3544028,7.5 22.4184656,7.4874517 22.4783632,7.46305063 C22.734099,7.358869 22.8569579,7.06709828 22.7527763,6.81136248 L20.3084968,0.811362476 C20.2317984,0.623090019 20.048742,0.5 19.8454462,0.5 L8.15412032,0.5 Z"></path>
        </g>
        <rect id="Rectangle-66" fill="#97A4B6" x="8" y="14" width="12" height="1" rx="0.5"></rect>
        <rect id="Rectangle-66" fill="#97A4B6" x="8" y="19" width="12" height="1" rx="0.5"></rect>
        <rect id="Rectangle-66" fill="#97A4B6" x="8" y="24" width="12" height="1" rx="0.5"></rect>
      </g>
    </g>
  </g>
</svg>
