<?xml version="1.0" encoding="UTF-8"?>
<svg width="36px" height="36px" viewBox="0 0 36 36" version="1.1" xmlns="http://www.w3.org/2000/svg" xmlns:xlink="http://www.w3.org/1999/xlink">
  <!-- Generator: Sketch 48.2 (47327) - http://www.bohemiancoding.com/sketch -->
  <title>zwatch_alarm_n</title>
  <desc>Created with Sketch.</desc>
  <defs></defs>
  <g id="*图标" stroke="none" stroke-width="1" fill="none" fill-rule="evenodd" transform="translate(-893.000000, -1270.000000)">
    <g id="zwatch_alarm_n" transform="translate(893.000000, 1270.000000)">
      <rect id="Rectangle-2" x="0" y="0" width="36" height="36"></rect>
      <g id="Group-168" transform="translate(8.000000, 8.000000)">
        <path d="M10,4.5 C6.41014913,4.5 3.5,7.41014913 3.5,11 L3.5,17 C3.5,17.2761424 3.72385763,17.5 4,17.5 L16,17.5 C16.2761424,17.5 16.5,17.2761424 16.5,17 L16.5,11 C16.5,7.41014913 13.5898509,4.5 10,4.5 Z" id="Rectangle-25" stroke="#97A4B6"></path>
        <path d="M3.20710678,17.5 L1.20710678,19.5 L18.7928932,19.5 L16.7928932,17.5 L3.20710678,17.5 Z" id="Rectangle-26" stroke="#97A4B6"></path>
        <path d="M6.5,9 L6.5,9 C6.77614237,9 7,9.22385763 7,9.5 L7,17 L6,17 L6,9.5 C6,9.22385763 6.22385763,9 6.5,9 Z" id="Rectangle-60" fill="#97A4B6"></path>
        <rect id="Rectangle-65" fill="#97A4B6" x="9.5" y="0" width="1" height="3" rx="0.5"></rect>
        <rect id="Rectangle-65" fill="#97A4B6" transform="translate(16.414214, 3.414214) rotate(-315.000000) translate(-16.414214, -3.414214) " x="15.9142136" y="1.91421356" width="1" height="3" rx="0.5"></rect>
        <rect id="Rectangle-65" fill="#97A4B6" transform="translate(3.414214, 3.414214) scale(-1, 1) rotate(-315.000000) translate(-3.414214, -3.414214) " x="2.91421356" y="1.91421356" width="1" height="3" rx="0.5"></rect>
      </g>
    </g>
  </g>
</svg>
