<?xml version="1.0" encoding="UTF-8"?>
<svg width="36px" height="36px" viewBox="0 0 36 36" version="1.1" xmlns="http://www.w3.org/2000/svg" xmlns:xlink="http://www.w3.org/1999/xlink">
  <!-- Generator: Sketch 48.2 (47327) - http://www.bohemiancoding.com/sketch -->
  <title>zwatch_endpoint_n</title>
  <desc>Created with Sketch.</desc>
  <defs>
    <path d="M0,3 L20,3 L20,17 C20,17.5522847 19.5522847,18 19,18 L1,18 C0.44771525,18 6.76353751e-17,17.5522847 0,17 L0,3 Z" id="path-1"></path>
    <path d="M0,0 L20,0 L20,3 C20,3.55228475 19.5522847,4 19,4 L1,4 C0.44771525,4 6.76353751e-17,3.55228475 0,3 L0,0 Z" id="path-2"></path>
  </defs>
  <g id="*图标" stroke="none" stroke-width="1" fill="none" fill-rule="evenodd" transform="translate(-893.000000, -1401.000000)">
    <g id="zwatch_endpoint_n" transform="translate(893.000000, 1401.000000)">
      <rect id="Rectangle-2" x="0" y="0" width="36" height="36"></rect>
      <g id="Group-175" transform="translate(8.000000, 9.000000)">
        <g id="Rectangle-27">
          <use fill="#FFFFFF" fill-rule="evenodd" xlink:href="#path-1"></use>
          <path stroke="#97A4B6" stroke-width="1" d="M0.5,3.5 L0.5,17 C0.5,17.2761424 0.723857625,17.5 1,17.5 L19,17.5 C19.2761424,17.5 19.5,17.2761424 19.5,17 L19.5,3.5 L0.5,3.5 Z"></path>
        </g>
        <g id="Rectangle-27" transform="translate(10.000000, 2.000000) scale(1, -1) translate(-10.000000, -2.000000) ">
          <use fill="#FFFFFF" fill-rule="evenodd" xlink:href="#path-2"></use>
          <path stroke="#97A4B6" stroke-width="1" d="M0.5,0.5 L0.5,3 C0.5,3.27614237 0.723857625,3.5 1,3.5 L19,3.5 C19.2761424,3.5 19.5,3.27614237 19.5,3 L19.5,0.5 L0.5,0.5 Z"></path>
        </g>
        <rect id="Rectangle-66" fill="#97A4B6" x="3" y="12" width="8" height="1" rx="0.5"></rect>
        <rect id="Rectangle-27" stroke="#97A4B6" x="13.5" y="6.5" width="3" height="4" rx="1"></rect>
        <polyline id="Path-27" stroke="#97A4B6" stroke-linecap="round" stroke-linejoin="round" points="9 10.5 11 12.5 9 14.5"></polyline>
      </g>
    </g>
  </g>
</svg>
